{
.appVersion = "1273";
copyright = "Copyright 2010 Google Inc. All Rights Reserved.";
customParameters = (
{
name = glyphOrder;
value = (
.notdef,
.null,
nonmarkingreturn,
space,
exclam,
quotedbl,
numbersign,
dollar,
percent,
ampersand,
quotesingle,
parenleft,
parenright,
asterisk,
plus,
comma,
hyphen,
period,
slash,
zero,
one,
two,
three,
four,
five,
six,
seven,
eight,
nine,
colon,
semicolon,
less,
equal,
greater,
question,
at,
A,
B,
C,
D,
E,
F,
G,
H,
I,
J,
K,
L,
M,
N,
O,
P,
Q,
R,
S,
T,
U,
V,
W,
X,
Y,
Z,
bracketleft,
backslash,
bracketright,
asciicircum,
underscore,
grave,
a,
b,
c,
d,
e,
f,
g,
h,
i,
j,
k,
l,
m,
n,
o,
p,
q,
r,
s,
t,
u,
v,
w,
x,
y,
z,
braceleft,
bar,
braceright,
asciitilde,
Adieresis,
Aring,
Ccedilla,
Eacute,
Ntilde,
Odieresis,
Udieresis,
aacute,
agrave,
acircumflex,
adieresis,
atilde,
aring,
ccedilla,
eacute,
egrave,
ecircumflex,
edieresis,
iacute,
igrave,
icircumflex,
idieresis,
ntilde,
oacute,
ograve,
ocircumflex,
odieresis,
otilde,
uacute,
ugrave,
ucircumflex,
udieresis,
dagger,
degree,
cent,
sterling,
section,
bullet,
paragraph,
germandbls,
registered,
copyright,
trademark,
acute,
dieresis,
notequal,
AE,
Oslash,
infinity,
plusminus,
lessequal,
greaterequal,
yen,
mu1,
partialdiff,
summation,
product,
integral,
ordfeminine,
ordmasculine,
Ohm,
ae,
oslash,
questiondown,
exclamdown,
logicalnot,
radical,
florin,
approxequal,
uni2206,
guillemotleft,
guillemotright,
ellipsis,
Agrave,
Atilde,
Otilde,
OE,
oe,
endash,
emdash,
quotedblleft,
quotedblright,
quoteleft,
quoteright,
divide,
lozenge,
ydieresis,
Ydieresis,
fraction,
Euro,
guilsinglleft,
guilsinglright,
fi,
fl,
daggerdbl,
periodcentered,
quotesinglbase,
quotedblbase,
perthousand,
Acircumflex,
Ecircumflex,
Aacute,
Edieresis,
Egrave,
Iacute,
Icircumflex,
Idieresis,
Igrave,
Oacute,
Ocircumflex,
Ograve,
Uacute,
Ucircumflex,
Ugrave,
dotlessi,
circumflex,
tilde,
macron,
breve,
dotaccent,
ring,
cedilla,
hungarumlaut,
ogonek,
caron,
Lslash,
lslash,
Scaron,
scaron,
Zcaron,
zcaron,
brokenbar,
Eth,
eth,

glyphs = (
{
glyphname = .notdef;
lastChange = "2019-11-19 19:15:40 +0000";
layers = (
{
layerId = "7129FC8E-08C2-4901-BA92-B1D794EB6D8E";
paths = (
{
closed = 1;
nodes = (
"205 0 LINE",
"1330 0 LINE",
"1330 1409 LINE",
"205 1409 LINE"
);
},
{
closed = 1;
nodes = (
"1254 1333 LINE",
"1254 76 LINE",
"281 76 LINE",
"281 1333 LINE"
);
}
);
width = 1536;
}
);
note = .notdef;
},
{
glyphname = exclam;
lastChange = "2019-11-19 19:15:40 +0000";
layers = (
{
layerId = "7129FC8E-08C2-4901-BA92-B1D794EB6D8E";
paths = (
{
closed = 1;
nodes = (
"487 1409 LINE",
"193 1409 LINE",
"225 426 LINE",
"455 426 LINE"
);
},
{
closed = 1;
nodes = (
"481 0 LINE",
"481 270 LINE",
"193 270 LINE",
"193 0 LINE"
);
}
);
width = 682;
}
);
note = exclam;
unicode = 0021;
},
{
glyphname = quotedbl;
lastChange = "2019-11-19 19:15:40 +0000";
layers = (
{
layerId = "7129FC8E-08C2-4901-BA92-B1D794EB6D8E";
paths = (
{
closed = 1;
nodes = (
"836 1409 LINE",
"561 1409 LINE",
"588 898 LINE",
"807 898 LINE"
);
},
{
closed = 1;
nodes = (
"408 1409 LINE",
"135 1409 LINE",
"162 898 LINE",
"381 898 LINE"
);
}
);
width = 971;
}
);
note = quotedbl;
unicode = 0022;
},
{
glyphname = numbersign;
lastChange = "2019-11-19 19:15:40 +0000";
layers = (
{
layerId = "7129FC8E-08C2-4901-BA92-B1D794EB6D8E";
paths = (
{
closed = 1;
nodes = (
"1106 862 LINE",
"1106 1010 LINE",
"942 1010 LINE",
"1026 1395 LINE",
"870 1395 LINE",
"786 1010 LINE",
"479 1010 LINE",
"561 1395 LINE",
"408 1395 LINE",
"324 1010 LINE",
"86 1010 LINE",
"86 862 LINE",
"293 862 LINE",
"223 530 LINE",
"35 530 LINE",
"35 381 LINE",
"190 381 LINE",
"111 0 LINE",
"264 0 LINE",
"344 381 LINE",
"651 381 LINE",
"571 0 LINE",
"727 0 LINE",
"809 381 LINE",
"1055 381 LINE",
"1055 530 LINE",
"840 530 LINE",
"909 862 LINE"
);
},
{
closed = 1;
nodes = (
"756 862 LINE",
"686 530 LINE",
"377 530 LINE",
"449 862 LINE"
);
}
);
width = 1139;
}
);
note = numbersign;
unicode = 0023;
},
{
glyphname = dollar;
lastChange = "2019-11-19 19:15:40 +0000";
layers = (
{
layerId = "7129FC8E-08C2-4901-BA92-B1D794EB6D8E";
paths = (
{
closed = 1;
nodes = (
"1110 553 OFFCURVE",
"964 740 OFFCURVE",
"669 836 OFFCURVE",
"640 836 QCURVE",
"629 838 LINE",
"629 1190 LINE",
"709 1179 OFFCURVE",
"796 1084 OFFCURVE",
"811 997 QCURVE",
"1075 1036 LINE",
"1042 1167 OFFCURVE",
"935 1308 OFFCURVE",
"760 1381 OFFCURVE",
"629 1386 QCURVE",
"629 1520 LINE",
"520 1520 LINE",
"520 1386 LINE",
"301 1378 OFFCURVE",
"72 1196 OFFCURVE",
"72 1030 QCURVE SMOOTH",
"72 918 OFFCURVE",
"162 763 OFFCURVE",
"327 662 OFFCURVE",
"489 625 QCURVE",
"493 625 OFFCURVE",
"517 620 OFFCURVE",
"520 618 QCURVE",
"520 227 LINE",
"415 237 OFFCURVE",
"302 342 OFFCURVE",
"283 455 QCURVE",
"27 408 LINE",
"65 215 OFFCURVE",
"305 28 OFFCURVE",
"520 20 QCURVE",
"520 -152 LINE",
"629 -152 LINE",
"629 23 LINE",
"867 32 OFFCURVE",
"1110 231 OFFCURVE",
"1110 412 QCURVE SMOOTH"
);
},
{
closed = 1;
nodes = (
"520 862 LINE",
"424 894 OFFCURVE",
"365 932 OFFCURVE",
"334 990 OFFCURVE",
"334 1034 QCURVE SMOOTH",
"334 1180 OFFCURVE",
"520 1194 QCURVE"
);
},
{
closed = 1;
nodes = (
"850 242 OFFCURVE",
"629 227 QCURVE",
"629 594 LINE",
"745 561 OFFCURVE",
"814 521 OFFCURVE",
"850 458 OFFCURVE",
"850 408 QCURVE SMOOTH"
);
}
);
width = 1139;
}
);
note = dollar;
unicode = 0024;
},
{
glyphname = percent;
lastChange = "2019-11-19 19:15:40 +0000";
layers = (
{
layerId = "7129FC8E-08C2-4901-BA92-B1D794EB6D8E";
paths = (
{
closed = 1;
nodes = (
"1767 654 OFFCURVE",
"1597 881 OFFCURVE",
"1417 881 QCURVE SMOOTH",
"1231 881 OFFCURVE",
"1059 656 OFFCURVE",
"1059 432 QCURVE SMOOTH",
"1059 212 OFFCURVE",
"1237 -16 OFFCURVE",
"1413 -16 QCURVE SMOOTH",
"1587 -16 OFFCURVE",
"1767 214 OFFCURVE",
"1767 432 QCURVE SMOOTH"
);
},
{
closed = 1;
nodes = (
"1475 1409 LINE",
"1266 1409 LINE",
"346 0 LINE",
"552 0 LINE"
);
},
{
closed = 1;
nodes = (
"223 1425 OFFCURVE",
"51 1204 OFFCURVE",
"51 977 QCURVE SMOOTH",
"51 757 OFFCURVE",
"229 528 OFFCURVE",
"403 528 QCURVE SMOOTH",
"579 528 OFFCURVE",
"760 759 OFFCURVE",
"760 977 QCURVE SMOOTH",
"760 1199 OFFCURVE",
"587 1425 OFFCURVE",
"408 1425 QCURVE SMOOTH"
);
},
{
closed = 1;
nodes = (
"1552 277 OFFCURVE",
"1488 141 OFFCURVE",
"1415 141 QCURVE SMOOTH",
"1340 141 OFFCURVE",
"1276 272 OFFCURVE",
"1276 432 QCURVE SMOOTH",
"1276 589 OFFCURVE",
"1337 727 OFFCURVE",
"1417 727 QCURVE SMOOTH",
"1491 727 OFFCURVE",
"1552 591 OFFCURVE",
"1552 432 QCURVE SMOOTH"
);
},
{
closed = 1;
nodes = (
"543 820 OFFCURVE",
"480 684 OFFCURVE",
"406 684 QCURVE SMOOTH",
"331 684 OFFCURVE",
"266 819 OFFCURVE",
"266 977 QCURVE SMOOTH",
"266 1135 OFFCURVE",
"328 1270 OFFCURVE",
"408 1270 QCURVE SMOOTH",
"482 1270 OFFCURVE",
"543 1134 OFFCURVE",
"543 977 QCURVE SMOOTH"
);
}
);
width = 1821;
}
);
note = percent;
unicode = 0025;
},
{
glyphname = ampersand;
lastChange = "2019-11-19 19:15:40 +0000";
layers = (
{
layerId = "7129FC8E-08C2-4901-BA92-B1D794EB6D8E";
paths = (
{
closed = 1;
nodes = (
"90 193 OFFCURVE",
"344 -20 OFFCURVE",
"575 -20 QCURVE SMOOTH",
"784 -20 OFFCURVE",
"954 109 QCURVE",
"1025 50 OFFCURVE",
"1198 -12 OFFCURVE",
"1284 -12 QCURVE SMOOTH",
"1360 -12 OFFCURVE",
"1415 10 QCURVE",
"1415 213 LINE",
"1363 197 OFFCURVE",
"1298 197 QCURVE SMOOTH",
"1206 197 OFFCURVE",
"1120 270 QCURVE",
"1245 457 OFFCURVE",
"1313 690 QCURVE",
"1104 760 LINE",
"1050 555 OFFCURVE",
"946 397 QCURVE",
"801 558 OFFCURVE",
"702 733 QCURVE",
"873 813 OFFCURVE",
"1016 919 OFFCURVE",
"1094 1043 OFFCURVE",
"1094 1120 QCURVE SMOOTH",
"1094 1257 OFFCURVE",
"899 1417 OFFCURVE",
"731 1417 QCURVE SMOOTH",
"550 1417 OFFCURVE",
"354 1248 OFFCURVE",
"354 1092 QCURVE SMOOTH",
"354 963 OFFCURVE",
"428 813 QCURVE",
"252 731 OFFCURVE",
"90 520 OFFCURVE",
"90 385 QCURVE SMOOTH"
);
},
{
closed = 1;
nodes = (
"870 1074 OFFCURVE",
"821 1004 OFFCURVE",
"730 942 OFFCURVE",
"625 897 QCURVE",
"571 1003 OFFCURVE",
"571 1090 QCURVE SMOOTH",
"571 1161 OFFCURVE",
"652 1247 OFFCURVE",
"729 1247 QCURVE SMOOTH",
"794 1247 OFFCURVE",
"870 1175 OFFCURVE",
"870 1118 QCURVE SMOOTH"
);
},
{
closed = 1;
nodes = (
"756 218 OFFCURVE",
"651 170 OFFCURVE",
"586 170 QCURVE SMOOTH",
"474 170 OFFCURVE",
"344 290 OFFCURVE",
"344 389 QCURVE SMOOTH",
"344 542 OFFCURVE",
"516 623 QCURVE",
"622 431 OFFCURVE",
"788 246 QCURVE"
);
}
);
width = 1479;
}
);
note = ampersand;
unicode = 0026;
},
{
glyphname = quotesingle;
lastChange = "2019-11-19 19:15:40 +0000";
layers = (
{
layerId = "7129FC8E-08C2-4901-BA92-B1D794EB6D8E";
paths = (
{
closed = 1;
nodes = (
"381 1409 LINE",
"109 1409 LINE",
"135 898 LINE",
"354 898 LINE"
);
}
);
width = 487;
}
);
note = quotesingle;
unicode = 0027;
},
{
glyphname = parenleft;
lastChange = "2019-11-19 19:15:40 +0000";
layers = (
{
layerId = "7129FC8E-08C2-4901-BA92-B1D794EB6D8E";
paths = (
{
closed = 1;
nodes = (
"680 -425 LINE",
"521 -192 OFFCURVE",
"379 257 OFFCURVE",
"379 530 QCURVE SMOOTH",
"379 804 OFFCURVE",
"522 1256 OFFCURVE",
"680 1484 QCURVE",
"399 1484 LINE",
"242 1259 OFFCURVE",
"102 810 OFFCURVE",
"102 531 QCURVE SMOOTH",
"102 251 OFFCURVE",
"242 -199 OFFCURVE",
"399 -425 QCURVE"
);
}
);
width = 682;
}
);
note = parenleft;
unicode = 0028;
},
{
glyphname = parenright;
lastChange = "2019-11-19 19:15:40 +0000";
layers = (
{
layerId = "7129FC8E-08C2-4901-BA92-B1D794EB6D8E";
paths = (
{
closed = 1;
nodes = (
"283 -425 LINE",
"441 -197 OFFCURVE",
"580 253 OFFCURVE",
"580 531 QCURVE SMOOTH",
"580 807 OFFCURVE",
"441 1257 OFFCURVE",
"283 1484 QCURVE",
"2 1484 LINE",
"159 1258 OFFCURVE",
"303 805 OFFCURVE",
"303 530 QCURVE SMOOTH",
"303 256 OFFCURVE",
"162 -191 OFFCURVE",
"2 -425 QCURVE"
);
}
);
width = 682;
}
);
note = parenright;
unicode = 0029;
},
{
glyphname = asterisk;
lastChange = "2019-11-19 19:15:40 +0000";
layers = (
{
layerId = "7129FC8E-08C2-4901-BA92-B1D794EB6D8E";
paths = (
{
closed = 1;
nodes = (
"510 1409 LINE",
"295 1409 LINE",
"313 1135 LINE",
"74 1239 LINE",
"6 1042 LINE",
"256 981 LINE",
"66 770 LINE",
"252 647 LINE",
"401 899 LINE",
"547 647 LINE",
"731 768 LINE",
"545 981 LINE",
"795 1042 LINE",
"727 1239 LINE",
"492 1135 LINE"
);
}
);
width = 797;
}
);
note = asterisk;
unicode = 002A;
},
{
glyphname = plus;
lastChange = "2019-11-19 19:15:40 +0000";
layers = (
{
layerId = "7129FC8E-08C2-4901-BA92-B1D794EB6D8E";
paths = (
{
closed = 1;
nodes = (
"1113 569 LINE",
"1113 793 LINE",
"711 793 LINE",
"711 1201 LINE",
"485 1201 LINE",
"485 793 LINE",
"86 793 LINE",
"86 569 LINE",
"485 569 LINE",
"485 161 LINE",
"711 161 LINE",
"711 569 LINE"
);
}
);
width = 1196;
}
);
note = plus;
unicode = 002B;
},
{
glyphname = comma;
lastChange = "2019-11-19 19:15:40 +0000";
layers = (
{
layerId = "7129FC8E-08C2-4901-BA92-B1D794EB6D8E";
paths = (
{
closed = 1;
nodes = (
"432 305 LINE",
"143 305 LINE",
"143 0 LINE",
"272 0 LINE",
"272 -76 OFFCURVE",
"198 -246 OFFCURVE",
"139 -317 QCURVE",
"324 -317 LINE",
"381 -238 OFFCURVE",
"432 -54 OFFCURVE",
"432 66 QCURVE SMOOTH"
);
}
);
width = 569;
}
);
note = comma;
unicode = 002C;
},
{
glyphname = hyphen;
lastChange = "2019-11-19 19:15:40 +0000";
layers = (
{
layerId = "7129FC8E-08C2-4901-BA92-B1D794EB6D8E";
paths = (
{
closed = 1;
nodes = (
"600 409 LINE",
"600 653 LINE",
"80 653 LINE",
"80 409 LINE"
);
}
);
width = 682;
}
);
note = hyphen;
unicode = "002D,00AD";
},
{
glyphname = period;
lastChange = "2019-11-19 19:15:40 +0000";
layers = (
{
layerId = "7129FC8E-08C2-4901-BA92-B1D794EB6D8E";
paths = (
{
closed = 1;
nodes = (
"428 0 LINE",
"428 305 LINE",
"139 305 LINE",
"139 0 LINE"
);
}
);
width = 569;
}
);
note = period;
unicode = 002E;
},
{
glyphname = slash;
lastChange = "2019-11-19 19:15:40 +0000";
layers = (
{
layerId = "7129FC8E-08C2-4901-BA92-B1D794EB6D8E";
paths = (
{
closed = 1;
nodes = (
"263 -41 LINE",
"549 1484 LINE",
"311 1484 LINE",
"20 -41 LINE"
);
}
);
width = 569;
}
);
note = slash;
unicode = 002F;
},
{
glyphname = zero;
lastChange = "2019-11-19 19:15:40 +0000";
layers = (
{
layerId = "7129FC8E-08C2-4901-BA92-B1D794EB6D8E";
paths = (
{
closed = 1;
nodes = (
"1055 1068 OFFCURVE",
"823 1430 OFFCURVE",
"573 1430 QCURVE SMOOTH",
"399 1430 OFFCURVE",
"187 1278 OFFCURVE",
"81 958 OFFCURVE",
"81 705 QCURVE SMOOTH",
"81 -20 OFFCURVE",
"565 -20 QCURVE SMOOTH",
"810 -20 OFFCURVE",
"1055 348 OFFCURVE",
"1055 705 QCURVE SMOOTH"
);
},
{
closed = 1;
nodes = (
"773 518 OFFCURVE",
"734 300 OFFCURVE",
"647 201 OFFCURVE",
"567 201 QCURVE SMOOTH",
"486 201 OFFCURVE",
"401 295 OFFCURVE",
"362 512 OFFCURVE",
"362 705 QCURVE SMOOTH",
"362 900 OFFCURVE",
"399 1115 OFFCURVE",
"486 1210 OFFCURVE",
"571 1210 QCURVE SMOOTH",
"651 1210 OFFCURVE",
"735 1116 OFFCURVE",
"773 900 OFFCURVE",
"773 705 QCURVE SMOOTH"
);
}
);
width = 1139;
}
);
note = zero;
unicode = 0030;
},
{
glyphname = one;
lastChange = "2019-11-19 19:15:40 +0000";
layers = (
{
layerId = "7129FC8E-08C2-4901-BA92-B1D794EB6D8E";
paths = (
{
closed = 1;
nodes = (
"1082 0 LINE",
"1082 209 LINE",
"759 209 LINE",
"759 1409 LINE",
"493 1409 LINE",
"140 1180 LINE",
"140 959 LINE",
"478 1170 LINE",
"478 209 LINE",
"129 209 LINE",
"129 0 LINE"
);
}
);
width = 1139;
}
);
note = one;
unicode = 0031;
},
{
glyphname = two;
lastChange = "2019-11-19 19:15:40 +0000";
layers = (
{
layerId = "7129FC8E-08C2-4901-BA92-B1D794EB6D8E";
paths = (
{
closed = 1;
nodes = (
"1057 0 LINE",
"1057 231 LINE",
"403 231 LINE",
"431 296 OFFCURVE",
"546 410 OFFCURVE",
"686 522 OFFCURVE",
"835 640 OFFCURVE",
"957 775 OFFCURVE",
"1035 935 OFFCURVE",
"1035 1034 QCURVE SMOOTH",
"1035 1222 OFFCURVE",
"791 1430 OFFCURVE",
"563 1430 QCURVE SMOOTH",
"352 1430 OFFCURVE",
"107 1224 OFFCURVE",
"83 1028 QCURVE",
"366 1012 LINE",
"380 1109 OFFCURVE",
"475 1206 OFFCURVE",
"565 1206 QCURVE SMOOTH",
"750 1206 OFFCURVE",
"750 1022 QCURVE SMOOTH",
"750 947 OFFCURVE",
"631 791 OFFCURVE",
"483 671 QCURVE SMOOTH",
"329 546 OFFCURVE",
"126 316 OFFCURVE",
"71 195 QCURVE",
"71 0 LINE"
);
}
);
width = 1139;
}
);
note = two;
unicode = 0032;
},
{
glyphname = three;
lastChange = "2019-11-19 19:15:40 +0000";
layers = (
{
layerId = "7129FC8E-08C2-4901-BA92-B1D794EB6D8E";
paths = (
{
closed = 1;
nodes = (
"1065 527 OFFCURVE",
"890 702 OFFCURVE",
"728 721 QCURVE",
"728 725 LINE",
"874 753 OFFCURVE",
"1029 923 OFFCURVE",
"1029 1055 QCURVE SMOOTH",
"1029 1231 OFFCURVE",
"780 1430 OFFCURVE",
"559 1430 QCURVE SMOOTH",
"351 1430 OFFCURVE",
"93 1224 OFFCURVE",
"71 1042 QCURVE",
"352 1022 LINE",
"360 1110 OFFCURVE",
"467 1206 OFFCURVE",
"554 1206 QCURVE SMOOTH",
"647 1206 OFFCURVE",
"744 1107 OFFCURVE",
"744 1020 QCURVE SMOOTH",
"744 928 OFFCURVE",
"622 829 OFFCURVE",
"501 829 QCURVE SMOOTH",
"409 829 LINE",
"409 602 LINE",
"507 602 LINE SMOOTH",
"641 602 OFFCURVE",
"777 502 OFFCURVE",
"777 408 QCURVE SMOOTH",
"777 305 OFFCURVE",
"665 205 OFFCURVE",
"564 205 QCURVE SMOOTH",
"360 205 OFFCURVE",
"333 408 QCURVE",
"47 383 LINE",
"70 186 OFFCURVE",
"338 -23 OFFCURVE",
"565 -23 QCURVE SMOOTH",
"805 -23 OFFCURVE",
"1065 193 OFFCURVE",
"1065 391 QCURVE SMOOTH"
);
}
);
width = 1139;
}
);
note = three;
unicode = 0033;
},
{
glyphname = four;
lastChange = "2019-11-19 19:15:40 +0000";
layers = (
{
layerId = "7129FC8E-08C2-4901-BA92-B1D794EB6D8E";
paths = (
{
closed = 1;
nodes = (
"1128 287 LINE",
"1128 496 LINE",
"940 496 LINE",
"940 1409 LINE",
"626 1409 LINE",
"31 498 LINE",
"31 287 LINE",
"672 287 LINE",
"672 0 LINE",
"940 0 LINE",
"940 287 LINE"
);
},
{
closed = 1;
nodes = (
"672 496 LINE",
"260 496 LINE",
"587 993 LINE SMOOTH",
"655 1099 OFFCURVE",
"681 1155 QCURVE",
"679 1137 OFFCURVE",
"672 1011 OFFCURVE",
"672 957 QCURVE SMOOTH"
);
}
);
width = 1139;
}
);
note = four;
unicode = 0034;
},
{
glyphname = five;
lastChange = "2019-11-19 19:15:40 +0000";
layers = (
{
layerId = "7129FC8E-08C2-4901-BA92-B1D794EB6D8E";
paths = (
{
closed = 1;
nodes = (
"1082 684 OFFCURVE",
"841 934 OFFCURVE",
"640 934 QCURVE SMOOTH",
"487 934 OFFCURVE",
"385 844 QCURVE",
"408 1200 LINE",
"1000 1200 LINE",
"1000 1409 LINE",
"153 1409 LINE",
"104 616 LINE",
"378 616 LINE",
"452 707 OFFCURVE",
"569 707 QCURVE SMOOTH",
"675 707 OFFCURVE",
"793 574 OFFCURVE",
"793 463 QCURVE SMOOTH",
"793 337 OFFCURVE",
"668 203 OFFCURVE",
"563 203 QCURVE SMOOTH",
"478 203 OFFCURVE",
"366 285 OFFCURVE",
"344 375 QCURVE",
"63 352 LINE",
"93 171 OFFCURVE",
"348 -20 OFFCURVE",
"560 -20 QCURVE SMOOTH",
"803 -20 OFFCURVE",
"1082 245 OFFCURVE",
"1082 469 QCURVE SMOOTH"
);
}
);
width = 1139;
}
);
note = five;
unicode = 0035;
},
{
glyphname = six;
lastChange = "2019-11-19 19:15:40 +0000";
layers = (
{
layerId = "7129FC8E-08C2-4901-BA92-B1D794EB6D8E";
paths = (
{
closed = 1;
nodes = (
"1065 667 OFFCURVE",
"845 907 OFFCURVE",
"656 907 QCURVE SMOOTH",
"555 907 OFFCURVE",
"395 827 OFFCURVE",
"350 752 QCURVE",
"350 982 OFFCURVE",
"479 1208 OFFCURVE",
"592 1208 QCURVE SMOOTH",
"724 1208 OFFCURVE",
"762 1069 QCURVE",
"1027 1106 LINE",
"984 1272 OFFCURVE",
"777 1430 OFFCURVE",
"598 1430 QCURVE SMOOTH",
"346 1430 OFFCURVE",
"75 1049 OFFCURVE",
"75 672 QCURVE SMOOTH",
"75 329 OFFCURVE",
"342 -20 OFFCURVE",
"591 -20 QCURVE SMOOTH",
"813 -20 OFFCURVE",
"1065 236 OFFCURVE",
"1065 461 QCURVE SMOOTH"
);
},
{
closed = 1;
nodes = (
"783 334 OFFCURVE",
"677 199 OFFCURVE",
"582 199 QCURVE SMOOTH",
"487 199 OFFCURVE",
"370 360 OFFCURVE",
"370 483 QCURVE SMOOTH",
"370 581 OFFCURVE",
"482 700 OFFCURVE",
"575 700 QCURVE SMOOTH",
"672 700 OFFCURVE",
"783 573 OFFCURVE",
"783 453 QCURVE SMOOTH"
);
}
);
width = 1139;
}
);
note = six;
unicode = 0036;
},
{
glyphname = seven;
lastChange = "2019-11-19 19:15:40 +0000";
layers = (
{
layerId = "7129FC8E-08C2-4901-BA92-B1D794EB6D8E";
paths = (
{
closed = 1;
nodes = (
"1049 1409 LINE",
"88 1409 LINE",
"88 1178 LINE",
"788 1178 LINE",
"559 846 OFFCURVE",
"385 505 OFFCURVE",
"293 176 OFFCURVE",
"293 0 QCURVE",
"586 0 LINE",
"586 168 OFFCURVE",
"659 469 OFFCURVE",
"785 754 OFFCURVE",
"954 1036 OFFCURVE",
"1049 1186 QCURVE"
);
}
);
width = 1139;
}
);
note = seven;
unicode = 0037;
},
{
glyphname = eight;
lastChange = "2019-11-19 19:15:40 +0000";
layers = (
{
layerId = "7129FC8E-08C2-4901-BA92-B1D794EB6D8E";
paths = (
{
closed = 1;
nodes = (
"1076 538 OFFCURVE",
"921 717 OFFCURVE",
"785 739 QCURVE",
"785 743 LINE",
"902 766 OFFCURVE",
"1041 940 OFFCURVE",
"1041 1055 QCURVE SMOOTH",
"1041 1235 OFFCURVE",
"796 1430 OFFCURVE",
"567 1430 QCURVE SMOOTH",
"343 1430 OFFCURVE",
"98 1230 OFFCURVE",
"98 1057 QCURVE SMOOTH",
"98 942 OFFCURVE",
"238 766 OFFCURVE",
"352 741 QCURVE",
"352 737 LINE",
"221 715 OFFCURVE",
"65 530 OFFCURVE",
"65 395 QCURVE SMOOTH",
"65 198 OFFCURVE",
"330 -20 OFFCURVE",
"571 -20 QCURVE SMOOTH",
"814 -20 OFFCURVE",
"1076 199 OFFCURVE",
"1076 397 QCURVE SMOOTH"
);
},
{
closed = 1;
nodes = (
"752 932 OFFCURVE",
"661 838 OFFCURVE",
"569 838 QCURVE SMOOTH",
"385 838 OFFCURVE",
"385 1040 QCURVE SMOOTH",
"385 1233 OFFCURVE",
"567 1233 QCURVE SMOOTH",
"660 1233 OFFCURVE",
"752 1140 OFFCURVE",
"752 1040 QCURVE SMOOTH"
);
},
{
closed = 1;
nodes = (
"785 292 OFFCURVE",
"682 178 OFFCURVE",
"573 178 QCURVE SMOOTH",
"462 178 OFFCURVE",
"354 292 OFFCURVE",
"354 416 QCURVE SMOOTH",
"354 525 OFFCURVE",
"463 641 OFFCURVE",
"565 641 QCURVE SMOOTH",
"785 641 OFFCURVE",
"785 420 QCURVE SMOOTH"
);
}
);
width = 1139;
}
);
note = eight;
unicode = 0038;
},
{
glyphname = nine;
lastChange = "2019-11-19 19:15:40 +0000";
layers = (
{
layerId = "7129FC8E-08C2-4901-BA92-B1D794EB6D8E";
paths = (
{
closed = 1;
nodes = (
"1063 1079 OFFCURVE",
"816 1430 OFFCURVE",
"563 1430 QCURVE SMOOTH",
"328 1430 OFFCURVE",
"71 1180 OFFCURVE",
"71 958 QCURVE SMOOTH",
"71 742 OFFCURVE",
"290 489 OFFCURVE",
"476 489 QCURVE SMOOTH",
"576 489 OFFCURVE",
"749 574 OFFCURVE",
"787 649 QCURVE",
"785 427 OFFCURVE",
"658 201 OFFCURVE",
"540 201 QCURVE SMOOTH",
"399 201 OFFCURVE",
"360 348 QCURVE",
"96 311 LINE",
"140 139 OFFCURVE",
"351 -20 OFFCURVE",
"537 -20 QCURVE SMOOTH",
"789 -20 OFFCURVE",
"1063 352 OFFCURVE",
"1063 727 QCURVE SMOOTH"
);
},
{
closed = 1;
nodes = (
"766 821 OFFCURVE",
"647 698 OFFCURVE",
"557 698 QCURVE SMOOTH",
"462 698 OFFCURVE",
"356 839 OFFCURVE",
"356 956 QCURVE SMOOTH",
"356 1075 OFFCURVE",
"463 1210 OFFCURVE",
"556 1210 QCURVE SMOOTH",
"651 1210 OFFCURVE",
"766 1055 OFFCURVE",
"766 924 QCURVE SMOOTH"
);
}
);
width = 1139;
}
);
note = nine;
unicode = 0039;
},
{
glyphname = colon;
lastChange = "2019-11-19 19:15:40 +0000";
layers = (
{
layerId = "7129FC8E-08C2-4901-BA92-B1D794EB6D8E";
paths = (
{
closed = 1;
nodes = (
"485 752 LINE",
"485 1034 LINE",
"197 1034 LINE",
"197 752 LINE"
);
},
{
closed = 1;
nodes = (
"485 0 LINE",
"485 281 LINE",
"197 281 LINE",
"197 0 LINE"
);
}
);
width = 682;
}
);
note = colon;
unicode = 003A;
},
{
glyphname = semicolon;
lastChange = "2019-11-19 19:15:40 +0000";
layers = (
{
layerId = "7129FC8E-08C2-4901-BA92-B1D794EB6D8E";
paths = (
{
closed = 1;
nodes = (
"487 752 LINE",
"487 1034 LINE",
"199 1034 LINE",
"199 752 LINE"
);
},
{
closed = 1;
nodes = (
"487 281 LINE",
"199 281 LINE",
"199 0 LINE",
"328 0 LINE",
"328 -71 OFFCURVE",
"259 -236 OFFCURVE",
"195 -317 QCURVE",
"379 -317 LINE",
"436 -238 OFFCURVE",
"487 -54 OFFCURVE",
"487 66 QCURVE SMOOTH"
);
}
);
width = 682;
}
);
note = semicolon;
unicode = "003B,037E";
},
{
glyphname = less;
lastChange = "2019-11-19 19:15:40 +0000";
layers = (
{
layerId = "7129FC8E-08C2-4901-BA92-B1D794EB6D8E";
paths = (
{
closed = 1;
nodes = (
"1113 125 LINE",
"1113 352 LINE",
"280 676 LINE",
"1113 1001 LINE",
"1113 1229 LINE",
"86 838 LINE",
"86 516 LINE"
);
}
);
width = 1196;
}
);
note = less;
unicode = 003C;
},
{
glyphname = equal;
lastChange = "2019-11-19 19:15:40 +0000";
layers = (
{
layerId = "7129FC8E-08C2-4901-BA92-B1D794EB6D8E";
paths = (
{
closed = 1;
nodes = (
"1112 842 LINE",
"1112 1065 LINE",
"85 1065 LINE",
"85 842 LINE"
);
},
{
closed = 1;
nodes = (
"1112 291 LINE",
"1112 512 LINE",
"85 512 LINE",
"85 291 LINE"
);
}
);
width = 1196;
}
);
note = equal;
unicode = 003D;
},
{
glyphname = greater;
lastChange = "2019-11-19 19:15:40 +0000";
layers = (
{
layerId = "7129FC8E-08C2-4901-BA92-B1D794EB6D8E";
paths = (
{
closed = 1;
nodes = (
"1113 516 LINE",
"1113 838 LINE",
"86 1229 LINE",
"86 1001 LINE",
"918 676 LINE",
"86 352 LINE",
"86 125 LINE"
);
}
);
width = 1196;
}
);
note = greater;
unicode = 003E;
},
{
glyphname = question;
lastChange = "2019-11-19 19:15:40 +0000";
layers = (
{
layerId = "7129FC8E-08C2-4901-BA92-B1D794EB6D8E";
paths = (
{
closed = 1;
nodes = (
"1133 1215 OFFCURVE",
"862 1430 OFFCURVE",
"625 1430 QCURVE SMOOTH",
"401 1430 OFFCURVE",
"121 1204 OFFCURVE",
"94 1001 QCURVE",
"379 989 LINE",
"391 1086 OFFCURVE",
"528 1204 OFFCURVE",
"629 1204 QCURVE SMOOTH",
"735 1204 OFFCURVE",
"850 1102 OFFCURVE",
"850 1014 QCURVE SMOOTH",
"850 945 OFFCURVE",
"762 832 OFFCURVE",
"655 758 QCURVE SMOOTH",
"555 688 OFFCURVE",
"452 528 OFFCURVE",
"446 426 QCURVE",
"713 426 LINE",
"716 486 OFFCURVE",
"783 586 OFFCURVE",
"851 635 QCURVE SMOOTH",
"927 690 LINE SMOOTH",
"1046 775 OFFCURVE",
"1133 929 OFFCURVE",
"1133 1026 QCURVE SMOOTH"
);
},
{
closed = 1;
nodes = (
"727 0 LINE",
"727 270 LINE",
"438 270 LINE",
"438 0 LINE"
);
}
);
width = 1251;
}
);
note = question;
unicode = 003F;
},
{
glyphname = at;
lastChange = "2019-11-19 19:15:40 +0000";
layers = (
{
layerId = "7129FC8E-08C2-4901-BA92-B1D794EB6D8E";
paths = (
{
closed = 1;
nodes = (
"1878 943 OFFCURVE",
"1691 1273 OFFCURVE",
"1335 1454 OFFCURVE",
"1092 1454 QCURVE SMOOTH",
"816 1454 OFFCURVE",
"370 1202 OFFCURVE",
"117 744 OFFCURVE",
"117 461 QCURVE SMOOTH",
"117 228 OFFCURVE",
"318 -133 OFFCURVE",
"677 -324 OFFCURVE",
"913 -324 QCURVE SMOOTH",
"1082 -324 OFFCURVE",
"1403 -242 OFFCURVE",
"1571 -147 QCURVE",
"1509 -25 LINE",
"1214 -180 OFFCURVE",
"920 -180 QCURVE SMOOTH",
"726 -180 OFFCURVE",
"438 -29 OFFCURVE",
"279 266 OFFCURVE",
"279 461 QCURVE SMOOTH",
"279 707 OFFCURVE",
"488 1103 OFFCURVE",
"854 1313 OFFCURVE",
"1094 1313 QCURVE SMOOTH",
"1285 1313 OFFCURVE",
"1573 1167 OFFCURVE",
"1726 898 OFFCURVE",
"1726 723 QCURVE SMOOTH",
"1726 583 OFFCURVE",
"1641 350 OFFCURVE",
"1495 211 OFFCURVE",
"1415 211 QCURVE SMOOTH",
"1384 211 OFFCURVE",
"1337 253 OFFCURVE",
"1337 303 QCURVE SMOOTH",
"1337 371 OFFCURVE",
"1374 543 QCURVE SMOOTH",
"1491 1049 LINE",
"1335 1049 LINE",
"1296 897 LINE",
"1290 897 LINE",
"1221 1071 OFFCURVE",
"1026 1071 QCURVE SMOOTH",
"884 1071 OFFCURVE",
"655 908 OFFCURVE",
"526 622 OFFCURVE",
"526 459 QCURVE SMOOTH",
"526 277 OFFCURVE",
"699 74 OFFCURVE",
"856 74 QCURVE SMOOTH",
"959 74 OFFCURVE",
"1156 208 OFFCURVE",
"1206 313 QCURVE",
"1212 313 LINE",
"1206 283 OFFCURVE",
"1206 246 QCURVE SMOOTH",
"1206 165 OFFCURVE",
"1305 74 OFFCURVE",
"1397 74 QCURVE SMOOTH",
"1527 74 OFFCURVE",
"1751 243 OFFCURVE",
"1878 543 OFFCURVE",
"1878 725 QCURVE SMOOTH"
);
},
{
closed = 1;
nodes = (
"1231 661 OFFCURVE",
"1178 458 OFFCURVE",
"1080 299 OFFCURVE",
"955 215 OFFCURVE",
"889 215 QCURVE SMOOTH",
"789 215 OFFCURVE",
"692 347 OFFCURVE",
"692 461 QCURVE SMOOTH",
"692 582 OFFCURVE",
"775 811 OFFCURVE",
"924 936 OFFCURVE",
"1018 936 QCURVE SMOOTH",
"1112 936 OFFCURVE",
"1231 816 OFFCURVE",
"1231 721 QCURVE SMOOTH"
);
}
);
width = 1997;
}
);
note = at;
unicode = 0040;
},
{
glyphname = A;
lastChange = "2019-11-20 21:25:30 +0000";
layers = (
{
layerId = "7129FC8E-08C2-4901-BA92-B1D794EB6D8E";
paths = (
{
closed = 1;
nodes = (
"1425 0 LINE",
"913 1409 LINE",
"565 1409 LINE",
"51 0 LINE",
"346 0 LINE",
"471 360 LINE",
"1008 360 LINE",
"1133 0 LINE"
);
},
{
closed = 1;
nodes = (
"537 582 LINE",
"695 1042 OFFCURVE",
"723 1134 OFFCURVE",
"739 1192 QCURVE",
"803 987 LINE SMOOTH",
"942 582 LINE"
);
}
);
width = 1479;
}
);
note = A;
unicode = 0041;
},
{
glyphname = B;
lastChange = "2019-11-19 19:15:40 +0000";
layers = (
{
layerId = "7129FC8E-08C2-4901-BA92-B1D794EB6D8E";
paths = (
{
closed = 1;
nodes = (
"1386 546 OFFCURVE",
"1207 721 OFFCURVE",
"1036 741 QCURVE",
"1172 770 OFFCURVE",
"1305 935 OFFCURVE",
"1305 1055 QCURVE SMOOTH",
"1305 1230 OFFCURVE",
"1040 1409 OFFCURVE",
"782 1409 QCURVE SMOOTH",
"137 1409 LINE",
"137 0 LINE",
"842 0 LINE SMOOTH",
"1098 0 OFFCURVE",
"1386 210 OFFCURVE",
"1386 402 QCURVE SMOOTH"
);
},
{
closed = 1;
nodes = (
"1008 928 OFFCURVE",
"895 841 OFFCURVE",
"770 841 QCURVE SMOOTH",
"432 841 LINE",
"432 1190 LINE",
"768 1190 LINE SMOOTH",
"887 1190 OFFCURVE",
"1008 1110 OFFCURVE",
"1008 1015 QCURVE SMOOTH"
);
},
{
closed = 1;
nodes = (
"1090 322 OFFCURVE",
"959 219 OFFCURVE",
"817 219 QCURVE SMOOTH",
"432 219 LINE",
"432 623 LINE",
"806 623 LINE SMOOTH",
"1090 623 OFFCURVE",
"1090 425 QCURVE SMOOTH"
);
}
);
width = 1479;
}
);
note = B;
unicode = 0042;
},
{
glyphname = C;
lastChange = "2019-11-19 19:15:40 +0000";
layers = (
{
layerId = "7129FC8E-08C2-4901-BA92-B1D794EB6D8E";
paths = (
{
closed = 1;
nodes = (
"594 212 OFFCURVE",
"381 468 OFFCURVE",
"381 711 QCURVE SMOOTH",
"381 950 OFFCURVE",
"588 1198 OFFCURVE",
"788 1198 QCURVE SMOOTH",
"919 1198 OFFCURVE",
"1112 1073 OFFCURVE",
"1145 967 QCURVE",
"1405 1038 LINE",
"1342 1231 OFFCURVE",
"1030 1430 OFFCURVE",
"782 1430 QCURVE SMOOTH",
"442 1430 OFFCURVE",
"84 1058 OFFCURVE",
"84 711 QCURVE SMOOTH",
"84 365 OFFCURVE",
"455 -20 OFFCURVE",
"795 -20 QCURVE SMOOTH",
"1019 -20 OFFCURVE",
"1340 179 OFFCURVE",
"1423 383 QCURVE",
"1166 480 LINE",
"1062 212 OFFCURVE",
"795 212 QCURVE SMOOTH"
);
}
);
width = 1479;
}
);
note = C;
unicode = 0043;
},
{
glyphname = D;
lastChange = "2019-11-19 19:15:40 +0000";
layers = (
{
layerId = "7129FC8E-08C2-4901-BA92-B1D794EB6D8E";
paths = (
{
closed = 1;
nodes = (
"1393 1050 OFFCURVE",
"1003 1409 OFFCURVE",
"647 1409 QCURVE SMOOTH",
"137 1409 LINE",
"137 0 LINE",
"707 0 LINE SMOOTH",
"909 0 OFFCURVE",
"1222 172 OFFCURVE",
"1393 497 OFFCURVE",
"1393 715 QCURVE SMOOTH"
);
},
{
closed = 1;
nodes = (
"1096 490 OFFCURVE",
"872 228 OFFCURVE",
"682 228 QCURVE SMOOTH",
"432 228 LINE",
"432 1181 LINE",
"641 1181 LINE SMOOTH",
"860 1181 OFFCURVE",
"1096 942 OFFCURVE",
"1096 715 QCURVE SMOOTH"
);
}
);
width = 1479;
}
);
note = D;
unicode = 0044;
},
{
glyphname = E;
lastChange = "2019-11-19 19:15:40 +0000";
layers = (
{
layerId = "7129FC8E-08C2-4901-BA92-B1D794EB6D8E";
paths = (
{
closed = 1;
nodes = (
"1286 0 LINE",
"1286 228 LINE",
"432 228 LINE",
"432 599 LINE",
"1184 599 LINE",
"1184 827 LINE",
"432 827 LINE",
"432 1181 LINE",
"1245 1181 LINE",
"1245 1409 LINE",
"137 1409 LINE",
"137 0 LINE"
);
}
);
width = 1366;
}
);
note = E;
unicode = 0045;
},
{
glyphname = F;
lastChange = "2019-11-19 19:15:40 +0000";
layers = (
{
layerId = "7129FC8E-08C2-4901-BA92-B1D794EB6D8E";
paths = (
{
closed = 1;
nodes = (
"1176 1181 LINE",
"1176 1409 LINE",
"137 1409 LINE",
"137 0 LINE",
"432 0 LINE",
"432 517 LINE",
"1153 517 LINE",
"1153 745 LINE",
"432 745 LINE",
"432 1181 LINE"
);
}
);
width = 1251;
}
);
note = F;
unicode = 0046;
},
{
glyphname = G;
lastChange = "2019-11-19 19:15:40 +0000";
layers = (
{
layerId = "7129FC8E-08C2-4901-BA92-B1D794EB6D8E";
paths = (
{
closed = 1;
nodes = (
"604 211 OFFCURVE",
"381 472 OFFCURVE",
"381 711 QCURVE SMOOTH",
"381 946 OFFCURVE",
"597 1198 OFFCURVE",
"805 1198 QCURVE SMOOTH",
"932 1198 OFFCURVE",
"1120 1088 OFFCURVE",
"1164 981 QCURVE",
"1436 1063 LINE",
"1301 1430 OFFCURVE",
"805 1430 QCURVE SMOOTH",
"456 1430 OFFCURVE",
"84 1059 OFFCURVE",
"84 711 QCURVE SMOOTH",
"84 361 OFFCURVE",
"454 -20 OFFCURVE",
"798 -20 QCURVE SMOOTH",
"995 -20 OFFCURVE",
"1354 110 OFFCURVE",
"1466 225 QCURVE",
"1466 743 LINE",
"852 743 LINE",
"852 525 LINE",
"1196 525 LINE",
"1196 330 LINE",
"1137 278 OFFCURVE",
"921 211 OFFCURVE",
"806 211 QCURVE SMOOTH"
);
}
);
width = 1593;
}
);
note = G;
unicode = 0047;
},
{
glyphname = H;
lastChange = "2019-11-19 19:15:40 +0000";
layers = (
{
layerId = "7129FC8E-08C2-4901-BA92-B1D794EB6D8E";
paths = (
{
closed = 1;
nodes = (
"1341 0 LINE",
"1341 1409 LINE",
"1046 1409 LINE",
"1046 848 LINE",
"432 848 LINE",
"432 1409 LINE",
"137 1409 LINE",
"137 0 LINE",
"432 0 LINE",
"432 604 LINE",
"1046 604 LINE",
"1046 0 LINE"
);
}
);
width = 1479;
}
);
note = H;
unicode = 0048;
},
{
glyphname = I;
lastChange = "2019-11-19 19:15:40 +0000";
layers = (
{
layerId = "7129FC8E-08C2-4901-BA92-B1D794EB6D8E";
paths = (
{
closed = 1;
nodes = (
"432 0 LINE",
"432 1409 LINE",
"137 1409 LINE",
"137 0 LINE"
);
}
);
width = 569;
}
);
note = I;
unicode = 0049;
},
{
glyphname = J;
lastChange = "2019-11-19 19:15:40 +0000";
layers = (
{
layerId = "7129FC8E-08C2-4901-BA92-B1D794EB6D8E";
paths = (
{
closed = 1;
nodes = (
"749 -20 OFFCURVE",
"999 226 OFFCURVE",
"999 446 QCURVE SMOOTH",
"999 1409 LINE",
"424 1409 LINE",
"424 1178 LINE",
"705 1178 LINE",
"705 439 LINE SMOOTH",
"705 329 OFFCURVE",
"614 211 OFFCURVE",
"526 211 QCURVE SMOOTH",
"440 211 OFFCURVE",
"342 316 OFFCURVE",
"324 425 QCURVE",
"31 382 LINE",
"70 170 OFFCURVE",
"305 -20 OFFCURVE",
"524 -20 QCURVE SMOOTH"
);
}
);
width = 1139;
}
);
note = J;
unicode = 004A;
},
{
glyphname = K;
lastChange = "2019-11-19 19:15:40 +0000";
layers = (
{
layerId = "7129FC8E-08C2-4901-BA92-B1D794EB6D8E";
paths = (
{
closed = 1;
nodes = (
"1460 0 LINE",
"809 813 LINE",
"1411 1409 LINE",
"1067 1409 LINE",
"432 770 LINE",
"432 1409 LINE",
"137 1409 LINE",
"137 0 LINE",
"432 0 LINE",
"432 514 LINE",
"606 647 LINE",
"1112 0 LINE"
);
}
);
width = 1479;
}
);
note = K;
unicode = 004B;
},
{
glyphname = L;
lastChange = "2019-11-19 19:15:40 +0000";
layers = (
{
layerId = "7129FC8E-08C2-4901-BA92-B1D794EB6D8E";
paths = (
{
closed = 1;
nodes = (
"1188 0 LINE",
"1188 228 LINE",
"432 228 LINE",
"432 1409 LINE",
"137 1409 LINE",
"137 0 LINE"
);
}
);
width = 1251;
}
);
note = L;
unicode = 004C;
},
{
glyphname = M;
lastChange = "2019-11-20 21:17:37 +0000";
layers = (
{
layerId = "7129FC8E-08C2-4901-BA92-B1D794EB6D8E";
paths = (
{
closed = 1;
nodes = (
"1569 0 LINE",
"1569 1409 LINE",
"1176 1409 LINE",
"917 582 LINE SMOOTH",
"854 356 LINE",
"784 621 LINE SMOOTH",
"532 1409 LINE",
"137 1409 LINE",
"137 0 LINE",
"399 0 LINE",
"399 854 LINE SMOOTH",
"399 929 OFFCURVE",
"387 1161 QCURVE",
"494 786 LINE SMOOTH",
"748 0 LINE",
"958 0 LINE",
"1212 786 LINE SMOOTH",
"1246 892 OFFCURVE",
"1317 1161 QCURVE",
"1308 941 OFFCURVE",
"1307 883 OFFCURVE",
"1307 854 QCURVE SMOOTH",
"1307 0 LINE"
);
}
);
width = 1706;
}
);
note = M;
unicode = 004D;
},
{
glyphname = N;
lastChange = "2019-11-19 19:15:40 +0000";
layers = (
{
layerId = "7129FC8E-08C2-4901-BA92-B1D794EB6D8E";
paths = (
{
closed = 1;
nodes = (
"1341 0 LINE",
"1341 1409 LINE",
"1079 1409 LINE",
"1079 590 LINE SMOOTH",
"1079 466 OFFCURVE",
"1097 315 QCURVE",
"474 1409 LINE",
"137 1409 LINE",
"137 0 LINE",
"399 0 LINE",
"399 831 LINE SMOOTH",
"399 927 OFFCURVE",
"381 1085 QCURVE",
"995 0 LINE"
);
}
);
width = 1479;
}
);
note = N;
unicode = 004E;
},
{
glyphname = O;
lastChange = "2019-11-19 19:15:40 +0000";
layers = (
{
layerId = "7129FC8E-08C2-4901-BA92-B1D794EB6D8E";
paths = (
{
closed = 1;
nodes = (
"1507 1046 OFFCURVE",
"1130 1430 OFFCURVE",
"795 1430 QCURVE SMOOTH",
"460 1430 OFFCURVE",
"84 1050 OFFCURVE",
"84 711 QCURVE SMOOTH",
"84 371 OFFCURVE",
"461 -20 OFFCURVE",
"793 -20 QCURVE SMOOTH",
"1009 -20 OFFCURVE",
"1333 157 OFFCURVE",
"1507 491 OFFCURVE",
"1507 711 QCURVE SMOOTH"
);
},
{
closed = 1;
nodes = (
"1206 472 OFFCURVE",
"991 212 OFFCURVE",
"793 212 QCURVE SMOOTH",
"602 212 OFFCURVE",
"381 479 OFFCURVE",
"381 711 QCURVE SMOOTH",
"381 941 OFFCURVE",
"597 1198 OFFCURVE",
"795 1198 QCURVE SMOOTH",
"990 1198 OFFCURVE",
"1206 939 OFFCURVE",
"1206 711 QCURVE SMOOTH"
);
}
);
width = 1593;
}
);
note = O;
unicode = 004F;
},
{
glyphname = P;
lastChange = "2019-11-19 19:15:40 +0000";
layers = (
{
layerId = "7129FC8E-08C2-4901-BA92-B1D794EB6D8E";
paths = (
{
closed = 1;
nodes = (
"1296 1176 OFFCURVE",
"1023 1409 OFFCURVE",
"770 1409 QCURVE SMOOTH",
"137 1409 LINE",
"137 0 LINE",
"432 0 LINE",
"432 496 LINE",
"782 496 LINE SMOOTH",
"941 496 OFFCURVE",
"1172 613 OFFCURVE",
"1296 827 OFFCURVE",
"1296 963 QCURVE SMOOTH"
);
},
{
closed = 1;
nodes = (
"999 844 OFFCURVE",
"867 723 OFFCURVE",
"745 723 QCURVE SMOOTH",
"432 723 LINE",
"432 1180 LINE",
"737 1180 LINE SMOOTH",
"999 1180 OFFCURVE",
"999 958 QCURVE SMOOTH"
);
}
);
width = 1366;
}
);
note = P;
unicode = 0050;
},
{
glyphname = Q;
lastChange = "2019-11-19 19:15:40 +0000";
layers = (
{
layerId = "7129FC8E-08C2-4901-BA92-B1D794EB6D8E";
paths = (
{
closed = 1;
nodes = (
"1507 1046 OFFCURVE",
"1130 1430 OFFCURVE",
"795 1430 QCURVE SMOOTH",
"460 1430 OFFCURVE",
"84 1050 OFFCURVE",
"84 711 QCURVE SMOOTH",
"84 398 OFFCURVE",
"399 17 OFFCURVE",
"684 -10 QCURVE",
"749 -221 OFFCURVE",
"963 -403 OFFCURVE",
"1126 -403 QCURVE SMOOTH",
"1242 -403 OFFCURVE",
"1368 -375 QCURVE",
"1370 -173 LINE",
"1310 -183 OFFCURVE",
"1251 -183 QCURVE SMOOTH",
"1140 -183 OFFCURVE",
"1017 -95 OFFCURVE",
"983 4 QCURVE",
"1230 54 OFFCURVE",
"1507 429 OFFCURVE",
"1507 711 QCURVE SMOOTH"
);
},
{
closed = 1;
nodes = (
"1206 471 OFFCURVE",
"991 211 OFFCURVE",
"793 211 QCURVE SMOOTH",
"601 211 OFFCURVE",
"381 479 OFFCURVE",
"381 711 QCURVE SMOOTH",
"381 941 OFFCURVE",
"597 1198 OFFCURVE",
"795 1198 QCURVE SMOOTH",
"990 1198 OFFCURVE",
"1206 939 OFFCURVE",
"1206 711 QCURVE SMOOTH"
);
}
);
width = 1593;
}
);
note = Q;
unicode = 0051;
},
{
glyphname = R;
lastChange = "2019-11-19 19:15:40 +0000";
layers = (
{
layerId = "7129FC8E-08C2-4901-BA92-B1D794EB6D8E";
paths = (
{
closed = 1;
nodes = (
"1437 0 LINE",
"1056 592 LINE",
"1199 626 OFFCURVE",
"1367 841 OFFCURVE",
"1367 989 QCURVE SMOOTH",
"1367 1192 OFFCURVE",
"1093 1409 OFFCURVE",
"841 1409 QCURVE SMOOTH",
"137 1409 LINE",
"137 0 LINE",
"432 0 LINE",
"432 535 LINE",
"778 535 LINE",
"1105 0 LINE"
);
},
{
closed = 1;
nodes = (
"1070 876 OFFCURVE",
"942 764 OFFCURVE",
"818 764 QCURVE SMOOTH",
"432 764 LINE",
"432 1180 LINE",
"810 1180 LINE SMOOTH",
"1070 1180 OFFCURVE",
"1070 977 QCURVE SMOOTH"
);
}
);
width = 1479;
}
);
note = R;
unicode = 0052;
},
{
glyphname = S;
lastChange = "2019-11-19 19:15:40 +0000";
layers = (
{
layerId = "7129FC8E-08C2-4901-BA92-B1D794EB6D8E";
paths = (
{
closed = 1;
nodes = (
"1286 494 OFFCURVE",
"1232 629 OFFCURVE",
"1130 726 OFFCURVE",
"955 799 OFFCURVE",
"752 842 QCURVE SMOOTH",
"581 878 OFFCURVE",
"469 928 OFFCURVE",
"412 998 OFFCURVE",
"412 1053 QCURVE SMOOTH",
"412 1221 OFFCURVE",
"680 1221 QCURVE SMOOTH",
"806 1221 OFFCURVE",
"941 1129 OFFCURVE",
"963 1038 QCURVE",
"1249 1077 LINE",
"1211 1266 OFFCURVE",
"948 1430 OFFCURVE",
"686 1430 QCURVE SMOOTH",
"412 1430 OFFCURVE",
"125 1227 OFFCURVE",
"125 1036 QCURVE SMOOTH",
"125 961 OFFCURVE",
"164 845 OFFCURVE",
"234 759 OFFCURVE",
"334 698 OFFCURVE",
"458 653 OFFCURVE",
"616 616 QCURVE SMOOTH",
"799 579 OFFCURVE",
"928 527 OFFCURVE",
"999 449 OFFCURVE",
"999 389 QCURVE SMOOTH",
"999 201 OFFCURVE",
"690 201 QCURVE SMOOTH",
"541 201 OFFCURVE",
"373 302 OFFCURVE",
"344 414 QCURVE",
"59 367 LINE",
"103 172 OFFCURVE",
"411 -20 OFFCURVE",
"682 -20 QCURVE SMOOTH",
"979 -20 OFFCURVE",
"1286 199 OFFCURVE",
"1286 406 QCURVE SMOOTH"
);
}
);
width = 1366;
}
);
note = S;
unicode = 0053;
},
{
glyphname = T;
lastChange = "2019-11-19 19:15:40 +0000";
layers = (
{
layerId = "7129FC8E-08C2-4901-BA92-B1D794EB6D8E";
paths = (
{
closed = 1;
nodes = (
"1229 1181 LINE",
"1229 1409 LINE",
"23 1409 LINE",
"23 1181 LINE",
"478 1181 LINE",
"478 0 LINE",
"773 0 LINE",
"773 1181 LINE"
);
}
);
width = 1251;
}
);
note = T;
unicode = 0054;
},
{
glyphname = U;
lastChange = "2019-11-19 19:15:40 +0000";
layers = (
{
layerId = "7129FC8E-08C2-4901-BA92-B1D794EB6D8E";
paths = (
{
closed = 1;
nodes = (
"1023 -20 OFFCURVE",
"1354 275 OFFCURVE",
"1354 543 QCURVE SMOOTH",
"1354 1409 LINE",
"1059 1409 LINE",
"1059 561 LINE SMOOTH",
"1059 392 OFFCURVE",
"889 211 OFFCURVE",
"731 211 QCURVE SMOOTH",
"577 211 OFFCURVE",
"418 384 OFFCURVE",
"418 551 QCURVE SMOOTH",
"418 1409 LINE",
"123 1409 LINE",
"123 528 LINE SMOOTH",
"123 264 OFFCURVE",
"432 -20 OFFCURVE",
"723 -20 QCURVE SMOOTH"
);
}
);
width = 1479;
}
);
note = U;
unicode = 0055;
},
{
glyphname = V;
lastChange = "2019-11-20 21:25:30 +0000";
layers = (
{
layerId = "7129FC8E-08C2-4901-BA92-B1D794EB6D8E";
paths = (
{
closed = 1;
nodes = (
"1352 1409 LINE",
"1047 1409 LINE",
"758 504 LINE SMOOTH",
"739 445 OFFCURVE",
"709 325 QCURVE SMOOTH",
"686 238 LINE",
"640 415 OFFCURVE",
"612 504 QCURVE SMOOTH",
"322 1409 LINE",
"14 1409 LINE",
"535 0 LINE",
"834 0 LINE"
);
}
);
width = 1366;
}
);
note = V;
unicode = 0056;
},
{
glyphname = W;
lastChange = "2019-11-19 19:15:40 +0000";
layers = (
{
layerId = "7129FC8E-08C2-4901-BA92-B1D794EB6D8E";
paths = (
{
closed = 1;
nodes = (
"1931 1409 LINE",
"1632 1409 LINE",
"1462 625 LINE",
"1409 395 LINE",
"1384 279 LINE",
"1334 575 OFFCURVE",
"1313 659 QCURVE SMOOTH",
"1135 1409 LINE",
"805 1409 LINE",
"632 671 OFFCURVE",
"579 418 OFFCURVE",
"551 279 QCURVE",
"505 499 LINE",
"301 1409 LINE",
"2 1409 LINE",
"365 0 LINE",
"715 0 LINE",
"913 848 OFFCURVE",
"943 985 OFFCURVE",
"967 1116 QCURVE",
"991 959 OFFCURVE",
"1026 815 QCURVE SMOOTH",
"1217 0 LINE",
"1567 0 LINE"
);
}
);
width = 1933;
}
);
note = W;
unicode = 0057;
},
{
glyphname = X;
lastChange = "2019-11-19 19:15:40 +0000";
layers = (
{
layerId = "7129FC8E-08C2-4901-BA92-B1D794EB6D8E";
paths = (
{
closed = 1;
nodes = (
"1348 0 LINE",
"879 741 LINE",
"1307 1409 LINE",
"997 1409 LINE",
"684 911 LINE",
"371 1409 LINE",
"59 1409 LINE",
"506 741 LINE",
"18 0 LINE",
"330 0 LINE",
"684 561 LINE",
"1038 0 LINE"
);
}
);
width = 1366;
}
);
note = X;
unicode = 0058;
},
{
glyphname = Y;
lastChange = "2019-11-19 19:15:40 +0000";
layers = (
{
layerId = "7129FC8E-08C2-4901-BA92-B1D794EB6D8E";
paths = (
{
closed = 1;
nodes = (
"1333 1409 LINE",
"1024 1409 LINE",
"682 813 LINE",
"344 1409 LINE",
"35 1409 LINE",
"537 578 LINE",
"537 0 LINE",
"831 0 LINE",
"831 578 LINE"
);
}
);
width = 1366;
}
);
note = Y;
unicode = 0059;
},
{
glyphname = Z;
lastChange = "2019-11-19 19:15:40 +0000";
layers = (
{
layerId = "7129FC8E-08C2-4901-BA92-B1D794EB6D8E";
paths = (
{
closed = 1;
nodes = (
"1192 231 LINE",
"389 231 LINE",
"1151 1204 LINE",
"1151 1409 LINE",
"137 1409 LINE",
"137 1178 LINE",
"823 1178 LINE",
"61 209 LINE",
"61 0 LINE",
"1192 0 LINE"
);
}
);
width = 1251;
}
);
note = Z;
unicode = 005A;
},
{
glyphname = bracketleft;
lastChange = "2019-11-19 19:15:40 +0000";
layers = (
{
layerId = "7129FC8E-08C2-4901-BA92-B1D794EB6D8E";
paths = (
{
closed = 1;
nodes = (
"657 -425 LINE",
"657 -234 LINE",
"381 -234 LINE",
"381 1294 LINE",
"657 1294 LINE",
"657 1484 LINE",
"115 1484 LINE",
"115 -425 LINE"
);
}
);
width = 682;
}
);
note = bracketleft;
unicode = 005B;
},
{
glyphname = backslash;
lastChange = "2019-11-19 19:15:40 +0000";
layers = (
{
layerId = "7129FC8E-08C2-4901-BA92-B1D794EB6D8E";
paths = (
{
closed = 1;
nodes = (
"550 -41 LINE",
"259 1485 LINE",
"21 1485 LINE",
"307 -41 LINE"
);
}
);
width = 569;
}
);
note = backslash;
unicode = 005C;
},
{
glyphname = bracketright;
lastChange = "2019-11-19 19:15:40 +0000";
layers = (
{
layerId = "7129FC8E-08C2-4901-BA92-B1D794EB6D8E";
paths = (
{
closed = 1;
nodes = (
"567 -425 LINE",
"567 1484 LINE",
"25 1484 LINE",
"25 1294 LINE",
"303 1294 LINE",
"303 -234 LINE",
"25 -234 LINE",
"25 -425 LINE"
);
}
);
width = 682;
}
);
note = bracketright;
unicode = 005D;
},
{
glyphname = asciicircum;
lastChange = "2019-11-19 19:15:40 +0000";
layers = (
{
layerId = "7129FC8E-08C2-4901-BA92-B1D794EB6D8E";
paths = (
{
closed = 1;
nodes = (
"1151 514 LINE",
"758 1409 LINE",
"436 1409 LINE",
"45 514 LINE",
"272 514 LINE",
"596 1266 LINE",
"922 514 LINE"
);
}
);
width = 1196;
}
);
note = asciicircum;
unicode = 005E;
},
{
glyphname = underscore;
lastChange = "2019-11-19 19:15:40 +0000";
layers = (
{
layerId = "7129FC8E-08C2-4901-BA92-B1D794EB6D8E";
paths = (
{
closed = 1;
nodes = (
"1157 -250 LINE",
"1157 -172 LINE",
"-20 -172 LINE",
"-20 -250 LINE"
);
}
);
width = 1139;
}
);
note = underscore;
unicode = 005F;
},
{
glyphname = grave;
lastChange = "2019-11-19 19:15:40 +0000";
layers = (
{
layerId = "7129FC8E-08C2-4901-BA92-B1D794EB6D8E";
paths = (
{
closed = 1;
nodes = (
"575 1183 LINE",
"575 1214 LINE",
"324 1502 LINE",
"66 1502 LINE",
"66 1459 LINE",
"406 1183 LINE"
);
}
);
width = 682;
}
);
note = grave;
unicode = 0060;
},
{
glyphname = a;
lastChange = "2019-11-19 19:15:40 +0000";
layers = (
{
layerId = "7129FC8E-08C2-4901-BA92-B1D794EB6D8E";
paths = (
{
closed = 1;
nodes = (
"631 -20 OFFCURVE",
"749 193 QCURVE",
"755 193 LINE",
"765 92 OFFCURVE",
"866 -12 OFFCURVE",
"972 -12 QCURVE SMOOTH",
"1002 -12 OFFCURVE",
"1047 -8 OFFCURVE",
"1087 -2 OFFCURVE",
"1127 8 OFFCURVE",
"1152 14 QCURVE",
"1152 166 LINE",
"1122 160 OFFCURVE",
"1090 160 QCURVE SMOOTH",
"1042 160 OFFCURVE",
"1001 229 OFFCURVE",
"1001 320 QCURVE SMOOTH",
"1001 714 LINE SMOOTH",
"1001 900 OFFCURVE",
"779 1102 OFFCURVE",
"574 1102 QCURVE SMOOTH",
"371 1102 OFFCURVE",
"136 939 OFFCURVE",
"109 781 QCURVE",
"402 767 LINE",
"411 849 OFFCURVE",
"484 920 OFFCURVE",
"562 920 QCURVE SMOOTH",
"646 920 OFFCURVE",
"720 817 OFFCURVE",
"720 711 QCURVE SMOOTH",
"720 656 LINE",
"487 652 LINE SMOOTH",
"279 648 OFFCURVE",
"60 474 OFFCURVE",
"60 306 QCURVE SMOOTH",
"60 151 OFFCURVE",
"236 -20 OFFCURVE",
"393 -20 QCURVE SMOOTH"
);
},
{
closed = 1;
nodes = (
"720 446 LINE SMOOTH",
"720 375 OFFCURVE",
"658 248 OFFCURVE",
"549 176 OFFCURVE",
"483 176 QCURVE SMOOTH",
"424 176 OFFCURVE",
"353 251 OFFCURVE",
"353 328 QCURVE SMOOTH",
"353 388 OFFCURVE",
"396 460 OFFCURVE",
"478 495 OFFCURVE",
"576 499 QCURVE SMOOTH",
"720 501 LINE"
);
}
);
width = 1139;
}
);
note = a;
unicode = 0061;
},
{
glyphname = b;
lastChange = "2019-11-19 19:15:40 +0000";
layers = (
{
layerId = "7129FC8E-08C2-4901-BA92-B1D794EB6D8E";
paths = (
{
closed = 1;
nodes = (
"1167 811 OFFCURVE",
"962 1102 OFFCURVE",
"770 1102 QCURVE SMOOTH",
"519 1102 OFFCURVE",
"424 894 QCURVE",
"420 894 LINE",
"424 1070 LINE",
"424 1484 LINE",
"143 1484 LINE",
"143 247 LINE SMOOTH",
"143 93 OFFCURVE",
"135 0 QCURVE",
"408 0 LINE",
"413 17 OFFCURVE",
"422 139 OFFCURVE",
"422 174 QCURVE",
"424 174 LINE",
"469 80 OFFCURVE",
"637 -20 OFFCURVE",
"752 -20 QCURVE SMOOTH",
"952 -20 OFFCURVE",
"1167 277 OFFCURVE",
"1167 545 QCURVE SMOOTH"
);
},
{
closed = 1;
nodes = (
"874 172 OFFCURVE",
"651 172 QCURVE SMOOTH",
"537 172 OFFCURVE",
"420 364 OFFCURVE",
"420 536 QCURVE SMOOTH",
"420 716 OFFCURVE",
"539 907 OFFCURVE",
"653 907 QCURVE SMOOTH",
"766 907 OFFCURVE",
"874 729 OFFCURVE",
"874 545 QCURVE SMOOTH"
);
}
);
width = 1251;
}
);
note = b;
unicode = 0062;
},
{
glyphname = c;
lastChange = "2019-11-19 19:15:40 +0000";
layers = (
{
layerId = "7129FC8E-08C2-4901-BA92-B1D794EB6D8E";
paths = (
{
closed = 1;
nodes = (
"725 -20 OFFCURVE",
"935 75 OFFCURVE",
"1064 249 OFFCURVE",
"1079 360 QCURVE",
"797 373 LINE",
"784 273 OFFCURVE",
"676 172 OFFCURVE",
"596 172 QCURVE SMOOTH",
"375 172 OFFCURVE",
"375 546 QCURVE SMOOTH",
"375 909 OFFCURVE",
"592 909 QCURVE SMOOTH",
"680 909 OFFCURVE",
"776 810 OFFCURVE",
"788 727 QCURVE",
"1071 741 LINE",
"1039 910 OFFCURVE",
"789 1102 OFFCURVE",
"598 1102 QCURVE SMOOTH",
"350 1102 OFFCURVE",
"80 803 OFFCURVE",
"80 535 QCURVE SMOOTH",
"80 273 OFFCURVE",
"348 -20 OFFCURVE",
"594 -20 QCURVE SMOOTH"
);
}
);
width = 1139;
}
);
note = c;
unicode = 0063;
},
{
glyphname = d;
lastChange = "2019-11-19 19:15:40 +0000";
layers = (
{
layerId = "7129FC8E-08C2-4901-BA92-B1D794EB6D8E";
paths = (
{
closed = 1;
nodes = (
"1116 0 LINE",
"1108 136 OFFCURVE",
"1108 236 QCURVE SMOOTH",
"1108 1484 LINE",
"827 1484 LINE",
"827 1089 LINE",
"829 911 LINE",
"827 911 LINE",
"782 1006 OFFCURVE",
"615 1102 OFFCURVE",
"500 1102 QCURVE SMOOTH",
"301 1102 OFFCURVE",
"84 809 OFFCURVE",
"84 540 QCURVE SMOOTH",
"84 275 OFFCURVE",
"290 -20 OFFCURVE",
"479 -20 QCURVE SMOOTH",
"734 -20 OFFCURVE",
"825 176 QCURVE",
"829 176 LINE",
"829 136 OFFCURVE",
"840 15 OFFCURVE",
"844 0 QCURVE"
);
},
{
closed = 1;
nodes = (
"831 367 OFFCURVE",
"709 172 OFFCURVE",
"598 172 QCURVE SMOOTH",
"377 172 OFFCURVE",
"377 540 QCURVE SMOOTH",
"377 728 OFFCURVE",
"487 911 OFFCURVE",
"600 911 QCURVE SMOOTH",
"714 911 OFFCURVE",
"831 722 OFFCURVE",
"831 547 QCURVE SMOOTH"
);
}
);
width = 1251;
}
);
note = d;
unicode = 0064;
},
{
glyphname = e;
lastChange = "2019-11-19 19:15:40 +0000";
layers = (
{
layerId = "7129FC8E-08C2-4901-BA92-B1D794EB6D8E";
paths = (
{
closed = 1;
nodes = (
"938 -20 OFFCURVE",
"1053 274 QCURVE",
"788 297 LINE",
"749 168 OFFCURVE",
"600 168 QCURVE SMOOTH",
"492 168 OFFCURVE",
"375 329 OFFCURVE",
"375 487 QCURVE",
"1069 487 LINE",
"1069 495 LINE SMOOTH",
"1069 793 OFFCURVE",
"823 1102 OFFCURVE",
"590 1102 QCURVE SMOOTH",
"346 1102 OFFCURVE",
"80 814 OFFCURVE",
"80 546 QCURVE SMOOTH",
"80 269 OFFCURVE",
"342 -20 OFFCURVE",
"586 -20 QCURVE SMOOTH"
);
},
{
closed = 1;
nodes = (
"679 925 OFFCURVE",
"789 794 OFFCURVE",
"797 663 QCURVE",
"377 663 LINE",
"380 787 OFFCURVE",
"487 925 OFFCURVE",
"586 925 QCURVE SMOOTH"
);
}
);
width = 1139;
}
);
note = e;
unicode = 0065;
},
{
glyphname = f;
lastChange = "2019-11-19 19:15:40 +0000";
layers = (
{
layerId = "7129FC8E-08C2-4901-BA92-B1D794EB6D8E";
paths = (
{
closed = 1;
nodes = (
"686 892 LINE",
"686 1082 LINE",
"473 1082 LINE",
"473 1167 LINE SMOOTH",
"473 1239 OFFCURVE",
"532 1296 OFFCURVE",
"604 1296 QCURVE SMOOTH",
"645 1296 OFFCURVE",
"686 1287 QCURVE",
"686 1468 LINE",
"587 1484 OFFCURVE",
"508 1484 QCURVE SMOOTH",
"349 1484 OFFCURVE",
"193 1342 OFFCURVE",
"193 1195 QCURVE SMOOTH",
"193 1082 LINE",
"35 1082 LINE",
"35 892 LINE",
"193 892 LINE",
"193 0 LINE",
"473 0 LINE",
"473 892 LINE"
);
}
);
width = 682;
}
);
note = f;
unicode = 0066;
},
{
glyphname = g;
lastChange = "2019-11-19 19:15:40 +0000";
layers = (
{
layerId = "7129FC8E-08C2-4901-BA92-B1D794EB6D8E";
paths = (
{
closed = 1;
nodes = (
"846 -434 OFFCURVE",
"1108 -198 OFFCURVE",
"1108 33 QCURVE SMOOTH",
"1108 832 LINE SMOOTH",
"1108 974 OFFCURVE",
"1114 1082 QCURVE",
"848 1082 LINE",
"843 1063 OFFCURVE",
"834 943 OFFCURVE",
"834 908 QCURVE",
"829 908 LINE",
"738 1103 OFFCURVE",
"502 1103 QCURVE SMOOTH",
"298 1103 OFFCURVE",
"84 815 OFFCURVE",
"84 550 QCURVE SMOOTH",
"84 286 OFFCURVE",
"292 2 OFFCURVE",
"481 2 QCURVE SMOOTH",
"736 2 OFFCURVE",
"829 201 QCURVE",
"831 201 LINE",
"829 94 LINE",
"829 37 LINE SMOOTH",
"829 -105 OFFCURVE",
"721 -249 OFFCURVE",
"604 -249 QCURVE SMOOTH",
"524 -249 OFFCURVE",
"425 -175 OFFCURVE",
"410 -110 QCURVE",
"129 -143 LINE",
"157 -283 OFFCURVE",
"398 -434 OFFCURVE",
"596 -434 QCURVE SMOOTH"
);
},
{
closed = 1;
nodes = (
"831 384 OFFCURVE",
"712 197 OFFCURVE",
"600 197 QCURVE SMOOTH",
"377 197 OFFCURVE",
"377 550 QCURVE SMOOTH",
"377 910 OFFCURVE",
"602 910 QCURVE SMOOTH",
"712 910 OFFCURVE",
"831 723 OFFCURVE",
"831 556 QCURVE SMOOTH"
);
}
);
width = 1251;
}
);
note = g;
unicode = 0067;
},
{
glyphname = h;
lastChange = "2019-11-19 19:15:40 +0000";
layers = (
{
layerId = "7129FC8E-08C2-4901-BA92-B1D794EB6D8E";
paths = (
{
closed = 1;
nodes = (
"416 866 LINE",
"424 970 OFFCURVE",
"424 1079 QCURVE SMOOTH",
"424 1484 LINE",
"143 1484 LINE",
"143 0 LINE",
"424 0 LINE",
"424 579 LINE SMOOTH",
"424 716 OFFCURVE",
"549 891 OFFCURVE",
"651 891 QCURVE SMOOTH",
"844 891 OFFCURVE",
"844 606 QCURVE SMOOTH",
"844 0 LINE",
"1124 0 LINE",
"1124 686 LINE SMOOTH",
"1124 890 OFFCURVE",
"940 1102 OFFCURVE",
"768 1102 QCURVE SMOOTH",
"649 1102 OFFCURVE",
"477 990 OFFCURVE",
"420 866 QCURVE"
);
}
);
width = 1251;
}
);
note = h;
unicode = 0068;
},
{
glyphname = i;
lastChange = "2019-11-19 19:15:40 +0000";
layers = (
{
layerId = "7129FC8E-08C2-4901-BA92-B1D794EB6D8E";
paths = (
{
closed = 1;
nodes = (
"424 1277 LINE",
"424 1484 LINE",
"143 1484 LINE",
"143 1277 LINE"
);
},
{
closed = 1;
nodes = (
"424 0 LINE",
"424 1082 LINE",
"143 1082 LINE",
"143 0 LINE"
);
}
);
width = 569;
}
);
note = i;
unicode = 0069;
},
{
glyphname = j;
lastChange = "2019-11-19 19:15:40 +0000";
layers = (
{
layerId = "7129FC8E-08C2-4901-BA92-B1D794EB6D8E";
paths = (
{
closed = 1;
nodes = (
"425 1277 LINE",
"425 1484 LINE",
"144 1484 LINE",
"144 1277 LINE"
);
},
{
closed = 1;
nodes = (
"280 -425 OFFCURVE",
"425 -271 OFFCURVE",
"425 -128 QCURVE SMOOTH",
"425 1082 LINE",
"144 1082 LINE",
"144 -60 LINE SMOOTH",
"144 -159 OFFCURVE",
"91 -222 OFFCURVE",
"19 -222 QCURVE",
"-32 -218 LINE",
"-32 -416 LINE",
"38 -425 OFFCURVE",
"138 -425 QCURVE SMOOTH"
);
}
);
width = 569;
}
);
note = j;
unicode = 006A;
},
{
glyphname = k;
lastChange = "2019-11-19 19:15:40 +0000";
layers = (
{
layerId = "7129FC8E-08C2-4901-BA92-B1D794EB6D8E";
paths = (
{
closed = 1;
nodes = (
"1141 0 LINE",
"732 660 LINE",
"1112 1082 LINE",
"810 1082 LINE",
"424 634 LINE",
"424 1484 LINE",
"143 1484 LINE",
"143 0 LINE",
"424 0 LINE",
"424 406 LINE",
"545 490 LINE",
"834 0 LINE"
);
}
);
width = 1139;
}
);
note = k;
unicode = 006B;
},
{
glyphname = l;
lastChange = "2019-11-19 19:15:40 +0000";
layers = (
{
layerId = "7129FC8E-08C2-4901-BA92-B1D794EB6D8E";
paths = (
{
closed = 1;
nodes = (
"424 0 LINE",
"424 1484 LINE",
"143 1484 LINE",
"143 0 LINE"
);
}
);
width = 569;
}
);
note = l;
unicode = 006C;
},
{
glyphname = m;
lastChange = "2019-11-19 19:15:40 +0000";
layers = (
{
layerId = "7129FC8E-08C2-4901-BA92-B1D794EB6D8E";
paths = (
{
closed = 1;
nodes = (
"1059 0 LINE",
"1059 593 LINE",
"1064 733 OFFCURVE",
"1169 892 OFFCURVE",
"1251 892 QCURVE SMOOTH",
"1415 892 OFFCURVE",
"1415 607 QCURVE SMOOTH",
"1415 0 LINE",
"1694 0 LINE",
"1694 687 LINE SMOOTH",
"1694 888 OFFCURVE",
"1528 1103 OFFCURVE",
"1370 1103 QCURVE SMOOTH",
"1251 1103 OFFCURVE",
"1097 993 OFFCURVE",
"1042 867 QCURVE",
"1036 867 LINE",
"983 1103 OFFCURVE",
"735 1103 QCURVE SMOOTH",
"627 1103 OFFCURVE",
"472 991 OFFCURVE",
"420 867 QCURVE",
"416 867 LINE",
"416 898 OFFCURVE",
"406 1063 OFFCURVE",
"403 1082 QCURVE",
"135 1082 LINE",
"138 1038 OFFCURVE",
"143 927 OFFCURVE",
"143 840 QCURVE SMOOTH",
"143 0 LINE",
"424 0 LINE",
"424 580 LINE SMOOTH",
"424 718 OFFCURVE",
"531 892 OFFCURVE",
"616 892 QCURVE SMOOTH",
"780 892 OFFCURVE",
"780 607 QCURVE SMOOTH",
"780 0 LINE"
);
}
);
width = 1821;
}
);
note = m;
unicode = 006D;
},
{
glyphname = n;
lastChange = "2019-11-19 19:15:40 +0000";
layers = (
{
layerId = "7129FC8E-08C2-4901-BA92-B1D794EB6D8E";
paths = (
{
closed = 1;
nodes = (
"1124 0 LINE",
"1124 687 LINE SMOOTH",
"1124 891 OFFCURVE",
"940 1103 OFFCURVE",
"768 1103 QCURVE SMOOTH",
"649 1103 OFFCURVE",
"477 991 OFFCURVE",
"420 867 QCURVE",
"416 867 LINE",
"416 898 OFFCURVE",
"406 1063 OFFCURVE",
"403 1082 QCURVE",
"135 1082 LINE",
"138 1038 OFFCURVE",
"143 927 OFFCURVE",
"143 840 QCURVE SMOOTH",
"143 0 LINE",
"424 0 LINE",
"424 580 LINE SMOOTH",
"424 717 OFFCURVE",
"549 892 OFFCURVE",
"651 892 QCURVE SMOOTH",
"844 892 OFFCURVE",
"844 607 QCURVE SMOOTH",
"844 0 LINE"
);
}
);
width = 1251;
}
);
note = n;
unicode = 006E;
},
{
glyphname = o;
lastChange = "2019-11-19 19:15:40 +0000";
layers = (
{
layerId = "7129FC8E-08C2-4901-BA92-B1D794EB6D8E";
paths = (
{
closed = 1;
nodes = (
"1171 813 OFFCURVE",
"892 1102 OFFCURVE",
"627 1102 QCURVE SMOOTH",
"368 1102 OFFCURVE",
"80 803 OFFCURVE",
"80 542 QCURVE SMOOTH",
"80 280 OFFCURVE",
"368 -20 OFFCURVE",
"621 -20 QCURVE SMOOTH",
"879 -20 OFFCURVE",
"1171 279 OFFCURVE",
"1171 542 QCURVE SMOOTH"
);
},
{
closed = 1;
nodes = (
"877 172 OFFCURVE",
"618 172 QCURVE SMOOTH",
"500 172 OFFCURVE",
"375 361 OFFCURVE",
"375 542 QCURVE SMOOTH",
"375 909 OFFCURVE",
"631 909 QCURVE SMOOTH",
"751 909 OFFCURVE",
"877 735 OFFCURVE",
"877 542 QCURVE SMOOTH"
);
}
);
width = 1251;
}
);
note = o;
unicode = 006F;
},
{
glyphname = p;
lastChange = "2019-11-19 19:15:40 +0000";
layers = (
{
layerId = "7129FC8E-08C2-4901-BA92-B1D794EB6D8E";
paths = (
{
closed = 1;
nodes = (
"1167 814 OFFCURVE",
"959 1105 OFFCURVE",
"770 1105 QCURVE SMOOTH",
"519 1105 OFFCURVE",
"424 906 QCURVE",
"420 906 LINE",
"420 958 OFFCURVE",
"413 1064 OFFCURVE",
"408 1082 QCURVE",
"135 1082 LINE",
"143 986 OFFCURVE",
"143 833 QCURVE SMOOTH",
"143 -425 LINE",
"424 -425 LINE",
"424 -10 LINE SMOOTH",
"424 142 OFFCURVE",
"418 172 QCURVE",
"424 172 LINE",
"469 79 OFFCURVE",
"638 -20 OFFCURVE",
"752 -20 QCURVE SMOOTH",
"950 -20 OFFCURVE",
"1167 275 OFFCURVE",
"1167 546 QCURVE SMOOTH"
);
},
{
closed = 1;
nodes = (
"874 172 OFFCURVE",
"649 172 QCURVE SMOOTH",
"539 172 OFFCURVE",
"420 363 OFFCURVE",
"420 538 QCURVE SMOOTH",
"420 714 OFFCURVE",
"539 910 OFFCURVE",
"651 910 QCURVE SMOOTH",
"874 910 OFFCURVE",
"874 546 QCURVE SMOOTH"
);
}
);
width = 1251;
}
);
note = p;
unicode = 0070;
},
{
glyphname = q;
lastChange = "2019-11-19 19:15:40 +0000";
layers = (
{
layerId = "7129FC8E-08C2-4901-BA92-B1D794EB6D8E";
paths = (
{
closed = 1;
nodes = (
"84 275 OFFCURVE",
"290 -20 OFFCURVE",
"479 -20 QCURVE SMOOTH",
"739 -20 OFFCURVE",
"832 180 QCURVE",
"834 180 LINE",
"829 25 LINE",
"829 -425 LINE",
"1108 -425 LINE",
"1108 833 LINE SMOOTH",
"1108 974 OFFCURVE",
"1114 1082 QCURVE",
"844 1082 LINE",
"840 1067 OFFCURVE",
"829 954 OFFCURVE",
"829 908 QCURVE",
"738 1103 OFFCURVE",
"502 1103 QCURVE SMOOTH",
"303 1103 OFFCURVE",
"84 808 OFFCURVE",
"84 540 QCURVE SMOOTH"
);
},
{
closed = 1;
nodes = (
"831 367 OFFCURVE",
"710 172 OFFCURVE",
"600 172 QCURVE SMOOTH",
"377 172 OFFCURVE",
"377 540 QCURVE SMOOTH",
"377 910 OFFCURVE",
"602 910 QCURVE SMOOTH",
"715 910 OFFCURVE",
"831 719 OFFCURVE",
"831 546 QCURVE SMOOTH"
);
}
);
width = 1251;
}
);
note = q;
unicode = 0071;
},
{
glyphname = r;
lastChange = "2019-11-19 19:15:40 +0000";
layers = (
{
layerId = "7129FC8E-08C2-4901-BA92-B1D794EB6D8E";
paths = (
{
closed = 1;
nodes = (
"424 0 LINE",
"424 531 LINE SMOOTH",
"424 698 OFFCURVE",
"541 868 OFFCURVE",
"646 868 QCURVE SMOOTH",
"698 868 OFFCURVE",
"766 853 QCURVE",
"766 1088 LINE",
"733 1103 OFFCURVE",
"679 1103 QCURVE SMOOTH",
"613 1103 OFFCURVE",
"525 1058 OFFCURVE",
"461 965 OFFCURVE",
"420 851 QCURVE",
"416 851 LINE",
"416 881 OFFCURVE",
"406 1064 OFFCURVE",
"403 1082 QCURVE",
"135 1082 LINE",
"138 1036 OFFCURVE",
"143 917 OFFCURVE",
"143 828 QCURVE SMOOTH",
"143 0 LINE"
);
}
);
width = 797;
}
);
note = r;
unicode = 0072;
},
{
glyphname = s;
lastChange = "2019-11-19 19:15:40 +0000";
layers = (
{
layerId = "7129FC8E-08C2-4901-BA92-B1D794EB6D8E";
paths = (
{
closed = 1;
nodes = (
"1055 409 OFFCURVE",
"984 528 OFFCURVE",
"865 604 OFFCURVE",
"668 659 OFFCURVE",
"541 685 QCURVE SMOOTH",
"450 703 OFFCURVE",
"373 758 OFFCURVE",
"373 805 QCURVE SMOOTH",
"373 865 OFFCURVE",
"473 916 OFFCURVE",
"573 916 QCURVE SMOOTH",
"675 916 OFFCURVE",
"769 851 OFFCURVE",
"781 785 QCURVE",
"1030 811 LINE",
"1001 953 OFFCURVE",
"766 1103 OFFCURVE",
"573 1103 QCURVE SMOOTH",
"354 1103 OFFCURVE",
"115 930 OFFCURVE",
"115 775 QCURVE SMOOTH",
"115 681 OFFCURVE",
"202 552 OFFCURVE",
"368 471 OFFCURVE",
"606 424 QCURVE SMOOTH",
"710 403 OFFCURVE",
"797 342 OFFCURVE",
"797 290 QCURVE SMOOTH",
"797 226 OFFCURVE",
"689 166 OFFCURVE",
"571 166 QCURVE SMOOTH",
"443 166 OFFCURVE",
"340 230 OFFCURVE",
"319 307 QCURVE",
"72 270 LINE",
"111 121 OFFCURVE",
"348 -20 OFFCURVE",
"571 -20 QCURVE SMOOTH",
"798 -20 OFFCURVE",
"1055 159 OFFCURVE",
"1055 316 QCURVE SMOOTH"
);
}
);
width = 1139;
}
);
note = s;
unicode = 0073;
},
{
glyphname = t;
lastChange = "2019-11-19 19:15:40 +0000";
layers = (
{
layerId = "7129FC8E-08C2-4901-BA92-B1D794EB6D8E";
paths = (
{
closed = 1;
nodes = (
"553 -18 OFFCURVE",
"657 16 QCURVE",
"657 190 LINE",
"596 176 OFFCURVE",
"563 176 QCURVE SMOOTH",
"500 176 OFFCURVE",
"440 251 OFFCURVE",
"440 330 QCURVE SMOOTH",
"440 892 LINE",
"645 892 LINE",
"645 1082 LINE",
"440 1082 LINE",
"440 1336 LINE",
"264 1336 LINE",
"176 1082 LINE",
"25 1082 LINE",
"25 892 LINE",
"162 892 LINE",
"162 254 LINE SMOOTH",
"162 117 OFFCURVE",
"296 -18 OFFCURVE",
"420 -18 QCURVE SMOOTH"
);
}
);
width = 682;
}
);
note = t;
unicode = 0074;
},
{
glyphname = u;
lastChange = "2019-11-19 19:15:40 +0000";
layers = (
{
layerId = "7129FC8E-08C2-4901-BA92-B1D794EB6D8E";
paths = (
{
closed = 1;
nodes = (
"127 1082 LINE",
"127 395 LINE SMOOTH",
"127 191 OFFCURVE",
"311 -20 OFFCURVE",
"483 -20 QCURVE SMOOTH",
"602 -20 OFFCURVE",
"775 92 OFFCURVE",
"831 215 QCURVE",
"836 215 LINE",
"836 144 OFFCURVE",
"848 0 QCURVE",
"1116 0 LINE",
"1108 104 OFFCURVE",
"1108 242 QCURVE SMOOTH",
"1108 1082 LINE",
"827 1082 LINE",
"827 502 LINE SMOOTH",
"827 365 OFFCURVE",
"702 190 OFFCURVE",
"600 190 QCURVE SMOOTH",
"408 190 OFFCURVE",
"408 475 QCURVE SMOOTH",
"408 1082 LINE"
);
}
);
width = 1251;
}
);
note = u;
unicode = 0075;
},
{
glyphname = v;
lastChange = "2019-11-19 19:15:40 +0000";
layers = (
{
layerId = "7129FC8E-08C2-4901-BA92-B1D794EB6D8E";
paths = (
{
closed = 1;
nodes = (
"1130 1082 LINE",
"836 1082 LINE",
"637 474 OFFCURVE",
"575 268 OFFCURVE",
"565 227 QCURVE",
"509 427 OFFCURVE",
"494 477 QCURVE SMOOTH",
"305 1082 LINE",
"8 1082 LINE",
"395 0 LINE",
"731 0 LINE"
);
}
);
width = 1139;
}
);
note = v;
unicode = 0076;
},
{
glyphname = w;
lastChange = "2019-11-19 19:15:40 +0000";
layers = (
{
layerId = "7129FC8E-08C2-4901-BA92-B1D794EB6D8E";
paths = (
{
closed = 1;
nodes = (
"1597 1082 LINE",
"1337 1082 LINE",
"1181 387 LINE",
"1153 255 LINE",
"1126 394 OFFCURVE",
"1112 446 QCURVE SMOOTH",
"946 1082 LINE",
"645 1082 LINE",
"475 446 LINE",
"450 329 LINE",
"436 255 LINE",
"258 1082 LINE",
"-6 1082 LINE",
"274 0 LINE",
"571 0 LINE",
"745 658 LINE",
"797 882 LINE",
"832 705 OFFCURVE",
"844 660 QCURVE SMOOTH",
"1016 0 LINE",
"1313 0 LINE"
);
}
);
width = 1593;
}
);
note = w;
unicode = 0077;
},
{
glyphname = x;
lastChange = "2019-11-19 19:15:40 +0000";
layers = (
{
layerId = "7129FC8E-08C2-4901-BA92-B1D794EB6D8E";
paths = (
{
closed = 1;
nodes = (
"1124 0 LINE",
"725 562 LINE",
"1102 1082 LINE",
"797 1082 LINE",
"567 728 LINE",
"336 1082 LINE",
"33 1082 LINE",
"410 559 LINE",
"14 0 LINE",
"313 0 LINE",
"567 392 LINE",
"819 0 LINE"
);
}
);
width = 1139;
}
);
note = x;
unicode = 0078;
},
{
glyphname = y;
lastChange = "2019-11-19 19:15:40 +0000";
layers = (
{
layerId = "7129FC8E-08C2-4901-BA92-B1D794EB6D8E";
paths = (
{
closed = 1;
nodes = (
"429 -425 OFFCURVE",
"614 -265 OFFCURVE",
"700 -57 QCURVE",
"1128 1082 LINE",
"834 1082 LINE",
"674 571 LINE",
"609 336 LINE",
"584 241 LINE",
"523 466 OFFCURVE",
"483 575 QCURVE SMOOTH",
"313 1082 LINE",
"16 1082 LINE",
"444 11 LINE",
"405 -94 OFFCURVE",
"342 -182 OFFCURVE",
"263 -220 OFFCURVE",
"203 -220 QCURVE SMOOTH",
"159 -220 OFFCURVE",
"106 -212 QCURVE",
"106 -412 LINE",
"182 -425 OFFCURVE",
"283 -425 QCURVE SMOOTH"
);
}
);
width = 1139;
}
);
note = y;
unicode = 0079;
},
{
glyphname = z;
lastChange = "2019-11-19 19:15:40 +0000";
layers = (
{
layerId = "7129FC8E-08C2-4901-BA92-B1D794EB6D8E";
paths = (
{
closed = 1;
nodes = (
"950 0 LINE",
"950 205 LINE",
"395 205 LINE",
"901 881 LINE",
"901 1082 LINE",
"123 1082 LINE",
"123 879 LINE",
"591 879 LINE",
"82 199 LINE",
"82 0 LINE"
);
}
);
width = 1024;
}
);
note = z;
unicode = 007A;
},
{
glyphname = braceleft;
lastChange = "2019-11-19 19:15:40 +0000";
layers = (
{
layerId = "7129FC8E-08C2-4901-BA92-B1D794EB6D8E";
paths = (
{
closed = 1;
nodes = (
"754 -425 LINE",
"754 -234 LINE",
"696 -234 LINE SMOOTH",
"605 -234 OFFCURVE",
"524 -131 OFFCURVE",
"524 -25 QCURVE SMOOTH",
"524 276 LINE SMOOTH",
"524 369 OFFCURVE",
"412 506 OFFCURVE",
"317 528 QCURVE",
"317 532 LINE",
"409 551 OFFCURVE",
"524 689 OFFCURVE",
"524 784 QCURVE SMOOTH",
"524 1085 LINE SMOOTH",
"524 1190 OFFCURVE",
"605 1294 OFFCURVE",
"696 1294 QCURVE SMOOTH",
"754 1294 LINE",
"754 1484 LINE",
"557 1484 LINE SMOOTH",
"419 1484 OFFCURVE",
"262 1331 OFFCURVE",
"262 1185 QCURVE SMOOTH",
"262 857 LINE SMOOTH",
"262 744 OFFCURVE",
"154 631 OFFCURVE",
"33 626 QCURVE",
"33 431 LINE",
"152 429 OFFCURVE",
"262 316 OFFCURVE",
"262 202 QCURVE SMOOTH",
"262 -126 LINE SMOOTH",
"262 -268 OFFCURVE",
"423 -425 OFFCURVE",
"557 -425 QCURVE SMOOTH"
);
}
);
width = 797;
}
);
note = braceleft;
unicode = 007B;
},
{
glyphname = bar;
lastChange = "2019-11-19 19:15:40 +0000";
layers = (
{
layerId = "7129FC8E-08C2-4901-BA92-B1D794EB6D8E";
paths = (
{
closed = 1;
nodes = (
"418 -455 LINE",
"418 1484 LINE",
"156 1484 LINE",
"156 -455 LINE"
);
}
);
width = 573;
}
);
note = bar;
unicode = 007C;
},
{
glyphname = braceright;
lastChange = "2019-11-19 19:15:40 +0000";
layers = (
{
layerId = "7129FC8E-08C2-4901-BA92-B1D794EB6D8E";
paths = (
{
closed = 1;
nodes = (
"43 -425 LINE",
"240 -425 LINE SMOOTH",
"375 -425 OFFCURVE",
"535 -267 OFFCURVE",
"535 -126 QCURVE SMOOTH",
"535 202 LINE SMOOTH",
"535 313 OFFCURVE",
"645 429 OFFCURVE",
"766 431 QCURVE",
"766 626 LINE",
"645 631 OFFCURVE",
"535 745 OFFCURVE",
"535 857 QCURVE SMOOTH",
"535 1185 LINE SMOOTH",
"535 1331 OFFCURVE",
"378 1484 OFFCURVE",
"240 1484 QCURVE SMOOTH",
"43 1484 LINE",
"43 1294 LINE",
"100 1294 LINE SMOOTH",
"193 1294 OFFCURVE",
"272 1190 OFFCURVE",
"272 1085 QCURVE SMOOTH",
"272 784 LINE SMOOTH",
"272 688 OFFCURVE",
"388 551 OFFCURVE",
"479 532 QCURVE",
"479 528 LINE",
"385 506 OFFCURVE",
"272 368 OFFCURVE",
"272 276 QCURVE SMOOTH",
"272 -25 LINE SMOOTH",
"272 -131 OFFCURVE",
"193 -234 OFFCURVE",
"100 -234 QCURVE SMOOTH",
"43 -234 LINE"
);
}
);
width = 797;
}
);
note = braceright;
unicode = 007D;
},
{
glyphname = asciitilde;
lastChange = "2019-11-19 19:15:40 +0000";
layers = (
{
layerId = "7129FC8E-08C2-4901-BA92-B1D794EB6D8E";
paths = (
{
closed = 1;
nodes = (
"938 516 OFFCURVE",
"1055 552 OFFCURVE",
"1119 596 QCURVE",
"1119 815 LINE",
"1005 723 OFFCURVE",
"871 723 QCURVE SMOOTH",
"826 723 OFFCURVE",
"726 747 OFFCURVE",
"594 793 QCURVE SMOOTH",
"457 840 OFFCURVE",
"352 840 QCURVE SMOOTH",
"194 840 OFFCURVE",
"81 756 QCURVE",
"81 543 LINE",
"146 588 OFFCURVE",
"265 631 OFFCURVE",
"336 631 QCURVE SMOOTH",
"422 631 OFFCURVE",
"557 584 QCURVE SMOOTH",
"632 558 OFFCURVE",
"777 516 OFFCURVE",
"852 516 QCURVE SMOOTH"
);
}
);
width = 1196;
}
);
note = asciitilde;
unicode = 007E;
},
{
glyphname = dagger;
lastChange = "2019-11-19 19:15:40 +0000";
layers = (
{
layerId = "7129FC8E-08C2-4901-BA92-B1D794EB6D8E";
paths = (
{
closed = 1;
nodes = (
"1002 933 LINE",
"1002 1137 LINE",
"669 1108 LINE",
"697 1484 LINE",
"442 1484 LINE",
"470 1108 LINE",
"138 1137 LINE",
"138 933 LINE",
"470 960 LINE",
"492 -138 LINE",
"647 -138 LINE",
"669 960 LINE"
);
}
);
width = 1139;
}
);
note = dagger;
unicode = 2020;
},
{
glyphname = degree;
lastChange = "2019-11-19 19:15:40 +0000";
layers = (
{
layerId = "7129FC8E-08C2-4901-BA92-B1D794EB6D8E";
paths = (
{
closed = 1;
nodes = (
"731 1240 OFFCURVE",
"545 1425 OFFCURVE",
"410 1425 QCURVE SMOOTH",
"322 1425 OFFCURVE",
"175 1342 OFFCURVE",
"90 1196 OFFCURVE",
"90 1110 QCURVE SMOOTH",
"90 977 OFFCURVE",
"278 795 OFFCURVE",
"410 795 QCURVE SMOOTH",
"544 795 OFFCURVE",
"731 980 OFFCURVE",
"731 1110 QCURVE SMOOTH"
);
},
{
closed = 1;
nodes = (
"573 1040 OFFCURVE",
"477 942 OFFCURVE",
"410 942 QCURVE SMOOTH",
"342 942 OFFCURVE",
"244 1041 OFFCURVE",
"244 1110 QCURVE SMOOTH",
"244 1179 OFFCURVE",
"339 1276 OFFCURVE",
"410 1276 QCURVE SMOOTH",
"480 1276 OFFCURVE",
"573 1180 OFFCURVE",
"573 1110 QCURVE SMOOTH"
);
}
);
width = 819;
}
);
note = degree;
unicode = 00B0;
},
{
glyphname = cent;
lastChange = "2019-11-19 19:15:40 +0000";
layers = (
{
layerId = "7129FC8E-08C2-4901-BA92-B1D794EB6D8E";
paths = (
{
closed = 1;
nodes = (
"467 340 OFFCURVE",
"334 522 OFFCURVE",
"334 696 QCURVE SMOOTH",
"334 860 OFFCURVE",
"462 1044 OFFCURVE",
"586 1044 QCURVE SMOOTH",
"674 1044 OFFCURVE",
"786 945 OFFCURVE",
"801 854 QCURVE",
"1083 868 LINE",
"1055 1019 OFFCURVE",
"837 1206 OFFCURVE",
"668 1225 QCURVE",
"668 1409 LINE",
"506 1409 LINE",
"506 1225 LINE",
"286 1200 OFFCURVE",
"51 918 OFFCURVE",
"51 686 QCURVE SMOOTH",
"51 451 OFFCURVE",
"291 179 OFFCURVE",
"506 158 QCURVE",
"506 -31 LINE",
"668 -31 LINE",
"668 160 LINE",
"846 181 OFFCURVE",
"1070 384 OFFCURVE",
"1092 537 QCURVE",
"809 549 LINE",
"795 449 OFFCURVE",
"676 340 OFFCURVE",
"588 340 QCURVE SMOOTH"
);
}
);
width = 1139;
}
);
note = cent;
unicode = 00A2;
},
{
glyphname = sterling;
lastChange = "2019-11-19 19:15:40 +0000";
layers = (
{
layerId = "7129FC8E-08C2-4901-BA92-B1D794EB6D8E";
paths = (
{
closed = 1;
nodes = (
"885 402 LINE",
"868 308 OFFCURVE",
"761 209 OFFCURVE",
"657 209 QCURVE SMOOTH",
"277 209 LINE",
"377 265 OFFCURVE",
"459 411 OFFCURVE",
"459 514 QCURVE SMOOTH",
"459 604 LINE",
"745 604 LINE",
"745 774 LINE",
"459 774 LINE",
"459 999 LINE SMOOTH",
"459 1124 OFFCURVE",
"539 1239 OFFCURVE",
"630 1239 QCURVE SMOOTH",
"696 1239 OFFCURVE",
"778 1169 OFFCURVE",
"799 1092 QCURVE",
"1032 1139 LINE",
"988 1292 OFFCURVE",
"794 1430 OFFCURVE",
"625 1430 QCURVE SMOOTH",
"413 1430 OFFCURVE",
"199 1223 OFFCURVE",
"199 1022 QCURVE SMOOTH",
"199 774 LINE",
"21 774 LINE",
"21 604 LINE",
"209 604 LINE",
"209 512 LINE SMOOTH",
"209 407 OFFCURVE",
"134 263 OFFCURVE",
"32 205 QCURVE",
"32 0 LINE",
"726 0 LINE SMOOTH",
"877 0 OFFCURVE",
"1087 191 OFFCURVE",
"1118 363 QCURVE"
);
}
);
width = 1139;
}
);
note = sterling;
unicode = 00A3;
},
{
glyphname = section;
lastChange = "2019-11-19 19:15:40 +0000";
layers = (
{
layerId = "7129FC8E-08C2-4901-BA92-B1D794EB6D8E";
paths = (
{
closed = 1;
nodes = (
"351 1427 OFFCURVE",
"116 1263 OFFCURVE",
"116 1114 QCURVE SMOOTH",
"116 1030 OFFCURVE",
"214 894 OFFCURVE",
"304 856 QCURVE",
"201 821 OFFCURVE",
"91 693 OFFCURVE",
"91 600 QCURVE SMOOTH",
"91 488 OFFCURVE",
"262 332 OFFCURVE",
"468 283 QCURVE SMOOTH",
"653 239 OFFCURVE",
"756 194 OFFCURVE",
"804 134 OFFCURVE",
"804 86 QCURVE SMOOTH",
"804 6 OFFCURVE",
"678 -59 OFFCURVE",
"556 -59 QCURVE SMOOTH",
"433 -59 OFFCURVE",
"310 16 OFFCURVE",
"290 96 QCURVE",
"53 59 LINE",
"92 -90 OFFCURVE",
"333 -229 OFFCURVE",
"556 -229 QCURVE SMOOTH",
"789 -229 OFFCURVE",
"1040 -52 OFFCURVE",
"1040 115 QCURVE SMOOTH",
"1040 292 OFFCURVE",
"859 371 QCURVE",
"946 398 OFFCURVE",
"1056 541 OFFCURVE",
"1056 634 QCURVE SMOOTH",
"1056 721 OFFCURVE",
"971 843 OFFCURVE",
"810 925 OFFCURVE",
"642 963 QCURVE SMOOTH",
"511 992 OFFCURVE",
"412 1035 OFFCURVE",
"358 1092 OFFCURVE",
"358 1133 QCURVE SMOOTH",
"358 1198 OFFCURVE",
"463 1257 OFFCURVE",
"575 1257 QCURVE SMOOTH",
"665 1257 OFFCURVE",
"779 1190 OFFCURVE",
"792 1128 QCURVE",
"1031 1153 LINE",
"1004 1286 OFFCURVE",
"769 1427 OFFCURVE",
"575 1427 QCURVE SMOOTH"
);
},
{
closed = 1;
nodes = (
"818 468 OFFCURVE",
"623 458 QCURVE",
"487 489 OFFCURVE",
"387 531 OFFCURVE",
"333 586 OFFCURVE",
"333 627 QCURVE SMOOTH",
"333 757 OFFCURVE",
"526 780 QCURVE",
"699 747 OFFCURVE",
"818 671 OFFCURVE",
"818 600 QCURVE SMOOTH"
);
}
);
width = 1139;
}
);
note = section;
unicode = 00A7;
},
{
glyphname = bullet;
lastChange = "2019-11-19 19:15:40 +0000";
layers = (
{
layerId = "7129FC8E-08C2-4901-BA92-B1D794EB6D8E";
paths = (
{
closed = 1;
nodes = (
"651 798 OFFCURVE",
"478 969 OFFCURVE",
"356 969 QCURVE SMOOTH",
"236 969 OFFCURVE",
"65 798 OFFCURVE",
"65 676 QCURVE SMOOTH",
"65 554 OFFCURVE",
"237 381 OFFCURVE",
"356 381 QCURVE SMOOTH",
"477 381 OFFCURVE",
"651 555 OFFCURVE",
"651 676 QCURVE SMOOTH"
);
}
);
width = 717;
}
);
note = bullet;
unicode = 2022;
},
{
glyphname = paragraph;
lastChange = "2019-11-19 19:15:40 +0000";
layers = (
{
layerId = "7129FC8E-08C2-4901-BA92-B1D794EB6D8E";
paths = (
{
closed = 1;
nodes = (
"1071 1266 LINE",
"1071 1409 LINE",
"442 1409 LINE SMOOTH",
"268 1409 OFFCURVE",
"71 1218 OFFCURVE",
"71 1049 QCURVE SMOOTH",
"71 879 OFFCURVE",
"265 694 OFFCURVE",
"434 694 QCURVE",
"434 -264 LINE",
"589 -264 LINE",
"589 1266 LINE",
"784 1266 LINE",
"784 -264 LINE",
"940 -264 LINE",
"940 1266 LINE"
);
}
);
width = 1139;
}
);
note = paragraph;
unicode = 00B6;
},
{
glyphname = germandbls;
lastChange = "2019-11-19 19:15:40 +0000";
layers = (
{
layerId = "7129FC8E-08C2-4901-BA92-B1D794EB6D8E";
paths = (
{
closed = 1;
nodes = (
"1193 493 OFFCURVE",
"1025 618 QCURVE SMOOTH",
"898 712 OFFCURVE",
"857 757 OFFCURVE",
"857 782 QCURVE SMOOTH",
"857 802 OFFCURVE",
"890 843 OFFCURVE",
"940 888 OFFCURVE",
"999 942 OFFCURVE",
"1049 1010 OFFCURVE",
"1082 1095 OFFCURVE",
"1082 1149 QCURVE SMOOTH",
"1082 1304 OFFCURVE",
"844 1484 OFFCURVE",
"638 1484 QCURVE SMOOTH",
"398 1484 OFFCURVE",
"143 1241 OFFCURVE",
"143 1007 QCURVE SMOOTH",
"143 0 LINE",
"424 0 LINE",
"424 1013 LINE SMOOTH",
"424 1154 OFFCURVE",
"532 1281 OFFCURVE",
"635 1281 QCURVE SMOOTH",
"723 1281 OFFCURVE",
"816 1203 OFFCURVE",
"816 1138 QCURVE SMOOTH",
"816 1093 OFFCURVE",
"766 1012 OFFCURVE",
"705 958 QCURVE SMOOTH",
"648 908 OFFCURVE",
"593 814 OFFCURVE",
"593 760 QCURVE SMOOTH",
"593 607 OFFCURVE",
"762 498 QCURVE SMOOTH",
"855 437 OFFCURVE",
"931 348 OFFCURVE",
"931 296 QCURVE SMOOTH",
"931 239 OFFCURVE",
"857 170 OFFCURVE",
"776 170 QCURVE SMOOTH",
"729 170 OFFCURVE",
"594 206 OFFCURVE",
"544 229 QCURVE",
"544 23 LINE",
"660 -20 OFFCURVE",
"806 -20 QCURVE SMOOTH",
"992 -20 OFFCURVE",
"1193 150 OFFCURVE",
"1193 312 QCURVE SMOOTH"
);
}
);
width = 1251;
}
);
note = germandbls;
unicode = 00DF;
},
{
glyphname = registered;
lastChange = "2019-11-19 19:15:40 +0000";
layers = (
{
layerId = "7129FC8E-08C2-4901-BA92-B1D794EB6D8E";
paths = (
{
closed = 1;
nodes = (
"1478 901 OFFCURVE",
"1286 1235 OFFCURVE",
"949 1430 OFFCURVE",
"755 1430 QCURVE SMOOTH",
"562 1430 OFFCURVE",
"226 1236 OFFCURVE",
"32 900 OFFCURVE",
"32 707 QCURVE SMOOTH",
"32 518 OFFCURVE",
"219 185 OFFCURVE",
"558 -16 OFFCURVE",
"755 -16 QCURVE SMOOTH",
"948 -16 OFFCURVE",
"1285 177 OFFCURVE",
"1478 514 OFFCURVE",
"1478 707 QCURVE SMOOTH"
);
},
{
closed = 1;
nodes = (
"1366 544 OFFCURVE",
"1203 260 OFFCURVE",
"919 96 OFFCURVE",
"755 96 QCURVE SMOOTH",
"591 96 OFFCURVE",
"310 260 OFFCURVE",
"147 544 OFFCURVE",
"147 707 QCURVE SMOOTH",
"147 876 OFFCURVE",
"318 1159 OFFCURVE",
"598 1315 OFFCURVE",
"755 1315 QCURVE SMOOTH",
"918 1315 OFFCURVE",
"1202 1151 OFFCURVE",
"1366 870 OFFCURVE",
"1366 707 QCURVE SMOOTH"
);
},
{
closed = 1;
nodes = (
"1124 297 LINE",
"911 633 LINE",
"989 658 OFFCURVE",
"1085 776 OFFCURVE",
"1085 870 QCURVE SMOOTH",
"1085 983 OFFCURVE",
"933 1112 OFFCURVE",
"780 1112 QCURVE SMOOTH",
"450 1112 LINE",
"450 297 LINE",
"628 297 LINE",
"628 610 LINE",
"745 610 LINE",
"923 297 LINE"
);
},
{
closed = 1;
nodes = (
"905 810 OFFCURVE",
"838 739 OFFCURVE",
"772 739 QCURVE SMOOTH",
"628 739 LINE",
"628 985 LINE",
"761 985 LINE SMOOTH",
"830 985 OFFCURVE",
"905 925 OFFCURVE",
"905 868 QCURVE SMOOTH"
);
}
);
width = 1509;
}
);
note = registered;
unicode = 00AE;
},
{
glyphname = copyright;
lastChange = "2019-11-19 19:15:40 +0000";
layers = (
{
layerId = "7129FC8E-08C2-4901-BA92-B1D794EB6D8E";
paths = (
{
closed = 1;
nodes = (
"1478 901 OFFCURVE",
"1286 1235 OFFCURVE",
"949 1430 OFFCURVE",
"755 1430 QCURVE SMOOTH",
"562 1430 OFFCURVE",
"226 1236 OFFCURVE",
"32 900 OFFCURVE",
"32 707 QCURVE SMOOTH",
"32 518 OFFCURVE",
"219 185 OFFCURVE",
"558 -16 OFFCURVE",
"755 -16 QCURVE SMOOTH",
"948 -16 OFFCURVE",
"1285 177 OFFCURVE",
"1478 514 OFFCURVE",
"1478 707 QCURVE SMOOTH"
);
},
{
closed = 1;
nodes = (
"1366 544 OFFCURVE",
"1203 260 OFFCURVE",
"919 96 OFFCURVE",
"755 96 QCURVE SMOOTH",
"591 96 OFFCURVE",
"310 260 OFFCURVE",
"147 544 OFFCURVE",
"147 707 QCURVE SMOOTH",
"147 876 OFFCURVE",
"318 1159 OFFCURVE",
"598 1315 OFFCURVE",
"755 1315 QCURVE SMOOTH",
"918 1315 OFFCURVE",
"1202 1151 OFFCURVE",
"1366 870 OFFCURVE",
"1366 707 QCURVE SMOOTH"
);
},
{
closed = 1;
nodes = (
"544 843 OFFCURVE",
"655 983 OFFCURVE",
"764 983 QCURVE SMOOTH",
"833 983 OFFCURVE",
"930 915 OFFCURVE",
"956 854 QCURVE",
"1112 895 LINE",
"1064 1012 OFFCURVE",
"889 1124 OFFCURVE",
"759 1124 QCURVE SMOOTH",
"568 1124 OFFCURVE",
"364 912 OFFCURVE",
"364 709 QCURVE SMOOTH",
"364 507 OFFCURVE",
"575 285 OFFCURVE",
"768 285 QCURVE SMOOTH",
"892 285 OFFCURVE",
"1066 397 OFFCURVE",
"1124 522 QCURVE",
"964 569 LINE",
"936 500 OFFCURVE",
"834 426 OFFCURVE",
"768 426 QCURVE SMOOTH",
"662 426 OFFCURVE",
"544 574 OFFCURVE",
"544 709 QCURVE SMOOTH"
);
}
);
width = 1509;
}
);
note = copyright;
unicode = 00A9;
},
{
glyphname = trademark;
lastChange = "2019-11-19 19:15:40 +0000";
layers = (
{
layerId = "7129FC8E-08C2-4901-BA92-B1D794EB6D8E";
paths = (
{
closed = 1;
nodes = (
"1059 1108 LINE SMOOTH",
"1059 1137 OFFCURVE",
"1052 1280 QCURVE",
"1129 1096 LINE",
"1278 768 LINE",
"1409 768 LINE",
"1563 1096 LINE",
"1609 1205 LINE",
"1639 1280 LINE",
"1631 1124 OFFCURVE",
"1631 1108 QCURVE SMOOTH",
"1631 768 LINE",
"1796 768 LINE",
"1796 1409 LINE",
"1553 1409 LINE",
"1409 1108 LINE",
"1345 948 LINE",
"1302 1059 OFFCURVE",
"1280 1108 QCURVE SMOOTH",
"1141 1409 LINE",
"893 1409 LINE",
"893 768 LINE",
"1059 768 LINE"
);
},
{
closed = 1;
nodes = (
"799 1270 LINE",
"799 1409 LINE",
"125 1409 LINE",
"125 1270 LINE",
"368 1270 LINE",
"368 768 LINE",
"548 768 LINE",
"548 1270 LINE"
);
}
);
width = 2048;
}
);
note = trademark;
unicode = 2122;
},
{
glyphname = acute;
lastChange = "2019-11-19 19:15:40 +0000";
layers = (
{
layerId = "7129FC8E-08C2-4901-BA92-B1D794EB6D8E";
paths = (
{
closed = 1;
nodes = (
"257 1183 LINE",
"597 1459 LINE",
"597 1502 LINE",
"339 1502 LINE",
"87 1214 LINE",
"87 1183 LINE"
);
}
);
width = 682;
}
);
note = acute;
unicode = 00B4;
},
{
glyphname = dieresis;
lastChange = "2019-11-19 19:15:40 +0000";
layers = (
{
layerId = "7129FC8E-08C2-4901-BA92-B1D794EB6D8E";
paths = (
{
closed = 1;
nodes = (
"667 1199 LINE",
"667 1418 LINE",
"450 1418 LINE",
"450 1199 LINE"
);
},
{
closed = 1;
nodes = (
"230 1199 LINE",
"230 1418 LINE",
"16 1418 LINE",
"16 1199 LINE"
);
}
);
width = 682;
}
);
note = dieresis;
unicode = 00A8;
},
{
glyphname = notequal;
lastChange = "2019-11-19 19:15:40 +0000";
layers = (
{
layerId = "7129FC8E-08C2-4901-BA92-B1D794EB6D8E";
paths = (
{
closed = 1;
nodes = (
"1096 291 LINE",
"1096 512 LINE",
"569 512 LINE",
"735 842 LINE",
"1096 842 LINE",
"1096 1065 LINE",
"844 1065 LINE",
"975 1323 LINE",
"764 1323 LINE",
"631 1065 LINE",
"29 1065 LINE",
"29 842 LINE",
"522 842 LINE",
"356 512 LINE",
"29 512 LINE",
"29 291 LINE",
"248 291 LINE",
"119 37 LINE",
"332 37 LINE",
"461 291 LINE"
);
}
);
width = 1124;
}
);
note = notequal;
unicode = 2260;
},
{
glyphname = AE;
lastChange = "2019-11-19 19:15:40 +0000";
layers = (
{
layerId = "7129FC8E-08C2-4901-BA92-B1D794EB6D8E";
paths = (
{
closed = 1;
nodes = (
"1968 0 LINE",
"1968 227 LINE",
"1226 227 LINE",
"1226 606 LINE",
"1865 606 LINE",
"1865 827 LINE",
"1226 827 LINE",
"1226 1182 LINE",
"1927 1182 LINE",
"1927 1409 LINE",
"704 1409 LINE",
"4 0 LINE",
"309 0 LINE",
"481 360 LINE",
"931 360 LINE",
"931 0 LINE"
);
},
{
closed = 1;
nodes = (
"931 582 LINE",
"583 582 LINE",
"821 1081 OFFCURVE",
"870 1192 QCURVE",
"931 1192 LINE"
);
}
);
width = 2048;
}
);
note = AE;
unicode = 00C6;
},
{
glyphname = Oslash;
lastChange = "2019-11-19 19:15:40 +0000";
layers = (
{
layerId = "7129FC8E-08C2-4901-BA92-B1D794EB6D8E";
paths = (
{
closed = 1;
nodes = (
"342 -72 LINE",
"433 57 LINE",
"581 -20 OFFCURVE",
"793 -20 QCURVE SMOOTH",
"1011 -20 OFFCURVE",
"1334 157 OFFCURVE",
"1508 491 OFFCURVE",
"1508 711 QCURVE SMOOTH",
"1508 891 OFFCURVE",
"1394 1176 OFFCURVE",
"1282 1270 QCURVE",
"1424 1473 LINE",
"1231 1473 LINE",
"1149 1356 LINE",
"993 1430 OFFCURVE",
"795 1430 QCURVE SMOOTH",
"460 1430 OFFCURVE",
"84 1050 OFFCURVE",
"84 711 QCURVE SMOOTH",
"84 342 OFFCURVE",
"301 145 QCURVE",
"147 -73 LINE"
);
},
{
closed = 1;
nodes = (
"1207 472 OFFCURVE",
"992 211 OFFCURVE",
"793 211 QCURVE SMOOTH",
"671 211 OFFCURVE",
"580 266 QCURVE",
"1121 1038 LINE",
"1207 914 OFFCURVE",
"1207 711 QCURVE SMOOTH"
);
},
{
closed = 1;
nodes = (
"381 941 OFFCURVE",
"597 1198 OFFCURVE",
"795 1198 QCURVE SMOOTH",
"912 1198 OFFCURVE",
"1004 1147 QCURVE",
"465 379 LINE",
"381 506 OFFCURVE",
"381 711 QCURVE SMOOTH"
);
}
);
width = 1593;
}
);
note = Oslash;
unicode = 00D8;
},
{
glyphname = infinity;
lastChange = "2019-11-19 19:15:40 +0000";
layers = (
{
layerId = "7129FC8E-08C2-4901-BA92-B1D794EB6D8E";
paths = (
{
closed = 1;
nodes = (
"1389 752 OFFCURVE",
"1206 955 OFFCURVE",
"1054 955 QCURVE SMOOTH",
"857 955 OFFCURVE",
"730 725 QCURVE",
"665 853 OFFCURVE",
"500 964 OFFCURVE",
"397 964 QCURVE SMOOTH",
"257 964 OFFCURVE",
"72 756 OFFCURVE",
"72 597 QCURVE SMOOTH",
"72 431 OFFCURVE",
"252 226 OFFCURVE",
"397 226 QCURVE SMOOTH",
"599 226 OFFCURVE",
"730 455 QCURVE",
"852 216 OFFCURVE",
"1066 216 QCURVE SMOOTH",
"1203 216 OFFCURVE",
"1389 428 OFFCURVE",
"1389 583 QCURVE SMOOTH"
);
},
{
closed = 1;
nodes = (
"1113 782 OFFCURVE",
"1199 673 OFFCURVE",
"1199 585 QCURVE SMOOTH",
"1199 499 OFFCURVE",
"1110 389 OFFCURVE",
"1041 389 QCURVE SMOOTH",
"971 389 OFFCURVE",
"872 491 OFFCURVE",
"828 585 QCURVE",
"922 782 OFFCURVE",
"1042 782 QCURVE SMOOTH"
);
},
{
closed = 1;
nodes = (
"584 495 OFFCURVE",
"488 400 OFFCURVE",
"429 400 QCURVE SMOOTH",
"352 400 OFFCURVE",
"262 511 OFFCURVE",
"262 595 QCURVE SMOOTH",
"262 682 OFFCURVE",
"357 793 OFFCURVE",
"428 793 QCURVE SMOOTH",
"488 793 OFFCURVE",
"578 708 OFFCURVE",
"631 595 QCURVE"
);
}
);
width = 1460;
}
);
note = infinity;
unicode = 221E;
},
{
glyphname = plusminus;
lastChange = "2019-11-19 19:15:40 +0000";
layers = (
{
layerId = "7129FC8E-08C2-4901-BA92-B1D794EB6D8E";
paths = (
{
closed = 1;
nodes = (
"1076 707 LINE",
"1076 930 LINE",
"674 930 LINE",
"674 1270 LINE",
"450 1270 LINE",
"450 930 LINE",
"49 930 LINE",
"49 707 LINE",
"450 707 LINE",
"450 366 LINE",
"674 366 LINE",
"674 707 LINE"
);
},
{
closed = 1;
nodes = (
"1076 0 LINE",
"1076 223 LINE",
"49 223 LINE",
"49 0 LINE"
);
}
);
width = 1124;
}
);
note = plusminus;
unicode = 00B1;
},
{
glyphname = lessequal;
lastChange = "2019-11-19 19:15:40 +0000";
layers = (
{
layerId = "7129FC8E-08C2-4901-BA92-B1D794EB6D8E";
paths = (
{
closed = 1;
nodes = (
"1075 285 LINE",
"1075 512 LINE",
"243 791 LINE",
"1075 1071 LINE",
"1075 1298 LINE",
"49 952 LINE",
"49 631 LINE"
);
},
{
closed = 1;
nodes = (
"1073 0 LINE",
"1073 223 LINE",
"49 223 LINE",
"49 0 LINE"
);
}
);
width = 1124;
}
);
note = lessequal;
unicode = 2264;
},
{
glyphname = greaterequal;
lastChange = "2019-11-19 19:15:40 +0000";
layers = (
{
layerId = "7129FC8E-08C2-4901-BA92-B1D794EB6D8E";
paths = (
{
closed = 1;
nodes = (
"1075 631 LINE",
"1075 952 LINE",
"49 1298 LINE",
"49 1071 LINE",
"880 791 LINE",
"49 512 LINE",
"49 285 LINE"
);
},
{
closed = 1;
nodes = (
"1075 0 LINE",
"1075 223 LINE",
"49 223 LINE",
"49 0 LINE"
);
}
);
width = 1124;
}
);
note = greaterequal;
unicode = 2265;
},
{
glyphname = yen;
lastChange = "2019-11-19 19:15:40 +0000";
layers = (
{
layerId = "7129FC8E-08C2-4901-BA92-B1D794EB6D8E";
paths = (
{
closed = 1;
nodes = (
"1130 1409 LINE",
"841 1409 LINE",
"567 813 LINE",
"297 1409 LINE",
"8 1409 LINE",
"372 691 LINE",
"96 691 LINE",
"96 545 LINE",
"434 545 LINE",
"432 383 LINE",
"96 383 LINE",
"96 236 LINE",
"432 236 LINE",
"432 0 LINE",
"704 0 LINE",
"704 236 LINE",
"1042 236 LINE",
"1042 383 LINE",
"704 383 LINE",
"704 545 LINE",
"1042 545 LINE",
"1042 691 LINE",
"766 691 LINE"
);
}
);
width = 1139;
}
);
note = yen;
unicode = 00A5;
},
{
glyphname = mu1;
lastChange = "2019-11-19 19:15:40 +0000";
layers = (
{
layerId = "7129FC8E-08C2-4901-BA92-B1D794EB6D8E";
paths = (
{
closed = 1;
nodes = (
"1057 0 LINE",
"1049 112 OFFCURVE",
"1049 242 QCURVE SMOOTH",
"1049 1082 LINE",
"768 1082 LINE",
"768 504 LINE SMOOTH",
"768 345 OFFCURVE",
"679 193 OFFCURVE",
"590 193 QCURVE SMOOTH",
"500 193 OFFCURVE",
"415 327 OFFCURVE",
"415 477 QCURVE SMOOTH",
"415 1082 LINE",
"134 1082 LINE",
"134 -426 LINE",
"415 -426 LINE",
"415 -45 LINE SMOOTH",
"415 27 OFFCURVE",
"411 70 QCURVE",
"415 70 LINE",
"438 28 OFFCURVE",
"519 -20 OFFCURVE",
"571 -20 QCURVE SMOOTH",
"650 -20 OFFCURVE",
"740 58 OFFCURVE",
"773 144 QCURVE",
"776 144 LINE",
"776 100 OFFCURVE",
"789 0 QCURVE"
);
}
);
width = 1180;
}
);
note = mu1;
unicode = 00B5;
},
{
glyphname = partialdiff;
lastChange = "2019-11-19 19:15:40 +0000";
layers = (
{
layerId = "7129FC8E-08C2-4901-BA92-B1D794EB6D8E";
paths = (
{
closed = 1;
nodes = (
"945 1179 OFFCURVE",
"737 1468 OFFCURVE",
"549 1468 QCURVE SMOOTH",
"434 1468 OFFCURVE",
"337 1411 QCURVE",
"292 1206 LINE",
"329 1234 OFFCURVE",
"448 1274 OFFCURVE",
"501 1274 QCURVE SMOOTH",
"612 1274 OFFCURVE",
"718 1084 OFFCURVE",
"718 911 QCURVE SMOOTH",
"718 885 OFFCURVE",
"717 821 QCURVE",
"713 821 LINE",
"682 897 OFFCURVE",
"560 983 OFFCURVE",
"484 983 QCURVE SMOOTH",
"363 983 OFFCURVE",
"172 832 OFFCURVE",
"53 533 OFFCURVE",
"53 371 QCURVE SMOOTH",
"53 179 OFFCURVE",
"230 -25 OFFCURVE",
"393 -25 QCURVE SMOOTH",
"521 -25 OFFCURVE",
"723 101 OFFCURVE",
"866 347 OFFCURVE",
"945 707 OFFCURVE",
"945 907 QCURVE SMOOTH"
);
},
{
closed = 1;
nodes = (
"663 448 OFFCURVE",
"517 170 OFFCURVE",
"423 170 QCURVE SMOOTH",
"361 170 OFFCURVE",
"290 278 OFFCURVE",
"290 375 QCURVE SMOOTH",
"290 480 OFFCURVE",
"357 696 OFFCURVE",
"465 813 OFFCURVE",
"529 813 QCURVE SMOOTH",
"584 813 OFFCURVE",
"670 720 OFFCURVE",
"685 645 QCURVE"
);
}
);
width = 1012;
}
);
note = partialdiff;
unicode = 2202;
},
{
glyphname = summation;
lastChange = "2019-11-19 19:15:40 +0000";
layers = (
{
layerId = "7129FC8E-08C2-4901-BA92-B1D794EB6D8E";
paths = (
{
closed = 1;
nodes = (
"1348 -455 LINE",
"1348 -227 LINE",
"505 -227 LINE",
"1053 485 LINE",
"525 1182 LINE",
"1291 1182 LINE",
"1291 1409 LINE",
"154 1409 LINE",
"154 1257 LINE",
"740 481 LINE",
"134 -295 LINE",
"134 -455 LINE"
);
}
);
width = 1460;
}
);
note = summation;
unicode = 2211;
},
{
glyphname = product;
lastChange = "2019-11-19 19:15:40 +0000";
layers = (
{
layerId = "7129FC8E-08C2-4901-BA92-B1D794EB6D8E";
paths = (
{
closed = 1;
nodes = (
"1482 -455 LINE",
"1482 1409 LINE",
"204 1409 LINE",
"204 -455 LINE",
"499 -455 LINE",
"499 1165 LINE",
"1200 1165 LINE",
"1200 -455 LINE"
);
}
);
width = 1686;
}
);
note = product;
unicode = 220F;
},
{
glyphname = integral;
lastChange = "2019-11-19 19:15:40 +0000";
layers = (
{
layerId = "7129FC8E-08C2-4901-BA92-B1D794EB6D8E";
paths = (
{
closed = 1;
nodes = (
"215 -455 OFFCURVE",
"426 -256 OFFCURVE",
"426 -74 QCURVE SMOOTH",
"426 1079 LINE SMOOTH",
"426 1173 OFFCURVE",
"506 1274 OFFCURVE",
"583 1274 QCURVE SMOOTH",
"652 1274 OFFCURVE",
"702 1249 QCURVE",
"702 1468 LINE",
"635 1487 OFFCURVE",
"547 1487 QCURVE SMOOTH",
"357 1487 OFFCURVE",
"145 1286 OFFCURVE",
"145 1106 QCURVE SMOOTH",
"145 -45 LINE SMOOTH",
"145 -242 OFFCURVE",
"-10 -242 QCURVE SMOOTH",
"-63 -242 OFFCURVE",
"-129 -217 QCURVE",
"-129 -434 LINE",
"-109 -441 OFFCURVE",
"-17 -455 OFFCURVE",
"26 -455 QCURVE SMOOTH"
);
}
);
width = 561;
}
);
note = integral;
unicode = 222B;
},
{
glyphname = ordfeminine;
lastChange = "2019-11-19 19:15:40 +0000";
layers = (
{
layerId = "7129FC8E-08C2-4901-BA92-B1D794EB6D8E";
paths = (
{
closed = 1;
nodes = (
"407 725 OFFCURVE",
"479 862 QCURVE",
"482 862 LINE",
"487 801 OFFCURVE",
"568 728 OFFCURVE",
"639 728 QCURVE SMOOTH",
"693 728 OFFCURVE",
"758 746 QCURVE",
"758 855 LINE",
"709 850 LINE",
"676 850 OFFCURVE",
"658 899 OFFCURVE",
"658 947 QCURVE SMOOTH",
"658 1184 LINE SMOOTH",
"658 1297 OFFCURVE",
"509 1419 OFFCURVE",
"371 1419 QCURVE SMOOTH",
"245 1419 OFFCURVE",
"88 1314 OFFCURVE",
"70 1216 QCURVE",
"260 1207 LINE",
"270 1301 OFFCURVE",
"372 1301 QCURVE SMOOTH",
"476 1301 OFFCURVE",
"476 1182 QCURVE SMOOTH",
"476 1140 LINE",
"329 1138 LINE SMOOTH",
"45 1133 OFFCURVE",
"45 927 QCURVE SMOOTH",
"45 830 OFFCURVE",
"160 725 OFFCURVE",
"257 725 QCURVE SMOOTH"
);
},
{
closed = 1;
nodes = (
"234 856 OFFCURVE",
"234 941 QCURVE SMOOTH",
"234 991 OFFCURVE",
"296 1039 OFFCURVE",
"384 1042 QCURVE SMOOTH",
"476 1044 LINE",
"476 1017 LINE SMOOTH",
"476 952 OFFCURVE",
"389 856 OFFCURVE",
"328 856 QCURVE SMOOTH"
);
}
);
width = 758;
}
);
note = ordfeminine;
unicode = 00AA;
},
{
glyphname = ordmasculine;
lastChange = "2019-11-19 19:15:40 +0000";
layers = (
{
layerId = "7129FC8E-08C2-4901-BA92-B1D794EB6D8E";
paths = (
{
closed = 1;
nodes = (
"713 1241 OFFCURVE",
"539 1419 OFFCURVE",
"379 1419 QCURVE SMOOTH",
"221 1419 OFFCURVE",
"45 1235 OFFCURVE",
"45 1073 QCURVE SMOOTH",
"45 909 OFFCURVE",
"223 725 OFFCURVE",
"375 725 QCURVE SMOOTH",
"534 725 OFFCURVE",
"713 911 OFFCURVE",
"713 1073 QCURVE SMOOTH"
);
},
{
closed = 1;
nodes = (
"513 966 OFFCURVE",
"449 865 OFFCURVE",
"374 865 QCURVE SMOOTH",
"307 865 OFFCURVE",
"243 967 OFFCURVE",
"243 1073 QCURVE SMOOTH",
"243 1177 OFFCURVE",
"308 1276 OFFCURVE",
"381 1276 QCURVE SMOOTH",
"454 1276 OFFCURVE",
"513 1179 OFFCURVE",
"513 1073 QCURVE SMOOTH"
);
}
);
width = 748;
}
);
note = ordmasculine;
unicode = 00BA;
},
{
glyphname = Ohm;
lastChange = "2019-11-19 19:15:40 +0000";
layers = (
{
layerId = "7129FC8E-08C2-4901-BA92-B1D794EB6D8E";
paths = (
{
closed = 1;
nodes = (
"472 1430 OFFCURVE",
"113 1110 OFFCURVE",
"113 829 QCURVE SMOOTH",
"113 614 OFFCURVE",
"320 313 OFFCURVE",
"529 217 QCURVE",
"419 228 OFFCURVE",
"355 228 QCURVE SMOOTH",
"85 228 LINE",
"85 0 LINE",
"721 0 LINE",
"721 309 LINE",
"565 385 OFFCURVE",
"408 608 OFFCURVE",
"408 774 QCURVE SMOOTH",
"408 977 OFFCURVE",
"608 1198 OFFCURVE",
"788 1198 QCURVE SMOOTH",
"969 1198 OFFCURVE",
"1168 976 OFFCURVE",
"1168 774 QCURVE SMOOTH",
"1168 611 OFFCURVE",
"1017 387 OFFCURVE",
"859 309 QCURVE",
"859 0 LINE",
"1488 0 LINE",
"1488 228 LINE",
"1220 228 LINE SMOOTH",
"1159 228 OFFCURVE",
"1049 217 QCURVE",
"1255 314 OFFCURVE",
"1460 615 OFFCURVE",
"1460 828 QCURVE SMOOTH",
"1460 1108 OFFCURVE",
"1102 1430 OFFCURVE",
"787 1430 QCURVE SMOOTH"
);
}
);
width = 1573;
}
);
note = Ohm;
unicode = 2126;
},
{
glyphname = ae;
lastChange = "2019-11-19 19:15:40 +0000";
layers = (
{
layerId = "7129FC8E-08C2-4901-BA92-B1D794EB6D8E";
paths = (
{
closed = 1;
nodes = (
"1605 -20 OFFCURVE",
"1720 274 QCURVE",
"1455 297 LINE",
"1416 168 OFFCURVE",
"1267 168 QCURVE SMOOTH",
"1160 168 OFFCURVE",
"1042 330 OFFCURVE",
"1042 476 QCURVE",
"1736 476 LINE",
"1736 495 LINE SMOOTH",
"1736 793 OFFCURVE",
"1490 1102 OFFCURVE",
"1257 1102 QCURVE SMOOTH",
"1049 1102 OFFCURVE",
"919 995 QCURVE",
"803 1102 OFFCURVE",
"586 1102 QCURVE SMOOTH",
"378 1102 OFFCURVE",
"141 938 OFFCURVE",
"115 781 QCURVE",
"408 767 LINE",
"417 846 OFFCURVE",
"493 920 OFFCURVE",
"578 920 QCURVE SMOOTH",
"666 920 OFFCURVE",
"746 819 OFFCURVE",
"746 711 QCURVE SMOOTH",
"746 656 LINE",
"506 652 LINE SMOOTH",
"288 647 OFFCURVE",
"66 472 OFFCURVE",
"66 306 QCURVE SMOOTH",
"66 152 OFFCURVE",
"245 -20 OFFCURVE",
"406 -20 QCURVE SMOOTH",
"686 -20 OFFCURVE",
"819 209 QCURVE",
"943 -20 OFFCURVE",
"1253 -20 QCURVE SMOOTH"
);
},
{
closed = 1;
nodes = (
"434 176 OFFCURVE",
"359 251 OFFCURVE",
"359 328 QCURVE SMOOTH",
"359 388 OFFCURVE",
"404 460 OFFCURVE",
"490 495 OFFCURVE",
"594 499 QCURVE SMOOTH",
"746 501 LINE",
"746 456 LINE SMOOTH",
"746 384 OFFCURVE",
"681 254 OFFCURVE",
"565 176 OFFCURVE",
"496 176 QCURVE SMOOTH"
);
},
{
closed = 1;
nodes = (
"1346 925 OFFCURVE",
"1456 794 OFFCURVE",
"1464 663 QCURVE",
"1044 663 LINE",
"1047 787 OFFCURVE",
"1154 925 OFFCURVE",
"1253 925 QCURVE SMOOTH"
);
}
);
width = 1821;
}
);
note = ae;
unicode = 00E6;
},
{
glyphname = oslash;
lastChange = "2019-11-19 19:15:40 +0000";
layers = (
{
layerId = "7129FC8E-08C2-4901-BA92-B1D794EB6D8E";
paths = (
{
closed = 1;
nodes = (
"1171 785 OFFCURVE",
"1058 927 QCURVE",
"1242 1133 LINE",
"1058 1133 LINE",
"957 1019 LINE",
"826 1102 OFFCURVE",
"627 1102 QCURVE SMOOTH",
"368 1102 OFFCURVE",
"80 803 OFFCURVE",
"80 542 QCURVE SMOOTH",
"80 306 OFFCURVE",
"198 160 QCURVE",
"1 -55 LINE",
"184 -55 LINE",
"297 69 LINE",
"429 -20 OFFCURVE",
"621 -20 QCURVE SMOOTH",
"879 -20 OFFCURVE",
"1171 279 OFFCURVE",
"1171 542 QCURVE SMOOTH"
);
},
{
closed = 1;
nodes = (
"375 909 OFFCURVE",
"631 909 QCURVE SMOOTH",
"739 909 OFFCURVE",
"799 840 QCURVE",
"392 379 LINE",
"375 450 OFFCURVE",
"375 542 QCURVE SMOOTH"
);
},
{
closed = 1;
nodes = (
"877 172 OFFCURVE",
"618 172 QCURVE SMOOTH",
"516 172 OFFCURVE",
"454 244 QCURVE",
"861 704 LINE",
"877 636 OFFCURVE",
"877 542 QCURVE SMOOTH"
);
}
);
width = 1251;
}
);
note = oslash;
unicode = 00F8;
},
{
glyphname = questiondown;
lastChange = "2019-11-19 19:15:40 +0000";
layers = (
{
layerId = "7129FC8E-08C2-4901-BA92-B1D794EB6D8E";
paths = (
{
closed = 1;
nodes = (
"114 -133 OFFCURVE",
"385 -348 OFFCURVE",
"622 -348 QCURVE SMOOTH",
"846 -348 OFFCURVE",
"1126 -122 OFFCURVE",
"1153 81 QCURVE",
"868 93 LINE",
"856 -4 OFFCURVE",
"719 -122 OFFCURVE",
"618 -122 QCURVE SMOOTH",
"512 -122 OFFCURVE",
"397 -20 OFFCURVE",
"397 68 QCURVE SMOOTH",
"397 138 OFFCURVE",
"485 250 OFFCURVE",
"592 325 QCURVE SMOOTH",
"691 393 OFFCURVE",
"795 554 OFFCURVE",
"801 656 QCURVE",
"534 656 LINE",
"531 596 OFFCURVE",
"464 496 OFFCURVE",
"397 447 QCURVE SMOOTH",
"320 392 LINE SMOOTH",
"201 307 OFFCURVE",
"114 153 OFFCURVE",
"114 56 QCURVE SMOOTH"
);
},
{
closed = 1;
nodes = (
"520 1082 LINE",
"520 812 LINE",
"809 812 LINE",
"809 1082 LINE"
);
}
);
width = 1251;
}
);
note = questiondown;
unicode = 00BF;
},
{
glyphname = exclamdown;
lastChange = "2019-11-19 19:15:40 +0000";
layers = (
{
layerId = "7129FC8E-08C2-4901-BA92-B1D794EB6D8E";
paths = (
{
closed = 1;
nodes = (
"488 812 LINE",
"488 1082 LINE",
"200 1082 LINE",
"200 812 LINE"
);
},
{
closed = 1;
nodes = (
"488 -327 LINE",
"456 654 LINE",
"226 654 LINE",
"194 -327 LINE"
);
}
);
width = 682;
}
);
note = exclamdown;
unicode = 00A1;
},
{
glyphname = logicalnot;
lastChange = "2019-11-19 19:15:40 +0000";
layers = (
{
layerId = "7129FC8E-08C2-4901-BA92-B1D794EB6D8E";
paths = (
{
closed = 1;
nodes = (
"1111 141 LINE",
"1111 793 LINE",
"84 793 LINE",
"84 569 LINE",
"887 569 LINE",
"887 141 LINE"
);
}
);
width = 1196;
}
);
note = logicalnot;
unicode = 00AC;
},
{
glyphname = radical;
lastChange = "2019-11-19 19:15:40 +0000";
layers = (
{
layerId = "7129FC8E-08C2-4901-BA92-B1D794EB6D8E";
paths = (
{
closed = 1;
nodes = (
"1130 1620 LINE",
"944 1620 LINE",
"532 260 LINE",
"313 895 LINE",
"2 895 LINE",
"2 729 LINE",
"186 729 LINE",
"456 -25 LINE",
"624 -25 LINE"
);
}
);
width = 1124;
}
);
note = radical;
unicode = 221A;
},
{
glyphname = florin;
lastChange = "2019-11-19 19:15:40 +0000";
layers = (
{
layerId = "7129FC8E-08C2-4901-BA92-B1D794EB6D8E";
paths = (
{
closed = 1;
nodes = (
"885 1457 LINE",
"851 1470 OFFCURVE",
"752 1484 OFFCURVE",
"702 1484 QCURVE SMOOTH",
"545 1484 OFFCURVE",
"392 1345 OFFCURVE",
"392 1195 QCURVE SMOOTH",
"392 1082 LINE",
"234 1082 LINE",
"234 892 LINE",
"392 892 LINE",
"392 -425 LINE",
"672 -425 LINE",
"672 892 LINE",
"885 892 LINE",
"885 1082 LINE",
"672 1082 LINE",
"672 1167 LINE SMOOTH",
"672 1240 OFFCURVE",
"723 1294 OFFCURVE",
"779 1294 QCURVE SMOOTH",
"799 1294 OFFCURVE",
"863 1284 OFFCURVE",
"885 1277 QCURVE"
);
}
);
width = 1139;
}
);
note = florin;
unicode = 0192;
},
{
glyphname = approxequal;
lastChange = "2019-11-19 19:15:40 +0000";
layers = (
{
layerId = "7129FC8E-08C2-4901-BA92-B1D794EB6D8E";
paths = (
{
closed = 1;
nodes = (
"898 756 OFFCURVE",
"1018 791 OFFCURVE",
"1081 836 QCURVE",
"1081 1055 LINE",
"967 963 OFFCURVE",
"833 963 QCURVE SMOOTH",
"754 963 OFFCURVE",
"633 1006 QCURVE SMOOTH",
"491 1054 OFFCURVE",
"367 1079 OFFCURVE",
"314 1079 QCURVE SMOOTH",
"153 1079 OFFCURVE",
"43 995 QCURVE",
"43 782 LINE",
"113 831 OFFCURVE",
"231 870 OFFCURVE",
"298 870 QCURVE SMOOTH",
"387 870 OFFCURVE",
"519 823 QCURVE SMOOTH",
"594 797 OFFCURVE",
"739 756 OFFCURVE",
"814 756 QCURVE SMOOTH"
);
},
{
closed = 1;
nodes = (
"900 274 OFFCURVE",
"1017 310 OFFCURVE",
"1081 354 QCURVE",
"1081 573 LINE",
"967 481 OFFCURVE",
"833 481 QCURVE SMOOTH",
"805 481 OFFCURVE",
"735 494 OFFCURVE",
"633 526 QCURVE SMOOTH",
"557 552 OFFCURVE",
"397 598 OFFCURVE",
"314 598 QCURVE SMOOTH",
"156 598 OFFCURVE",
"43 514 QCURVE",
"43 301 LINE",
"108 346 OFFCURVE",
"227 389 OFFCURVE",
"298 389 QCURVE SMOOTH",
"390 389 OFFCURVE",
"519 344 QCURVE SMOOTH",
"594 318 OFFCURVE",
"739 274 OFFCURVE",
"814 274 QCURVE SMOOTH"
);
}
);
width = 1124;
}
);
note = approxequal;
unicode = 2248;
},
{
glyphname = uni2206;
lastChange = "2019-11-19 19:15:40 +0000";
layers = (
{
layerId = "7129FC8E-08C2-4901-BA92-B1D794EB6D8E";
paths = (
{
closed = 1;
nodes = (
"1209 0 LINE",
"1209 215 LINE",
"808 1409 LINE",
"440 1409 LINE",
"43 215 LINE",
"43 0 LINE"
);
},
{
closed = 1;
nodes = (
"627 1193 OFFCURVE",
"916 231 QCURVE",
"336 231 LINE",
"543 920 LINE",
"615 1174 LINE",
"624 1208 LINE"
);
}
);
width = 1253;
}
);
note = uni2206;
unicode = 2206;
},
{
glyphname = guillemotleft;
lastChange = "2019-11-19 19:15:40 +0000";
layers = (
{
layerId = "7129FC8E-08C2-4901-BA92-B1D794EB6D8E";
paths = (
{
closed = 1;
nodes = (
"1047 141 LINE",
"1047 176 LINE",
"791 537 LINE",
"1045 903 LINE",
"1045 940 LINE",
"807 940 LINE",
"551 573 LINE",
"551 502 LINE",
"807 141 LINE"
);
},
{
closed = 1;
nodes = (
"588 141 LINE",
"588 176 LINE",
"332 537 LINE",
"586 903 LINE",
"586 940 LINE",
"350 940 LINE",
"92 573 LINE",
"92 502 LINE",
"350 141 LINE"
);
}
);
width = 1139;
}
);
note = guillemotleft;
unicode = 00AB;
},
{
glyphname = guillemotright;
lastChange = "2019-11-19 19:15:40 +0000";
layers = (
{
layerId = "7129FC8E-08C2-4901-BA92-B1D794EB6D8E";
paths = (
{
closed = 1;
nodes = (
"333 141 LINE",
"589 502 LINE",
"589 573 LINE",
"333 940 LINE",
"95 940 LINE",
"95 903 LINE",
"349 537 LINE",
"93 176 LINE",
"93 141 LINE"
);
},
{
closed = 1;
nodes = (
"790 141 LINE",
"1048 502 LINE",
"1048 573 LINE",
"790 940 LINE",
"554 940 LINE",
"554 903 LINE",
"808 537 LINE",
"552 176 LINE",
"552 141 LINE"
);
}
);
width = 1139;
}
);
note = guillemotright;
unicode = 00BB;
},
{
glyphname = ellipsis;
lastChange = "2019-11-19 19:15:40 +0000";
layers = (
{
layerId = "7129FC8E-08C2-4901-BA92-B1D794EB6D8E";
paths = (
{
closed = 1;
nodes = (
"1816 0 LINE",
"1816 305 LINE",
"1528 305 LINE",
"1528 0 LINE"
);
},
{
closed = 1;
nodes = (
"1166 0 LINE",
"1166 305 LINE",
"880 305 LINE",
"880 0 LINE"
);
},
{
closed = 1;
nodes = (
"513 0 LINE",
"513 305 LINE",
"225 305 LINE",
"225 0 LINE"
);
}
);
width = 2048;
}
);
note = ellipsis;
unicode = 2026;
},
{
glyphname = OE;
lastChange = "2019-11-19 19:15:40 +0000";
layers = (
{
layerId = "7129FC8E-08C2-4901-BA92-B1D794EB6D8E";
paths = (
{
closed = 1;
nodes = (
"1968 0 LINE",
"1968 227 LINE",
"1260 227 LINE",
"1260 606 LINE",
"1866 606 LINE",
"1866 827 LINE",
"1260 827 LINE",
"1260 1182 LINE",
"1927 1182 LINE",
"1927 1409 LINE",
"998 1409 LINE",
"866 1420 OFFCURVE",
"795 1420 QCURVE SMOOTH",
"459 1420 OFFCURVE",
"84 1049 OFFCURVE",
"84 711 QCURVE SMOOTH",
"84 373 OFFCURVE",
"459 -10 OFFCURVE",
"793 -10 QCURVE SMOOTH",
"847 -10 OFFCURVE",
"954 -2 OFFCURVE",
"992 0 QCURVE"
);
},
{
closed = 1;
nodes = (
"963 242 LINE",
"909 222 OFFCURVE",
"793 222 QCURVE SMOOTH",
"600 222 OFFCURVE",
"381 482 OFFCURVE",
"381 711 QCURVE SMOOTH",
"381 939 OFFCURVE",
"595 1188 OFFCURVE",
"795 1188 QCURVE SMOOTH",
"892 1188 OFFCURVE",
"963 1169 QCURVE"
);
}
);
width = 2048;
}
);
note = OE;
unicode = 0152;
},
{
glyphname = oe;
lastChange = "2019-11-19 19:15:40 +0000";
layers = (
{
layerId = "7129FC8E-08C2-4901-BA92-B1D794EB6D8E";
paths = (
{
closed = 1;
nodes = (
"1736 -20 OFFCURVE",
"1851 274 QCURVE",
"1586 297 LINE",
"1547 168 OFFCURVE",
"1398 168 QCURVE SMOOTH",
"1291 168 OFFCURVE",
"1173 330 OFFCURVE",
"1173 476 QCURVE",
"1867 476 LINE",
"1867 495 LINE SMOOTH",
"1867 793 OFFCURVE",
"1621 1102 OFFCURVE",
"1388 1102 QCURVE SMOOTH",
"1155 1102 OFFCURVE",
"1021 949 QCURVE",
"883 1102 OFFCURVE",
"627 1102 QCURVE SMOOTH",
"368 1102 OFFCURVE",
"80 803 OFFCURVE",
"80 542 QCURVE SMOOTH",
"80 280 OFFCURVE",
"368 -20 OFFCURVE",
"621 -20 QCURVE SMOOTH",
"871 -20 OFFCURVE",
"1015 139 QCURVE",
"1146 -20 OFFCURVE",
"1384 -20 QCURVE SMOOTH"
);
},
{
closed = 1;
nodes = (
"877 172 OFFCURVE",
"618 172 QCURVE SMOOTH",
"500 172 OFFCURVE",
"375 361 OFFCURVE",
"375 542 QCURVE SMOOTH",
"375 909 OFFCURVE",
"631 909 QCURVE SMOOTH",
"751 909 OFFCURVE",
"877 735 OFFCURVE",
"877 542 QCURVE SMOOTH"
);
},
{
closed = 1;
nodes = (
"1477 925 OFFCURVE",
"1587 794 OFFCURVE",
"1595 663 QCURVE",
"1175 663 LINE",
"1178 787 OFFCURVE",
"1285 925 OFFCURVE",
"1384 925 QCURVE SMOOTH"
);
}
);
width = 1933;
}
);
note = oe;
unicode = 0153;
},
{
glyphname = endash;
lastChange = "2019-11-19 19:15:40 +0000";
layers = (
{
layerId = "7129FC8E-08C2-4901-BA92-B1D794EB6D8E";
paths = (
{
closed = 1;
nodes = (
"1076 448 LINE",
"1076 651 LINE",
"62 651 LINE",
"62 448 LINE"
);
}
);
width = 1139;
}
);
note = endash;
unicode = 2013;
},
{
glyphname = emdash;
lastChange = "2019-11-19 19:15:40 +0000";
layers = (
{
layerId = "7129FC8E-08C2-4901-BA92-B1D794EB6D8E";
paths = (
{
closed = 1;
nodes = (
"2048 448 LINE",
"2048 651 LINE",
"0 651 LINE",
"0 448 LINE"
);
}
);
width = 2048;
}
);
note = emdash;
unicode = 2014;
},
{
glyphname = quotedblleft;
lastChange = "2019-11-19 19:15:40 +0000";
layers = (
{
layerId = "7129FC8E-08C2-4901-BA92-B1D794EB6D8E";
paths = (
{
closed = 1;
nodes = (
"868 831 LINE",
"868 1092 LINE",
"741 1092 LINE",
"741 1164 OFFCURVE",
"810 1331 OFFCURVE",
"872 1409 QCURVE",
"690 1409 LINE",
"633 1332 OFFCURVE",
"579 1150 OFFCURVE",
"579 1026 QCURVE SMOOTH",
"579 831 LINE"
);
},
{
closed = 1;
nodes = (
"438 831 LINE",
"438 1092 LINE",
"311 1092 LINE",
"311 1164 OFFCURVE",
"380 1331 OFFCURVE",
"442 1409 QCURVE",
"259 1409 LINE",
"203 1332 OFFCURVE",
"151 1147 OFFCURVE",
"151 1026 QCURVE SMOOTH",
"151 831 LINE"
);
}
);
width = 1024;
}
);
note = quotedblleft;
unicode = 201C;
},
{
glyphname = quotedblright;
lastChange = "2019-11-19 19:15:40 +0000";
layers = (
{
layerId = "7129FC8E-08C2-4901-BA92-B1D794EB6D8E";
paths = (
{
closed = 1;
nodes = (
"872 1409 LINE",
"585 1409 LINE",
"585 1149 LINE",
"712 1149 LINE",
"712 999 OFFCURVE",
"579 831 QCURVE",
"763 831 LINE",
"821 911 OFFCURVE",
"872 1096 OFFCURVE",
"872 1217 QCURVE SMOOTH"
);
},
{
closed = 1;
nodes = (
"442 1409 LINE",
"155 1409 LINE",
"155 1149 LINE",
"282 1149 LINE",
"282 999 OFFCURVE",
"151 831 QCURVE",
"333 831 LINE",
"392 913 OFFCURVE",
"442 1092 OFFCURVE",
"442 1217 QCURVE SMOOTH"
);
}
);
width = 1024;
}
);
note = quotedblright;
unicode = 201D;
},
{
glyphname = quoteleft;
lastChange = "2019-11-19 19:15:40 +0000";
layers = (
{
layerId = "7129FC8E-08C2-4901-BA92-B1D794EB6D8E";
paths = (
{
closed = 1;
nodes = (
"426 831 LINE",
"426 1092 LINE",
"299 1092 LINE",
"299 1164 OFFCURVE",
"368 1331 OFFCURVE",
"430 1409 QCURVE",
"247 1409 LINE",
"191 1332 OFFCURVE",
"139 1147 OFFCURVE",
"139 1026 QCURVE SMOOTH",
"139 831 LINE"
);
}
);
width = 569;
}
);
note = quoteleft;
unicode = 2018;
},
{
glyphname = quoteright;
lastChange = "2019-11-19 19:15:40 +0000";
layers = (
{
layerId = "7129FC8E-08C2-4901-BA92-B1D794EB6D8E";
paths = (
{
closed = 1;
nodes = (
"430 1409 LINE",
"143 1409 LINE",
"143 1149 LINE",
"270 1149 LINE",
"270 999 OFFCURVE",
"139 831 QCURVE",
"321 831 LINE",
"381 915 OFFCURVE",
"430 1093 OFFCURVE",
"430 1214 QCURVE SMOOTH"
);
}
);
width = 569;
}
);
note = quoteright;
unicode = 2019;
},
{
glyphname = divide;
lastChange = "2019-11-19 19:15:40 +0000";
layers = (
{
layerId = "7129FC8E-08C2-4901-BA92-B1D794EB6D8E";
paths = (
{
closed = 1;
nodes = (
"680 961 LINE",
"680 1194 LINE",
"442 1194 LINE",
"442 961 LINE"
);
},
{
closed = 1;
nodes = (
"1076 569 LINE",
"1076 793 LINE",
"49 793 LINE",
"49 569 LINE"
);
},
{
closed = 1;
nodes = (
"680 170 LINE",
"680 403 LINE",
"442 403 LINE",
"442 170 LINE"
);
}
);
width = 1124;
}
);
note = divide;
unicode = 00F7;
},
{
glyphname = lozenge;
lastChange = "2019-11-19 19:15:40 +0000";
layers = (
{
layerId = "7129FC8E-08C2-4901-BA92-B1D794EB6D8E";
paths = (
{
closed = 1;
nodes = (
"1012 723 LINE",
"558 1446 LINE",
"454 1446 LINE",
"3 721 LINE",
"454 0 LINE",
"558 0 LINE"
);
},
{
closed = 1;
nodes = (
"796 723 LINE",
"507 229 LINE",
"218 723 LINE",
"507 1204 LINE"
);
}
);
width = 1012;
}
);
note = lozenge;
unicode = 25CA;
},
{
glyphname = fraction;
lastChange = "2019-11-19 19:15:40 +0000";
layers = (
{
layerId = "7129FC8E-08C2-4901-BA92-B1D794EB6D8E";
paths = (
{
closed = 1;
nodes = (
"719 1409 LINE",
"518 1409 LINE",
"-377 0 LINE",
"-176 0 LINE"
);
}
);
width = 342;
}
);
note = fraction;
unicode = "2044,2215";
},
{
glyphname = Euro;
lastChange = "2019-11-19 19:15:40 +0000";
layers = (
{
layerId = "7129FC8E-08C2-4901-BA92-B1D794EB6D8E";
paths = (
{
closed = 1;
nodes = (
"456 199 OFFCURVE",
"428 510 QCURVE",
"732 510 LINE",
"762 659 LINE",
"422 659 LINE",
"419 710 LINE",
"421 766 LINE",
"724 766 LINE",
"753 915 LINE",
"426 915 LINE",
"441 1069 OFFCURVE",
"546 1211 OFFCURVE",
"645 1211 QCURVE SMOOTH",
"719 1211 OFFCURVE",
"803 1129 OFFCURVE",
"813 1055 QCURVE",
"1093 1071 LINE",
"1064 1242 OFFCURVE",
"836 1430 OFFCURVE",
"654 1430 QCURVE SMOOTH",
"200 1430 OFFCURVE",
"137 915 QCURVE",
"50 915 LINE",
"10 766 LINE",
"127 766 LINE",
"125 710 LINE",
"127 659 LINE",
"50 659 LINE",
"10 510 LINE",
"139 510 LINE",
"168 246 OFFCURVE",
"428 -20 OFFCURVE",
"654 -20 QCURVE SMOOTH",
"843 -20 OFFCURVE",
"1072 169 OFFCURVE",
"1103 357 QCURVE",
"826 373 LINE",
"816 291 OFFCURVE",
"730 199 OFFCURVE",
"658 199 QCURVE SMOOTH"
);
}
);
width = 1139;
}
);
note = Euro;
unicode = 20AC;
},
{
glyphname = guilsinglleft;
lastChange = "2019-11-19 19:15:40 +0000";
layers = (
{
layerId = "7129FC8E-08C2-4901-BA92-B1D794EB6D8E";
paths = (
{
closed = 1;
nodes = (
"588 141 LINE",
"588 176 LINE",
"332 537 LINE",
"586 903 LINE",
"586 940 LINE",
"350 940 LINE",
"92 573 LINE",
"92 502 LINE",
"350 141 LINE"
);
}
);
width = 682;
}
);
note = guilsinglleft;
unicode = 2039;
},
{
glyphname = guilsinglright;
lastChange = "2019-11-19 19:15:40 +0000";
layers = (
{
layerId = "7129FC8E-08C2-4901-BA92-B1D794EB6D8E";
paths = (
{
closed = 1;
nodes = (
"333 141 LINE",
"589 502 LINE",
"589 573 LINE",
"333 940 LINE",
"95 940 LINE",
"95 903 LINE",
"349 537 LINE",
"93 176 LINE",
"93 141 LINE"
);
}
);
width = 682;
}
);
note = guilsinglright;
unicode = 203A;
},
{
glyphname = fi;
lastChange = "2019-11-19 19:15:40 +0000";
layers = (
{
layerId = "7129FC8E-08C2-4901-BA92-B1D794EB6D8E";
paths = (
{
closed = 1;
nodes = (
"1106 1277 LINE",
"1106 1484 LINE",
"825 1484 LINE",
"825 1277 LINE"
);
},
{
closed = 1;
nodes = (
"1106 0 LINE",
"1106 1082 LINE",
"825 1082 LINE",
"825 0 LINE"
);
},
{
closed = 1;
nodes = (
"686 892 LINE",
"686 1082 LINE",
"473 1082 LINE",
"473 1167 LINE SMOOTH",
"473 1239 OFFCURVE",
"532 1296 OFFCURVE",
"604 1296 QCURVE SMOOTH",
"645 1296 OFFCURVE",
"686 1287 QCURVE",
"686 1468 LINE",
"587 1484 OFFCURVE",
"508 1484 QCURVE SMOOTH",
"349 1484 OFFCURVE",
"193 1342 OFFCURVE",
"193 1195 QCURVE SMOOTH",
"193 1082 LINE",
"35 1082 LINE",
"35 892 LINE",
"193 892 LINE",
"193 0 LINE",
"473 0 LINE",
"473 892 LINE"
);
}
);
width = 1251;
}
);
note = fi;
unicode = "F001,FB01";
},
{
glyphname = fl;
lastChange = "2019-11-19 19:15:40 +0000";
layers = (
{
layerId = "7129FC8E-08C2-4901-BA92-B1D794EB6D8E";
paths = (
{
closed = 1;
nodes = (
"1106 0 LINE",
"1106 1484 LINE",
"826 1484 LINE",
"826 0 LINE"
);
},
{
closed = 1;
nodes = (
"686 892 LINE",
"686 1082 LINE",
"473 1082 LINE",
"473 1167 LINE SMOOTH",
"473 1239 OFFCURVE",
"532 1296 OFFCURVE",
"604 1296 QCURVE SMOOTH",
"645 1296 OFFCURVE",
"686 1287 QCURVE",
"686 1468 LINE",
"587 1484 OFFCURVE",
"508 1484 QCURVE SMOOTH",
"349 1484 OFFCURVE",
"193 1342 OFFCURVE",
"193 1195 QCURVE SMOOTH",
"193 1082 LINE",
"35 1082 LINE",
"35 892 LINE",
"193 892 LINE",
"193 0 LINE",
"473 0 LINE",
"473 892 LINE"
);
}
);
width = 1251;
}
);
note = fl;
unicode = "F002,FB02";
},
{
glyphname = daggerdbl;
lastChange = "2019-11-19 19:15:40 +0000";
layers = (
{
layerId = "7129FC8E-08C2-4901-BA92-B1D794EB6D8E";
paths = (
{
closed = 1;
nodes = (
"504 670 LINE",
"478 363 LINE",
"136 390 LINE",
"136 186 LINE",
"478 215 LINE",
"462 -141 LINE",
"677 -141 LINE",
"661 215 LINE",
"1001 186 LINE",
"1001 390 LINE",
"661 363 LINE",
"635 670 LINE",
"661 980 LINE",
"1002 953 LINE",
"1002 1157 LINE",
"661 1128 LINE",
"677 1484 LINE",
"462 1484 LINE",
"478 1128 LINE",
"137 1157 LINE",
"137 953 LINE",
"478 980 LINE"
);
}
);
width = 1139;
}
);
note = daggerdbl;
unicode = 2021;
},
{
glyphname = periodcentered;
lastChange = "2019-11-19 19:15:40 +0000";
layers = (
{
layerId = "7129FC8E-08C2-4901-BA92-B1D794EB6D8E";
paths = (
{
closed = 1;
nodes = (
"429 531 LINE",
"429 836 LINE",
"141 836 LINE",
"141 531 LINE"
);
}
);
width = 569;
}
);
note = periodcentered;
unicode = 2219;
},
{
glyphname = quotesinglbase;
lastChange = "2019-11-19 19:15:40 +0000";
layers = (
{
layerId = "7129FC8E-08C2-4901-BA92-B1D794EB6D8E";
paths = (
{
closed = 1;
nodes = (
"431 260 LINE",
"143 260 LINE",
"143 0 LINE",
"272 0 LINE",
"272 -73 OFFCURVE",
"201 -241 OFFCURVE",
"138 -317 QCURVE",
"323 -317 LINE",
"380 -238 OFFCURVE",
"431 -54 OFFCURVE",
"431 66 QCURVE SMOOTH"
);
}
);
width = 569;
}
);
note = quotesinglbase;
unicode = 201A;
},
{
glyphname = quotedblbase;
lastChange = "2019-11-19 19:15:40 +0000";
layers = (
{
layerId = "7129FC8E-08C2-4901-BA92-B1D794EB6D8E";
paths = (
{
closed = 1;
nodes = (
"872 260 LINE",
"585 260 LINE",
"585 0 LINE",
"712 0 LINE",
"712 -76 OFFCURVE",
"638 -246 OFFCURVE",
"579 -317 QCURVE",
"763 -317 LINE",
"820 -239 OFFCURVE",
"872 -54 OFFCURVE",
"872 66 QCURVE SMOOTH"
);
},
{
closed = 1;
nodes = (
"442 260 LINE",
"155 260 LINE",
"155 0 LINE",
"282 0 LINE",
"282 -72 OFFCURVE",
"213 -239 OFFCURVE",
"151 -317 QCURVE",
"333 -317 LINE",
"392 -237 OFFCURVE",
"442 -58 OFFCURVE",
"442 66 QCURVE SMOOTH"
);
}
);
width = 1024;
}
);
note = quotedblbase;
unicode = 201E;
},
{
glyphname = perthousand;
lastChange = "2019-11-19 19:15:40 +0000";
layers = (
{
layerId = "7129FC8E-08C2-4901-BA92-B1D794EB6D8E";
paths = (
{
closed = 1;
nodes = (
"1196 1409 LINE",
"997 1409 LINE",
"185 0 LINE",
"382 0 LINE"
);
},
{
closed = 1;
nodes = (
"182 1419 OFFCURVE",
"41 1243 OFFCURVE",
"41 1061 QCURVE SMOOTH",
"41 885 OFFCURVE",
"186 702 OFFCURVE",
"327 702 QCURVE SMOOTH",
"469 702 OFFCURVE",
"616 889 OFFCURVE",
"616 1061 QCURVE SMOOTH",
"616 1419 OFFCURVE",
"331 1419 QCURVE SMOOTH"
);
},
{
closed = 1;
nodes = (
"440 934 OFFCURVE",
"388 827 OFFCURVE",
"329 827 QCURVE SMOOTH",
"267 827 OFFCURVE",
"216 937 OFFCURVE",
"216 1061 QCURVE SMOOTH",
"216 1191 OFFCURVE",
"268 1295 OFFCURVE",
"331 1295 QCURVE SMOOTH",
"391 1295 OFFCURVE",
"440 1185 OFFCURVE",
"440 1061 QCURVE SMOOTH"
);
},
{
closed = 1;
nodes = (
"908 714 OFFCURVE",
"767 538 OFFCURVE",
"767 356 QCURVE SMOOTH",
"767 180 OFFCURVE",
"912 -3 OFFCURVE",
"1053 -3 QCURVE SMOOTH",
"1195 -3 OFFCURVE",
"1342 184 OFFCURVE",
"1342 356 QCURVE SMOOTH",
"1342 714 OFFCURVE",
"1057 714 QCURVE SMOOTH"
);
},
{
closed = 1;
nodes = (
"1166 229 OFFCURVE",
"1114 122 OFFCURVE",
"1055 122 QCURVE SMOOTH",
"992 122 OFFCURVE",
"941 232 OFFCURVE",
"941 356 QCURVE SMOOTH",
"941 482 OFFCURVE",
"992 590 OFFCURVE",
"1057 590 QCURVE SMOOTH",
"1117 590 OFFCURVE",
"1166 480 OFFCURVE",
"1166 356 QCURVE SMOOTH"
);
},
{
closed = 1;
nodes = (
"1573 714 OFFCURVE",
"1432 538 OFFCURVE",
"1432 356 QCURVE SMOOTH",
"1432 180 OFFCURVE",
"1577 -3 OFFCURVE",
"1718 -3 QCURVE SMOOTH",
"1860 -3 OFFCURVE",
"2007 181 OFFCURVE",
"2007 356 QCURVE SMOOTH",
"2007 714 OFFCURVE",
"1722 714 QCURVE SMOOTH"
);
},
{
closed = 1;
nodes = (
"1831 229 OFFCURVE",
"1779 122 OFFCURVE",
"1720 122 QCURVE SMOOTH",
"1658 122 OFFCURVE",
"1607 232 OFFCURVE",
"1607 356 QCURVE SMOOTH",
"1607 486 OFFCURVE",
"1659 590 OFFCURVE",
"1722 590 QCURVE SMOOTH",
"1782 590 OFFCURVE",
"1831 480 OFFCURVE",
"1831 356 QCURVE SMOOTH"
);
}
);
width = 2048;
}
);
note = perthousand;
unicode = 2030;
},
{
glyphname = dotlessi;
lastChange = "2019-11-19 19:15:40 +0000";
layers = (
{
layerId = "7129FC8E-08C2-4901-BA92-B1D794EB6D8E";
paths = (
{
closed = 1;
nodes = (
"426 0 LINE",
"426 1082 LINE",
"145 1082 LINE",
"145 0 LINE"
);
}
);
width = 569;
}
);
note = dotlessi;
unicode = 0131;
},
{
glyphname = circumflex;
lastChange = "2019-11-19 19:15:40 +0000";
layers = (
{
layerId = "7129FC8E-08C2-4901-BA92-B1D794EB6D8E";
paths = (
{
closed = 1;
nodes = (
"487 1529 LINE",
"258 1529 LINE",
"0 1211 LINE",
"0 1183 LINE",
"160 1183 LINE",
"371 1375 LINE",
"375 1375 LINE",
"578 1183 LINE",
"737 1183 LINE",
"737 1211 LINE"
);
}
);
width = 682;
}
);
note = circumflex;
unicode = 02C6;
},
{
glyphname = tilde;
lastChange = "2019-11-19 19:15:40 +0000";
layers = (
{
layerId = "7129FC8E-08C2-4901-BA92-B1D794EB6D8E";
paths = (
{
closed = 1;
nodes = (
"646 1183 OFFCURVE",
"759 1319 OFFCURVE",
"766 1476 QCURVE",
"631 1476 LINE",
"617 1402 OFFCURVE",
"572 1353 OFFCURVE",
"532 1353 QCURVE SMOOTH",
"503 1353 OFFCURVE",
"430 1391 OFFCURVE",
"346 1438 OFFCURVE",
"256 1476 OFFCURVE",
"211 1476 QCURVE SMOOTH",
"135 1476 OFFCURVE",
"43 1409 OFFCURVE",
"-6 1296 OFFCURVE",
"-14 1183 QCURVE",
"123 1183 LINE",
"137 1260 OFFCURVE",
"180 1306 OFFCURVE",
"221 1306 QCURVE SMOOTH",
"251 1306 OFFCURVE",
"326 1268 OFFCURVE",
"410 1221 OFFCURVE",
"499 1183 OFFCURVE",
"543 1183 QCURVE SMOOTH"
);
}
);
width = 682;
}
);
note = tilde;
unicode = 02DC;
},
{
glyphname = macron;
lastChange = "2019-11-19 19:15:40 +0000";
layers = (
{
layerId = "7129FC8E-08C2-4901-BA92-B1D794EB6D8E";
paths = (
{
closed = 1;
nodes = (
"36 1203 LINE",
"648 1203 LINE",
"648 1371 LINE",
"36 1371 LINE"
);
}
);
width = 682;
}
);
note = macron;
unicode = 02C9;
},
{
glyphname = breve;
lastChange = "2019-11-19 19:15:40 +0000";
layers = (
{
layerId = "7129FC8E-08C2-4901-BA92-B1D794EB6D8E";
paths = (
{
closed = 1;
nodes = (
"448 1183 OFFCURVE",
"633 1358 OFFCURVE",
"651 1506 QCURVE",
"487 1506 LINE",
"473 1427 OFFCURVE",
"368 1340 OFFCURVE",
"297 1340 QCURVE SMOOTH",
"226 1340 OFFCURVE",
"122 1429 OFFCURVE",
"106 1506 QCURVE",
"-57 1506 LINE",
"-46 1365 OFFCURVE",
"144 1183 OFFCURVE",
"295 1183 QCURVE SMOOTH"
);
}
);
width = 682;
}
);
note = breve;
unicode = 02D8;
},
{
glyphname = dotaccent;
lastChange = "2019-11-19 19:15:40 +0000";
layers = (
{
layerId = "7129FC8E-08C2-4901-BA92-B1D794EB6D8E";
paths = (
{
closed = 1;
nodes = (
"481 1277 LINE",
"481 1484 LINE",
"200 1484 LINE",
"200 1277 LINE"
);
}
);
width = 682;
}
);
note = dotaccent;
unicode = 02D9;
},
{
glyphname = ring;
lastChange = "2019-11-19 19:15:40 +0000";
layers = (
{
layerId = "7129FC8E-08C2-4901-BA92-B1D794EB6D8E";
paths = (
{
closed = 1;
nodes = (
"547 1495 OFFCURVE",
"398 1644 OFFCURVE",
"293 1644 QCURVE SMOOTH",
"188 1644 OFFCURVE",
"39 1495 OFFCURVE",
"39 1390 QCURVE SMOOTH",
"39 1285 OFFCURVE",
"186 1136 OFFCURVE",
"293 1136 QCURVE SMOOTH",
"400 1136 OFFCURVE",
"547 1285 OFFCURVE",
"547 1390 QCURVE SMOOTH"
);
},
{
closed = 1;
nodes = (
"420 1336 OFFCURVE",
"346 1262 OFFCURVE",
"293 1262 QCURVE SMOOTH",
"242 1262 OFFCURVE",
"168 1334 OFFCURVE",
"168 1390 QCURVE SMOOTH",
"168 1443 OFFCURVE",
"242 1515 OFFCURVE",
"293 1515 QCURVE SMOOTH",
"347 1515 OFFCURVE",
"420 1441 OFFCURVE",
"420 1390 QCURVE SMOOTH"
);
}
);
width = 682;
}
);
note = ring;
unicode = 02DA;
},
{
glyphname = cedilla;
lastChange = "2019-11-19 19:15:40 +0000";
layers = (
{
layerId = "7129FC8E-08C2-4901-BA92-B1D794EB6D8E";
paths = (
{
closed = 1;
nodes = (
"500 -169 OFFCURVE",
"409 -87 OFFCURVE",
"315 -82 QCURVE",
"348 0 LINE",
"205 0 LINE",
"143 -172 LINE",
"157 -170 OFFCURVE",
"195 -170 QCURVE SMOOTH",
"261 -170 OFFCURVE",
"317 -204 OFFCURVE",
"317 -239 QCURVE SMOOTH",
"317 -308 OFFCURVE",
"180 -308 QCURVE SMOOTH",
"131 -308 OFFCURVE",
"96 -301 QCURVE",
"96 -419 LINE",
"152 -425 OFFCURVE",
"197 -425 QCURVE SMOOTH",
"344 -425 OFFCURVE",
"500 -329 OFFCURVE",
"500 -235 QCURVE SMOOTH"
);
}
);
width = 682;
}
);
note = cedilla;
unicode = 00B8;
},
{
glyphname = hungarumlaut;
lastChange = "2019-11-19 19:15:40 +0000";
layers = (
{
layerId = "7129FC8E-08C2-4901-BA92-B1D794EB6D8E";
paths = (
{
closed = 1;
nodes = (
"368 1441 LINE",
"368 1484 LINE",
"133 1484 LINE",
"-92 1218 LINE",
"-92 1184 LINE",
"50 1184 LINE"
);
},
{
closed = 1;
nodes = (
"774 1441 LINE",
"774 1484 LINE",
"539 1484 LINE",
"314 1218 LINE",
"314 1184 LINE",
"456 1184 LINE"
);
}
);
width = 682;
}
);
note = hungarumlaut;
unicode = 02DD;
},
{
glyphname = ogonek;
lastChange = "2019-11-19 19:15:40 +0000";
layers = (
{
layerId = "7129FC8E-08C2-4901-BA92-B1D794EB6D8E";
paths = (
{
closed = 1;
nodes = (
"401 -425 OFFCURVE",
"464 -392 QCURVE",
"464 -255 LINE",
"406 -282 OFFCURVE",
"352 -282 QCURVE SMOOTH",
"307 -282 OFFCURVE",
"258 -231 OFFCURVE",
"258 -189 QCURVE SMOOTH",
"258 -136 OFFCURVE",
"324 -21 OFFCURVE",
"387 21 QCURVE",
"234 21 LINE",
"163 -16 OFFCURVE",
"76 -150 OFFCURVE",
"76 -225 QCURVE SMOOTH",
"76 -317 OFFCURVE",
"202 -425 OFFCURVE",
"313 -425 QCURVE SMOOTH"
);
}
);
width = 682;
}
);
note = ogonek;
unicode = 02DB;
},
{
glyphname = caron;
lastChange = "2019-11-19 19:15:40 +0000";
layers = (
{
layerId = "7129FC8E-08C2-4901-BA92-B1D794EB6D8E";
paths = (
{
closed = 1;
nodes = (
"737 1500 LINE",
"737 1529 LINE",
"578 1529 LINE",
"375 1336 LINE",
"371 1336 LINE",
"160 1529 LINE",
"0 1529 LINE",
"0 1500 LINE",
"258 1183 LINE",
"487 1183 LINE"
);
}
);
width = 682;
}
);
note = caron;
unicode = 02C7;
},
{
glyphname = Lslash;
lastChange = "2019-11-19 19:15:40 +0000";
layers = (
{
layerId = "7129FC8E-08C2-4901-BA92-B1D794EB6D8E";
paths = (
{
closed = 1;
nodes = (
"1188 0 LINE",
"1188 231 LINE",
"432 231 LINE",
"432 627 LINE",
"739 774 LINE",
"739 997 LINE",
"432 850 LINE",
"432 1409 LINE",
"137 1409 LINE",
"137 709 LINE",
"0 643 LINE",
"0 418 LINE",
"137 483 LINE",
"137 0 LINE"
);
}
);
width = 1251;
}
);
note = Lslash;
unicode = 0141;
},
{
glyphname = lslash;
lastChange = "2019-11-19 19:15:40 +0000";
layers = (
{
layerId = "7129FC8E-08C2-4901-BA92-B1D794EB6D8E";
paths = (
{
closed = 1;
nodes = (
"553 793 LINE",
"553 1006 LINE",
"424 932 LINE",
"424 1484 LINE",
"143 1484 LINE",
"143 776 LINE",
"18 707 LINE",
"18 492 LINE",
"143 561 LINE",
"143 0 LINE",
"424 0 LINE",
"424 717 LINE"
);
}
);
width = 569;
}
);
note = lslash;
unicode = 0142;
},
{
glyphname = brokenbar;
lastChange = "2019-11-19 19:15:40 +0000";
layers = (
{
layerId = "7129FC8E-08C2-4901-BA92-B1D794EB6D8E";
paths = (
{
closed = 1;
nodes = (
"418 676 LINE",
"418 1454 LINE",
"156 1454 LINE",
"156 676 LINE"
);
},
{
closed = 1;
nodes = (
"418 -455 LINE",
"418 324 LINE",
"156 324 LINE",
"156 -455 LINE"
);
}
);
width = 573;
}
);
note = brokenbar;
unicode = 00A6;
},
{
glyphname = Eth;
lastChange = "2019-11-19 19:15:40 +0000";
layers = (
{
layerId = "7129FC8E-08C2-4901-BA92-B1D794EB6D8E";
paths = (
{
closed = 1;
nodes = (
"1393 1050 OFFCURVE",
"1003 1409 OFFCURVE",
"647 1409 QCURVE SMOOTH",
"137 1409 LINE",
"137 813 LINE",
"8 813 LINE",
"8 594 LINE",
"137 594 LINE",
"137 0 LINE",
"707 0 LINE SMOOTH",
"909 0 OFFCURVE",
"1222 172 OFFCURVE",
"1393 497 OFFCURVE",
"1393 715 QCURVE SMOOTH"
);
},
{
closed = 1;
nodes = (
"1096 490 OFFCURVE",
"873 231 OFFCURVE",
"682 231 QCURVE SMOOTH",
"432 231 LINE",
"432 594 LINE",
"788 594 LINE",
"788 813 LINE",
"432 813 LINE",
"432 1178 LINE",
"641 1178 LINE SMOOTH",
"862 1178 OFFCURVE",
"1096 940 OFFCURVE",
"1096 715 QCURVE SMOOTH"
);
}
);
width = 1479;
}
);
note = Eth;
unicode = 00D0;
},
{
glyphname = eth;
lastChange = "2019-11-19 19:15:40 +0000";
layers = (
{
layerId = "7129FC8E-08C2-4901-BA92-B1D794EB6D8E";
paths = (
{
closed = 1;
nodes = (
"977 1315 LINE",
"977 1503 LINE",
"709 1390 LINE",
"645 1436 OFFCURVE",
"549 1484 QCURVE",
"256 1484 LINE",
"426 1379 OFFCURVE",
"514 1308 QCURVE",
"348 1238 LINE",
"348 1054 LINE",
"640 1176 LINE",
"726 1077 OFFCURVE",
"790 941 QCURVE",
"732 973 OFFCURVE",
"627 973 QCURVE SMOOTH",
"369 973 OFFCURVE",
"80 711 OFFCURVE",
"80 479 QCURVE SMOOTH",
"80 248 OFFCURVE",
"372 -18 OFFCURVE",
"623 -18 QCURVE SMOOTH",
"882 -18 OFFCURVE",
"1171 276 OFFCURVE",
"1171 537 QCURVE SMOOTH",
"1171 541 LINE SMOOTH",
"1171 946 OFFCURVE",
"856 1266 QCURVE"
);
},
{
closed = 1;
nodes = (
"877 316 OFFCURVE",
"743 172 OFFCURVE",
"618 172 QCURVE SMOOTH",
"499 172 OFFCURVE",
"375 329 OFFCURVE",
"375 477 QCURVE SMOOTH",
"375 780 OFFCURVE",
"631 780 QCURVE SMOOTH",
"751 780 OFFCURVE",
"877 637 OFFCURVE",
"877 477 QCURVE SMOOTH"
);
}
);
width = 1251;
}
);
note = eth;
unicode = 00F0;
},
{
glyphname = Thorn;
lastChange = "2019-11-19 19:15:40 +0000";
layers = (
{
layerId = "7129FC8E-08C2-4901-BA92-B1D794EB6D8E";
paths = (
{
closed = 1;
nodes = (
"1296 949 OFFCURVE",
"1024 1176 OFFCURVE",
"770 1176 QCURVE SMOOTH",
"432 1176 LINE",
"432 1409 LINE",
"137 1409 LINE",
"137 0 LINE",
"432 0 LINE",
"432 283 LINE",
"782 283 LINE SMOOTH",
"942 283 OFFCURVE",
"1175 397 OFFCURVE",
"1296 603 OFFCURVE",
"1296 737 QCURVE SMOOTH"
);
},
{
closed = 1;
nodes = (
"999 619 OFFCURVE",
"866 492 OFFCURVE",
"745 492 QCURVE SMOOTH",
"432 492 LINE",
"432 967 LINE",
"737 967 LINE SMOOTH",
"868 967 OFFCURVE",
"999 843 OFFCURVE",
"999 733 QCURVE SMOOTH"
);
}
);
width = 1366;
}
);
note = Thorn;
unicode = 00DE;
},
{
glyphname = thorn;
lastChange = "2019-11-19 19:15:40 +0000";
layers = (
{
layerId = "7129FC8E-08C2-4901-BA92-B1D794EB6D8E";
paths = (
{
closed = 1;
nodes = (
"143 -425 LINE",
"424 -425 LINE",
"424 -10 LINE SMOOTH",
"424 142 OFFCURVE",
"418 172 QCURVE",
"424 172 LINE",
"469 79 OFFCURVE",
"638 -20 OFFCURVE",
"752 -20 QCURVE SMOOTH",
"950 -20 OFFCURVE",
"1167 263 OFFCURVE",
"1167 520 QCURVE SMOOTH",
"1167 772 OFFCURVE",
"961 1053 OFFCURVE",
"770 1053 QCURVE SMOOTH",
"519 1053 OFFCURVE",
"424 854 QCURVE",
"420 854 LINE",
"424 1022 LINE",
"424 1484 LINE",
"143 1484 LINE"
);
},
{
closed = 1;
nodes = (
"874 172 OFFCURVE",
"649 172 QCURVE SMOOTH",
"539 172 OFFCURVE",
"420 349 OFFCURVE",
"420 512 QCURVE SMOOTH",
"420 675 OFFCURVE",
"538 858 OFFCURVE",
"651 858 QCURVE SMOOTH",
"763 858 OFFCURVE",
"874 692 OFFCURVE",
"874 520 QCURVE SMOOTH"
);
}
);
width = 1251;
}
);
note = thorn;
unicode = 00FE;
},
{
glyphname = minus;
lastChange = "2019-11-19 19:15:40 +0000";
layers = (
{
layerId = "7129FC8E-08C2-4901-BA92-B1D794EB6D8E";
paths = (
{
closed = 1;
nodes = (
"1112 569 LINE",
"1112 793 LINE",
"85 793 LINE",
"85 569 LINE"
);
}
);
width = 1196;
}
);
note = minus;
unicode = 2212;
},
{
glyphname = multiply;
lastChange = "2019-11-19 19:15:40 +0000";
layers = (
{
layerId = "7129FC8E-08C2-4901-BA92-B1D794EB6D8E";
paths = (
{
closed = 1;
nodes = (
"244 168 LINE",
"600 526 LINE",
"952 172 LINE",
"1110 332 LINE",
"758 682 LINE",
"1110 1036 LINE",
"952 1194 LINE",
"600 842 LINE",
"248 1192 LINE",
"90 1036 LINE",
"442 684 LINE",
"86 326 LINE"
);
}
);
width = 1196;
}
);
note = multiply;
unicode = 00D7;
},
{
glyphname = onesuperior;
lastChange = "2019-11-19 19:15:40 +0000";
layers = (
{
layerId = "7129FC8E-08C2-4901-BA92-B1D794EB6D8E";
paths = (
{
closed = 1;
nodes = (
"618 694 LINE",
"618 815 LINE",
"448 815 LINE",
"448 1414 LINE",
"273 1414 LINE",
"93 1297 LINE",
"93 1175 LINE",
"266 1283 LINE",
"266 815 LINE",
"82 815 LINE",
"82 694 LINE"
);
}
);
width = 682;
}
);
note = onesuperior;
unicode = 00B9;
},
{
glyphname = twosuperior;
lastChange = "2019-11-19 19:15:40 +0000";
layers = (
{
layerId = "7129FC8E-08C2-4901-BA92-B1D794EB6D8E";
paths = (
{
closed = 1;
nodes = (
"639 694 LINE",
"639 832 LINE",
"277 832 LINE",
"293 865 OFFCURVE",
"370 927 OFFCURVE",
"473 993 QCURVE SMOOTH",
"626 1091 OFFCURVE",
"626 1216 QCURVE SMOOTH",
"626 1315 OFFCURVE",
"478 1426 OFFCURVE",
"347 1426 QCURVE SMOOTH",
"223 1426 OFFCURVE",
"71 1305 OFFCURVE",
"58 1206 QCURVE",
"252 1201 LINE",
"262 1299 OFFCURVE",
"347 1299 QCURVE SMOOTH",
"428 1299 OFFCURVE",
"428 1208 QCURVE SMOOTH",
"428 1169 OFFCURVE",
"364 1096 OFFCURVE",
"277 1040 QCURVE SMOOTH",
"186 981 OFFCURVE",
"80 876 OFFCURVE",
"51 815 QCURVE",
"53 694 LINE"
);
}
);
width = 682;
}
);
note = twosuperior;
unicode = 00B2;
},
{
glyphname = threesuperior;
lastChange = "2019-11-19 19:15:40 +0000";
layers = (
{
layerId = "7129FC8E-08C2-4901-BA92-B1D794EB6D8E";
paths = (
{
closed = 1;
nodes = (
"638 964 OFFCURVE",
"550 1056 OFFCURVE",
"467 1065 QCURVE",
"467 1067 LINE",
"546 1083 OFFCURVE",
"619 1174 OFFCURVE",
"619 1238 QCURVE SMOOTH",
"619 1323 OFFCURVE",
"476 1426 OFFCURVE",
"348 1426 QCURVE SMOOTH",
"223 1426 OFFCURVE",
"70 1316 OFFCURVE",
"59 1222 QCURVE",
"245 1210 LINE",
"255 1299 OFFCURVE",
"343 1299 QCURVE SMOOTH",
"386 1299 OFFCURVE",
"432 1255 OFFCURVE",
"432 1216 QCURVE SMOOTH",
"432 1173 OFFCURVE",
"368 1126 OFFCURVE",
"305 1126 QCURVE SMOOTH",
"254 1126 LINE",
"254 1000 LINE",
"310 1000 LINE SMOOTH",
"449 1000 OFFCURVE",
"449 907 QCURVE SMOOTH",
"449 811 OFFCURVE",
"347 811 QCURVE SMOOTH",
"243 811 OFFCURVE",
"233 904 QCURVE",
"44 892 LINE",
"57 788 OFFCURVE",
"215 684 OFFCURVE",
"350 684 QCURVE SMOOTH",
"488 684 OFFCURVE",
"638 796 OFFCURVE",
"638 895 QCURVE SMOOTH"
);
}
);
width = 682;
}
);
note = threesuperior;
unicode = 00B3;
},
{
glyphname = franc;
lastChange = "2019-11-19 19:15:40 +0000";
layers = (
{
layerId = "7129FC8E-08C2-4901-BA92-B1D794EB6D8E";
paths = (
{
closed = 1;
nodes = (
"1092 1201 LINE",
"1092 1409 LINE",
"137 1409 LINE",
"137 407 LINE",
"7 407 LINE",
"7 258 LINE",
"137 258 LINE",
"137 0 LINE",
"422 0 LINE",
"422 258 LINE",
"736 258 LINE",
"736 407 LINE",
"422 407 LINE",
"422 597 LINE",
"1059 597 LINE",
"1059 805 LINE",
"422 805 LINE",
"422 1201 LINE"
);
}
);
width = 1139;
}
);
note = franc;
unicode = 20A3;
},
{
glyphname = dcroat;
lastChange = "2019-11-19 19:15:40 +0000";
layers = (
{
layerId = "7129FC8E-08C2-4901-BA92-B1D794EB6D8E";
paths = (
{
closed = 1;
nodes = (
"541 1345 LINE",
"541 1175 LINE",
"827 1175 LINE",
"827 1049 LINE",
"829 871 LINE",
"827 871 LINE",
"782 966 OFFCURVE",
"615 1062 OFFCURVE",
"500 1062 QCURVE SMOOTH",
"300 1062 OFFCURVE",
"84 781 OFFCURVE",
"84 521 QCURVE SMOOTH",
"84 263 OFFCURVE",
"291 -20 OFFCURVE",
"479 -20 QCURVE SMOOTH",
"735 -20 OFFCURVE",
"826 176 QCURVE",
"830 176 LINE",
"830 136 OFFCURVE",
"841 15 OFFCURVE",
"845 0 QCURVE",
"1117 0 LINE",
"1109 136 OFFCURVE",
"1109 236 QCURVE SMOOTH",
"1109 1175 LINE",
"1241 1175 LINE",
"1241 1345 LINE",
"1109 1345 LINE",
"1109 1484 LINE",
"827 1484 LINE",
"827 1345 LINE"
);
},
{
closed = 1;
nodes = (
"831 359 OFFCURVE",
"711 172 OFFCURVE",
"598 172 QCURVE SMOOTH",
"377 172 OFFCURVE",
"377 522 QCURVE SMOOTH",
"377 704 OFFCURVE",
"487 874 OFFCURVE",
"600 874 QCURVE SMOOTH",
"715 874 OFFCURVE",
"831 696 OFFCURVE",
"831 529 QCURVE SMOOTH"
);
}
);
width = 1251;
}
);
note = dcroat;
unicode = 0111;
},
{
glyphname = overscore;
lastChange = "2019-11-19 19:15:40 +0000";
layers = (
{
layerId = "7129FC8E-08C2-4901-BA92-B1D794EB6D8E";
paths = (
{
closed = 1;
nodes = (
"1148 1546 LINE",
"-17 1546 LINE",
"-17 1452 LINE",
"1148 1452 LINE"
);
}
);
width = 1131;
}
);
note = overscore;
unicode = 00AF;
},
{
glyphname = middot;
lastChange = "2019-11-19 19:15:40 +0000";
layers = (
{
layerId = "7129FC8E-08C2-4901-BA92-B1D794EB6D8E";
paths = (
{
closed = 1;
nodes = (
"429 531 LINE",
"429 836 LINE",
"141 836 LINE",
"141 531 LINE"
);
}
);
width = 682;
}
);
note = middot;
unicode = 00B7;
},
{
glyphname = Gamma;
lastChange = "2019-11-19 19:15:40 +0000";
layers = (
{
layerId = "7129FC8E-08C2-4901-BA92-B1D794EB6D8E";
paths = (
{
closed = 1;
nodes = (
"137 1409 LINE",
"137 1 LINE",
"432 1 LINE",
"432 1181 LINE",
"1198 1181 LINE",
"1198 1409 LINE"
);
}
);
width = 1231;
}
);
note = Gamma;
unicode = 0393;
},
{
glyphname = Theta;
lastChange = "2019-11-19 19:15:40 +0000";
layers = (
{
layerId = "7129FC8E-08C2-4901-BA92-B1D794EB6D8E";
paths = (
{
closed = 1;
nodes = (
"502 599 LINE",
"1089 599 LINE",
"1089 827 LINE",
"502 827 LINE"
);
},
{
closed = 1;
nodes = (
"1507 1046 OFFCURVE",
"1130 1430 OFFCURVE",
"795 1430 QCURVE SMOOTH",
"460 1430 OFFCURVE",
"84 1050 OFFCURVE",
"84 711 QCURVE SMOOTH",
"84 371 OFFCURVE",
"461 -20 OFFCURVE",
"793 -20 QCURVE SMOOTH",
"1009 -20 OFFCURVE",
"1333 157 OFFCURVE",
"1507 491 OFFCURVE",
"1507 711 QCURVE SMOOTH"
);
},
{
closed = 1;
nodes = (
"1206 472 OFFCURVE",
"991 212 OFFCURVE",
"793 212 QCURVE SMOOTH",
"602 212 OFFCURVE",
"381 479 OFFCURVE",
"381 711 QCURVE SMOOTH",
"381 941 OFFCURVE",
"597 1198 OFFCURVE",
"795 1198 QCURVE SMOOTH",
"990 1198 OFFCURVE",
"1206 939 OFFCURVE",
"1206 711 QCURVE SMOOTH"
);
}
);
width = 1593;
}
);
note = Theta;
unicode = 0398;
},
{
glyphname = Phi;
lastChange = "2019-11-19 19:15:40 +0000";
layers = (
{
layerId = "7129FC8E-08C2-4901-BA92-B1D794EB6D8E";
paths = (
{
closed = 1;
nodes = (
"1322 569 OFFCURVE",
"1158 397 OFFCURVE",
"1006 397 QCURVE SMOOTH",
"980 397 LINE",
"980 1052 LINE",
"999 1052 LINE SMOOTH",
"1164 1052 OFFCURVE",
"1322 882 OFFCURVE",
"1322 730 QCURVE SMOOTH"
);
},
{
closed = 1;
nodes = (
"980 -11 LINE",
"980 188 LINE",
"1034 188 LINE SMOOTH",
"1213 188 OFFCURVE",
"1479 325 OFFCURVE",
"1619 573 OFFCURVE",
"1619 734 QCURVE SMOOTH",
"1619 985 OFFCURVE",
"1308 1261 OFFCURVE",
"1022 1261 QCURVE SMOOTH",
"980 1261 LINE",
"980 1419 LINE",
"702 1419 LINE",
"702 1261 LINE",
"660 1261 LINE SMOOTH",
"373 1261 OFFCURVE",
"63 985 OFFCURVE",
"63 734 QCURVE SMOOTH",
"63 574 OFFCURVE",
"203 325 OFFCURVE",
"469 188 OFFCURVE",
"648 188 QCURVE SMOOTH",
"702 188 LINE",
"702 -11 LINE"
);
},
{
closed = 1;
nodes = (
"360 882 OFFCURVE",
"518 1052 OFFCURVE",
"683 1052 QCURVE SMOOTH",
"702 1052 LINE",
"702 397 LINE",
"676 397 LINE SMOOTH",
"523 397 OFFCURVE",
"360 570 OFFCURVE",
"360 730 QCURVE SMOOTH"
);
}
);
width = 1681;
}
);
note = Phi;
unicode = 03A6;
},
{
glyphname = alpha;
lastChange = "2019-11-19 19:15:40 +0000";
layers = (
{
layerId = "7129FC8E-08C2-4901-BA92-B1D794EB6D8E";
paths = (
{
closed = 1;
nodes = (
"864 237 LINE",
"886 120 OFFCURVE",
"935 0 QCURVE",
"1205 0 LINE",
"1101 247 OFFCURVE",
"1069 556 QCURVE",
"1081 671 OFFCURVE",
"1188 991 OFFCURVE",
"1238 1082 QCURVE",
"973 1082 LINE",
"923 971 OFFCURVE",
"898 847 QCURVE",
"895 847 LINE",
"847 969 OFFCURVE",
"658 1102 OFFCURVE",
"527 1102 QCURVE SMOOTH",
"307 1102 OFFCURVE",
"80 820 OFFCURVE",
"80 536 QCURVE SMOOTH",
"80 255 OFFCURVE",
"289 -20 OFFCURVE",
"501 -20 QCURVE SMOOTH",
"626 -20 OFFCURVE",
"798 102 OFFCURVE",
"860 237 QCURVE"
);
},
{
closed = 1;
nodes = (
"375 730 OFFCURVE",
"462 908 OFFCURVE",
"564 908 QCURVE SMOOTH",
"652 908 OFFCURVE",
"769 720 OFFCURVE",
"791 542 QCURVE",
"773 375 OFFCURVE",
"645 173 OFFCURVE",
"556 173 QCURVE SMOOTH",
"460 173 OFFCURVE",
"375 343 OFFCURVE",
"375 539 QCURVE SMOOTH"
);
}
);
width = 1259;
}
);
note = alpha;
unicode = 03B1;
},
{
glyphname = delta;
lastChange = "2019-11-19 19:15:40 +0000";
layers = (
{
layerId = "7129FC8E-08C2-4901-BA92-B1D794EB6D8E";
paths = (
{
closed = 1;
nodes = (
"866 332 OFFCURVE",
"736 176 OFFCURVE",
"612 176 QCURVE SMOOTH",
"500 176 OFFCURVE",
"376 336 OFFCURVE",
"376 481 QCURVE SMOOTH",
"376 638 OFFCURVE",
"526 853 OFFCURVE",
"667 903 QCURVE",
"775 795 OFFCURVE",
"866 597 OFFCURVE",
"866 487 QCURVE SMOOTH"
);
},
{
closed = 1;
nodes = (
"1092 1294 LINE",
"1092 1484 LINE",
"239 1484 LINE",
"239 1337 LINE",
"551 1023 LINE",
"86 863 OFFCURVE",
"86 481 QCURVE SMOOTH",
"86 245 OFFCURVE",
"365 -20 OFFCURVE",
"617 -20 QCURVE SMOOTH",
"781 -20 OFFCURVE",
"1027 106 OFFCURVE",
"1156 335 OFFCURVE",
"1156 483 QCURVE SMOOTH",
"1156 636 OFFCURVE",
"1041 889 OFFCURVE",
"910 1008 QCURVE SMOOTH",
"587 1301 LINE",
"734 1294 LINE"
);
}
);
width = 1242;
}
);
note = delta;
unicode = 03B4;
},
{
glyphname = epsilon;
lastChange = "2019-11-19 19:15:40 +0000";
layers = (
{
layerId = "7129FC8E-08C2-4901-BA92-B1D794EB6D8E";
paths = (
{
closed = 1;
nodes = (
"451 168 OFFCURVE",
"366 242 OFFCURVE",
"366 314 QCURVE SMOOTH",
"366 376 OFFCURVE",
"432 445 OFFCURVE",
"557 475 OFFCURVE",
"705 475 QCURVE",
"705 652 LINE",
"518 652 OFFCURVE",
"377 725 OFFCURVE",
"377 801 QCURVE SMOOTH",
"377 858 OFFCURVE",
"465 923 OFFCURVE",
"549 923 QCURVE SMOOTH",
"618 923 OFFCURVE",
"719 867 OFFCURVE",
"761 810 QCURVE",
"923 933 LINE",
"852 1026 OFFCURVE",
"670 1102 OFFCURVE",
"533 1102 QCURVE SMOOTH",
"341 1102 OFFCURVE",
"110 945 OFFCURVE",
"110 812 QCURVE SMOOTH",
"110 706 OFFCURVE",
"246 572 OFFCURVE",
"365 560 QCURVE",
"365 558 LINE",
"234 547 OFFCURVE",
"77 410 OFFCURVE",
"77 297 QCURVE SMOOTH",
"77 146 OFFCURVE",
"298 -20 OFFCURVE",
"497 -20 QCURVE SMOOTH",
"597 -20 OFFCURVE",
"747 20 OFFCURVE",
"866 90 OFFCURVE",
"939 165 QCURVE",
"796 305 LINE",
"664 168 OFFCURVE",
"526 168 QCURVE SMOOTH"
);
}
);
width = 972;
}
);
note = epsilon;
unicode = 03B5;
},
{
glyphname = sigma;
lastChange = "2019-11-19 19:15:40 +0000";
layers = (
{
layerId = "7129FC8E-08C2-4901-BA92-B1D794EB6D8E";
paths = (
{
closed = 1;
nodes = (
"1170 567 OFFCURVE",
"1090 781 OFFCURVE",
"1002 894 QCURVE",
"1002 898 LINE",
"1166 892 LINE",
"1361 892 LINE",
"1361 1082 LINE",
"719 1082 LINE SMOOTH",
"412 1082 OFFCURVE",
"80 789 OFFCURVE",
"80 524 QCURVE SMOOTH",
"80 258 OFFCURVE",
"365 -20 OFFCURVE",
"628 -20 QCURVE SMOOTH",
"884 -20 OFFCURVE",
"1170 234 OFFCURVE",
"1170 458 QCURVE SMOOTH"
);
},
{
closed = 1;
nodes = (
"876 336 OFFCURVE",
"745 172 OFFCURVE",
"621 172 QCURVE SMOOTH",
"375 172 OFFCURVE",
"375 524 QCURVE SMOOTH",
"375 696 OFFCURVE",
"551 892 OFFCURVE",
"700 892 QCURVE SMOOTH",
"774 892 LINE",
"876 708 OFFCURVE",
"876 492 QCURVE SMOOTH"
);
}
);
width = 1401;
}
);
note = sigma;
unicode = 03C3;
},
{
glyphname = tau;
lastChange = "2019-11-19 19:15:40 +0000";
layers = (
{
layerId = "7129FC8E-08C2-4901-BA92-B1D794EB6D8E";
paths = (
{
closed = 1;
nodes = (
"297 892 LINE",
"297 251 LINE SMOOTH",
"297 -21 OFFCURVE",
"596 -21 QCURVE SMOOTH",
"640 -21 OFFCURVE",
"759 -3 OFFCURVE",
"795 7 QCURVE",
"771 185 LINE",
"728 177 OFFCURVE",
"690 177 QCURVE SMOOTH",
"626 177 OFFCURVE",
"575 243 OFFCURVE",
"575 312 QCURVE SMOOTH",
"575 892 LINE",
"880 892 LINE",
"880 1082 LINE",
"201 1082 LINE SMOOTH",
"149 1082 OFFCURVE",
"42 1065 OFFCURVE",
"18 1053 QCURVE",
"18 855 LINE",
"40 868 OFFCURVE",
"188 892 OFFCURVE",
"270 892 QCURVE SMOOTH"
);
}
);
width = 914;
}
);
note = tau;
unicode = 03C4;
},
{
glyphname = phi;
lastChange = "2019-11-19 19:15:40 +0000";
layers = (
{
layerId = "7129FC8E-08C2-4901-BA92-B1D794EB6D8E";
paths = (
{
closed = 1;
nodes = (
"1386 811 OFFCURVE",
"1158 1104 OFFCURVE",
"967 1104 QCURVE SMOOTH",
"781 1104 OFFCURVE",
"607 900 OFFCURVE",
"607 702 QCURVE SMOOTH",
"607 167 LINE",
"483 176 OFFCURVE",
"355 368 OFFCURVE",
"355 544 QCURVE SMOOTH",
"355 702 OFFCURVE",
"457 903 OFFCURVE",
"550 927 QCURVE",
"529 1106 LINE",
"296 1067 OFFCURVE",
"80 791 OFFCURVE",
"80 544 QCURVE SMOOTH",
"80 277 OFFCURVE",
"350 -9 OFFCURVE",
"607 -20 QCURVE",
"607 -425 LINE",
"845 -425 LINE",
"845 -18 LINE",
"1107 -5 OFFCURVE",
"1386 292 OFFCURVE",
"1386 565 QCURVE SMOOTH"
);
},
{
closed = 1;
nodes = (
"1111 372 OFFCURVE",
"973 172 OFFCURVE",
"845 166 QCURVE",
"845 699 LINE SMOOTH",
"845 930 OFFCURVE",
"968 930 QCURVE SMOOTH",
"1111 930 OFFCURVE",
"1111 567 QCURVE SMOOTH"
);
}
);
width = 1465;
}
);
note = phi;
unicode = 03C6;
},
{
glyphname = nsuperior;
lastChange = "2019-11-19 19:15:40 +0000";
layers = (
{
layerId = "7129FC8E-08C2-4901-BA92-B1D794EB6D8E";
paths = (
{
closed = 1;
nodes = (
"710 519 LINE",
"710 952 LINE SMOOTH",
"710 1073 OFFCURVE",
"603 1181 OFFCURVE",
"493 1181 QCURVE SMOOTH",
"419 1181 OFFCURVE",
"320 1123 OFFCURVE",
"285 1058 QCURVE",
"282 1058 LINE",
"280 1105 OFFCURVE",
"277 1139 OFFCURVE",
"275 1166 OFFCURVE",
"274 1169 QCURVE",
"108 1169 LINE",
"112 1030 LINE",
"112 519 LINE",
"290 519 LINE",
"290 870 LINE SMOOTH",
"290 961 OFFCURVE",
"363 1057 OFFCURVE",
"425 1057 QCURVE SMOOTH",
"485 1057 OFFCURVE",
"531 990 OFFCURVE",
"531 903 QCURVE SMOOTH",
"531 519 LINE"
);
}
);
width = 811;
}
);
note = nsuperior;
unicode = 207F;
},
{
glyphname = peseta;
lastChange = "2019-11-19 19:15:40 +0000";
layers = (
{
layerId = "7129FC8E-08C2-4901-BA92-B1D794EB6D8E";
paths = (
{
closed = 1;
nodes = (
"1427 166 LINE",
"1389 152 OFFCURVE",
"1353 152 QCURVE SMOOTH",
"1302 152 OFFCURVE",
"1262 209 OFFCURVE",
"1262 278 QCURVE SMOOTH",
"1262 647 LINE",
"1409 647 LINE",
"1409 813 LINE",
"1262 813 LINE",
"1262 1055 LINE",
"1137 1055 LINE",
"1049 813 LINE",
"963 813 LINE",
"994 894 OFFCURVE",
"994 985 QCURVE SMOOTH",
"994 1187 OFFCURVE",
"721 1409 OFFCURVE",
"472 1409 QCURVE SMOOTH",
"158 1409 LINE",
"158 0 LINE",
"399 0 LINE",
"399 549 LINE",
"509 549 LINE SMOOTH",
"661 549 OFFCURVE",
"882 660 OFFCURVE",
"938 760 QCURVE",
"938 647 LINE",
"1042 647 LINE",
"1042 229 LINE SMOOTH",
"1042 106 OFFCURVE",
"1155 -16 OFFCURVE",
"1280 -16 QCURVE SMOOTH",
"1353 -16 OFFCURVE",
"1427 8 QCURVE"
);
},
{
closed = 1;
nodes = (
"2171 313 OFFCURVE",
"2102 416 OFFCURVE",
"1979 482 OFFCURVE",
"1802 518 QCURVE SMOOTH",
"1730 532 OFFCURVE",
"1672 566 OFFCURVE",
"1672 593 QCURVE SMOOTH",
"1672 629 OFFCURVE",
"1739 656 OFFCURVE",
"1808 656 QCURVE SMOOTH",
"1871 656 OFFCURVE",
"1944 604 OFFCURVE",
"1953 556 QCURVE",
"2154 573 LINE",
"2131 697 OFFCURVE",
"1955 824 OFFCURVE",
"1806 824 QCURVE SMOOTH",
"1635 824 OFFCURVE",
"1457 703 OFFCURVE",
"1457 588 QCURVE SMOOTH",
"1457 524 OFFCURVE",
"1505 438 OFFCURVE",
"1583 380 OFFCURVE",
"1698 343 OFFCURVE",
"1821 319 QCURVE SMOOTH",
"1896 304 OFFCURVE",
"1961 262 OFFCURVE",
"1961 228 QCURVE SMOOTH",
"1961 186 OFFCURVE",
"1889 147 OFFCURVE",
"1796 147 QCURVE SMOOTH",
"1717 147 OFFCURVE",
"1628 195 OFFCURVE",
"1613 256 QCURVE",
"1414 230 LINE",
"1444 100 OFFCURVE",
"1624 -20 OFFCURVE",
"1798 -20 QCURVE SMOOTH",
"1977 -20 OFFCURVE",
"2171 114 OFFCURVE",
"2171 241 QCURVE SMOOTH"
);
},
{
closed = 1;
nodes = (
"752 856 OFFCURVE",
"625 740 OFFCURVE",
"482 740 QCURVE SMOOTH",
"399 740 LINE",
"399 1216 LINE",
"474 1216 LINE SMOOTH",
"620 1216 OFFCURVE",
"752 1105 OFFCURVE",
"752 983 QCURVE SMOOTH"
);
}
);
width = 2240;
}
);
note = peseta;
unicode = 20A7;
},
{
glyphname = arrowleft;
lastChange = "2019-11-19 19:15:40 +0000";
layers = (
{
layerId = "7129FC8E-08C2-4901-BA92-B1D794EB6D8E";
paths = (
{
closed = 1;
nodes = (
"1630 497 LINE",
"1630 583 LINE",
"641 583 LINE",
"698 650 OFFCURVE",
"760 780 QCURVE",
"688 780 LINE",
"561 631 OFFCURVE",
"418 558 QCURVE",
"418 522 LINE",
"561 449 OFFCURVE",
"688 300 QCURVE",
"760 300 LINE",
"698 430 OFFCURVE",
"641 497 QCURVE"
);
}
);
width = 2048;
}
);
note = arrowleft;
unicode = 2190;
},
{
glyphname = arrowup;
lastChange = "2019-11-19 19:15:40 +0000";
layers = (
{
layerId = "7129FC8E-08C2-4901-BA92-B1D794EB6D8E";
paths = (
{
closed = 1;
nodes = (
"469 -61 LINE",
"555 -61 LINE",
"555 928 LINE",
"622 871 OFFCURVE",
"752 809 QCURVE",
"752 881 LINE",
"603 1008 OFFCURVE",
"530 1151 QCURVE",
"494 1151 LINE",
"421 1008 OFFCURVE",
"272 881 QCURVE",
"272 809 LINE",
"402 871 OFFCURVE",
"469 928 QCURVE"
);
}
);
width = 1024;
}
);
note = arrowup;
unicode = 2191;
},
{
glyphname = arrowright;
lastChange = "2019-11-19 19:15:40 +0000";
layers = (
{
layerId = "7129FC8E-08C2-4901-BA92-B1D794EB6D8E";
paths = (
{
closed = 1;
nodes = (
"418 583 LINE",
"418 497 LINE",
"1407 497 LINE",
"1350 430 OFFCURVE",
"1288 300 QCURVE",
"1360 300 LINE",
"1487 449 OFFCURVE",
"1630 522 QCURVE",
"1630 558 LINE",
"1487 631 OFFCURVE",
"1360 780 QCURVE",
"1288 780 LINE",
"1350 650 OFFCURVE",
"1407 583 QCURVE"
);
}
);
width = 2048;
}
);
note = arrowright;
unicode = 2192;
},
{
glyphname = arrowdown;
lastChange = "2019-11-19 19:15:40 +0000";
layers = (
{
layerId = "7129FC8E-08C2-4901-BA92-B1D794EB6D8E";
paths = (
{
closed = 1;
nodes = (
"555 1151 LINE",
"469 1151 LINE",
"469 162 LINE",
"402 219 OFFCURVE",
"272 281 QCURVE",
"272 209 LINE",
"421 82 OFFCURVE",
"494 -61 QCURVE",
"530 -61 LINE",
"603 82 OFFCURVE",
"752 209 QCURVE",
"752 281 LINE",
"622 219 OFFCURVE",
"555 162 QCURVE"
);
}
);
width = 1024;
}
);
note = arrowdown;
unicode = 2193;
},
{
glyphname = arrowboth;
lastChange = "2019-11-19 19:15:40 +0000";
layers = (
{
layerId = "7129FC8E-08C2-4901-BA92-B1D794EB6D8E";
paths = (
{
closed = 1;
nodes = (
"1407 497 LINE",
"1350 430 OFFCURVE",
"1288 300 QCURVE",
"1360 300 LINE",
"1487 449 OFFCURVE",
"1630 522 QCURVE",
"1630 558 LINE",
"1487 631 OFFCURVE",
"1360 780 QCURVE",
"1288 780 LINE",
"1350 650 OFFCURVE",
"1407 583 QCURVE",
"641 583 LINE",
"698 650 OFFCURVE",
"760 780 QCURVE",
"688 780 LINE",
"561 631 OFFCURVE",
"418 558 QCURVE",
"418 522 LINE",
"561 449 OFFCURVE",
"688 300 QCURVE",
"760 300 LINE",
"698 430 OFFCURVE",
"641 497 QCURVE"
);
}
);
width = 2048;
}
);
note = arrowboth;
unicode = 2194;
},
{
glyphname = arrowupdn;
lastChange = "2019-11-19 19:15:40 +0000";
layers = (
{
layerId = "7129FC8E-08C2-4901-BA92-B1D794EB6D8E";
paths = (
{
closed = 1;
nodes = (
"469 162 LINE",
"402 219 OFFCURVE",
"272 281 QCURVE",
"272 209 LINE",
"421 82 OFFCURVE",
"494 -61 QCURVE",
"530 -61 LINE",
"603 82 OFFCURVE",
"752 209 QCURVE",
"752 281 LINE",
"622 219 OFFCURVE",
"555 162 QCURVE",
"555 928 LINE",
"622 871 OFFCURVE",
"752 809 QCURVE",
"752 881 LINE",
"603 1008 OFFCURVE",
"530 1151 QCURVE",
"494 1151 LINE",
"421 1008 OFFCURVE",
"272 881 QCURVE",
"272 809 LINE",
"402 871 OFFCURVE",
"469 928 QCURVE"
);
}
);
width = 1024;
}
);
note = arrowupdn;
unicode = 2195;
},
{
glyphname = arrowupdnbse;
lastChange = "2019-11-19 19:15:40 +0000";
layers = (
{
layerId = "7129FC8E-08C2-4901-BA92-B1D794EB6D8E";
paths = (
{
closed = 1;
nodes = (
"272 -184 LINE",
"752 -184 LINE",
"752 -104 LINE",
"272 -104 LINE"
);
},
{
closed = 1;
nodes = (
"469 162 LINE",
"402 219 OFFCURVE",
"272 281 QCURVE",
"272 209 LINE",
"421 82 OFFCURVE",
"494 -61 QCURVE",
"530 -61 LINE",
"603 82 OFFCURVE",
"752 209 QCURVE",
"752 281 LINE",
"622 219 OFFCURVE",
"555 162 QCURVE",
"555 928 LINE",
"622 871 OFFCURVE",
"752 809 QCURVE",
"752 881 LINE",
"603 1008 OFFCURVE",
"530 1151 QCURVE",
"494 1151 LINE",
"421 1008 OFFCURVE",
"272 881 QCURVE",
"272 809 LINE",
"402 871 OFFCURVE",
"469 928 QCURVE"
);
}
);
width = 1024;
}
);
note = arrowupdnbse;
unicode = 21A8;
},
{
glyphname = orthogonal;
lastChange = "2019-11-19 19:15:40 +0000";
layers = (
{
layerId = "7129FC8E-08C2-4901-BA92-B1D794EB6D8E";
paths = (
{
closed = 1;
nodes = (
"408 0 LINE",
"1632 0 LINE",
"1632 94 LINE",
"502 94 LINE",
"502 1223 LINE",
"408 1223 LINE"
);
}
);
width = 2005;
}
);
note = orthogonal;
unicode = 221F;
},
{
glyphname = intersection;
lastChange = "2019-11-19 19:15:40 +0000";
layers = (
{
layerId = "7129FC8E-08C2-4901-BA92-B1D794EB6D8E";
paths = (
{
closed = 1;
nodes = (
"384 -2 LINE",
"384 510 LINE SMOOTH",
"384 704 OFFCURVE",
"576 930 OFFCURVE",
"738 930 QCURVE SMOOTH",
"898 930 OFFCURVE",
"1094 702 OFFCURVE",
"1094 512 QCURVE SMOOTH",
"1094 -2 LINE",
"1197 -2 LINE",
"1197 510 LINE SMOOTH",
"1197 658 OFFCURVE",
"1078 900 OFFCURVE",
"867 1032 OFFCURVE",
"736 1032 QCURVE SMOOTH",
"606 1032 OFFCURVE",
"397 899 OFFCURVE",
"281 660 OFFCURVE",
"281 510 QCURVE SMOOTH",
"281 -2 LINE"
);
}
);
width = 1479;
}
);
note = intersection;
unicode = 2229;
},
{
glyphname = equivalence;
lastChange = "2019-11-19 19:15:40 +0000";
layers = (
{
layerId = "7129FC8E-08C2-4901-BA92-B1D794EB6D8E";
paths = (
{
closed = 1;
nodes = (
"1095 956 LINE",
"1095 1104 LINE",
"100 1104 LINE",
"100 956 LINE"
);
},
{
closed = 1;
nodes = (
"1095 244 LINE",
"1095 392 LINE",
"100 392 LINE",
"100 244 LINE"
);
},
{
closed = 1;
nodes = (
"1095 600 LINE",
"1095 748 LINE",
"100 748 LINE",
"100 600 LINE"
);
}
);
width = 1195;
}
);
note = equivalence;
unicode = 2261;
},
{
glyphname = house;
lastChange = "2019-11-19 19:15:40 +0000";
layers = (
{
layerId = "7129FC8E-08C2-4901-BA92-B1D794EB6D8E";
paths = (
{
closed = 1;
nodes = (
"1079 0 LINE",
"1079 635 LINE",
"618 1153 LINE",
"157 635 LINE",
"157 0 LINE"
);
},
{
closed = 1;
nodes = (
"237 600 LINE",
"618 1026 LINE",
"999 600 LINE",
"999 82 LINE",
"237 82 LINE"
);
}
);
width = 1237;
}
);
note = house;
unicode = 2302;
},
{
glyphname = revlogicalnot;
lastChange = "2019-11-19 19:15:40 +0000";
layers = (
{
layerId = "7129FC8E-08C2-4901-BA92-B1D794EB6D8E";
paths = (
{
closed = 1;
nodes = (
"245 180 LINE",
"245 608 LINE",
"1095 608 LINE",
"1095 754 LINE",
"100 754 LINE",
"100 180 LINE"
);
}
);
width = 1196;
}
);
note = revlogicalnot;
unicode = 2310;
},
{
glyphname = integraltp;
lastChange = "2019-11-19 19:15:40 +0000";
layers = (
{
layerId = "7129FC8E-08C2-4901-BA92-B1D794EB6D8E";
paths = (
{
closed = 1;
nodes = (
"693 1423 LINE SMOOTH",
"693 1528 OFFCURVE",
"699 1563 QCURVE SMOOTH",
"708 1602 OFFCURVE",
"744 1602 QCURVE SMOOTH",
"760 1602 OFFCURVE",
"793 1563 QCURVE SMOOTH",
"831 1521 OFFCURVE",
"847 1513 QCURVE",
"860 1503 OFFCURVE",
"890 1503 QCURVE SMOOTH",
"927 1503 OFFCURVE",
"978 1555 OFFCURVE",
"978 1595 QCURVE SMOOTH",
"978 1643 OFFCURVE",
"903 1706 OFFCURVE",
"840 1706 QCURVE SMOOTH",
"714 1706 OFFCURVE",
"546 1460 OFFCURVE",
"546 1264 QCURVE SMOOTH",
"546 -614 LINE",
"693 -614 LINE"
);
}
);
width = 1237;
}
);
note = integraltp;
unicode = 2320;
},
{
glyphname = integralbt;
lastChange = "2019-11-19 19:15:40 +0000";
layers = (
{
layerId = "7129FC8E-08C2-4901-BA92-B1D794EB6D8E";
paths = (
{
closed = 1;
nodes = (
"546 -334 LINE SMOOTH",
"546 -461 OFFCURVE",
"523 -512 OFFCURVE",
"494 -512 QCURVE SMOOTH",
"478 -512 OFFCURVE",
"447 -475 QCURVE SMOOTH",
"416 -434 OFFCURVE",
"406 -430 QCURVE",
"380 -414 OFFCURVE",
"347 -414 QCURVE SMOOTH",
"311 -414 OFFCURVE",
"261 -467 OFFCURVE",
"261 -506 QCURVE SMOOTH",
"261 -553 OFFCURVE",
"339 -614 OFFCURVE",
"398 -614 QCURVE SMOOTH",
"530 -614 OFFCURVE",
"693 -369 OFFCURVE",
"693 -174 QCURVE SMOOTH",
"693 1706 LINE",
"546 1706 LINE"
);
}
);
width = 1237;
}
);
note = integralbt;
unicode = 2321;
},
{
glyphname = uni2500;
lastChange = "2019-11-19 19:15:40 +0000";
layers = (
{
layerId = "7129FC8E-08C2-4901-BA92-B1D794EB6D8E";
paths = (
{
closed = 1;
nodes = (
"1461 549 LINE",
"1461 694 LINE",
"-10 694 LINE",
"-10 549 LINE"
);
}
);
width = 1451;
}
);
note = uni2500;
unicode = 2500;
},
{
glyphname = uni2502;
lastChange = "2019-11-19 19:15:40 +0000";
layers = (
{
layerId = "7129FC8E-08C2-4901-BA92-B1D794EB6D8E";
paths = (
{
closed = 1;
nodes = (
"472 -621 LINE",
"617 -621 LINE",
"617 1864 LINE",
"472 1864 LINE"
);
}
);
width = 1280;
}
);
note = uni2502;
unicode = 2502;
},
{
glyphname = uni250C;
lastChange = "2019-11-19 19:15:40 +0000";
layers = (
{
layerId = "7129FC8E-08C2-4901-BA92-B1D794EB6D8E";
paths = (
{
closed = 1;
nodes = (
"653 -621 LINE",
"798 -621 LINE",
"798 549 LINE",
"1461 549 LINE",
"1461 694 LINE",
"653 694 LINE"
);
}
);
width = 1451;
}
);
note = uni250C;
unicode = 250C;
},
{
glyphname = uni2510;
lastChange = "2019-11-19 19:15:40 +0000";
layers = (
{
layerId = "7129FC8E-08C2-4901-BA92-B1D794EB6D8E";
paths = (
{
closed = 1;
nodes = (
"653 549 LINE",
"653 -621 LINE",
"798 -621 LINE",
"798 694 LINE",
"-10 694 LINE",
"-10 549 LINE"
);
}
);
width = 1451;
}
);
note = uni2510;
unicode = 2510;
},
{
glyphname = uni2514;
lastChange = "2019-11-19 19:15:40 +0000";
layers = (
{
layerId = "7129FC8E-08C2-4901-BA92-B1D794EB6D8E";
paths = (
{
closed = 1;
nodes = (
"653 549 LINE",
"1461 549 LINE",
"1461 694 LINE",
"798 694 LINE",
"798 1864 LINE",
"653 1864 LINE"
);
}
);
width = 1451;
}
);
note = uni2514;
unicode = 2514;
},
{
glyphname = uni2518;
lastChange = "2019-11-19 19:15:40 +0000";
layers = (
{
layerId = "7129FC8E-08C2-4901-BA92-B1D794EB6D8E";
paths = (
{
closed = 1;
nodes = (
"798 549 LINE",
"798 1864 LINE",
"653 1864 LINE",
"653 694 LINE",
"-10 694 LINE",
"-10 549 LINE"
);
}
);
width = 1451;
}
);
note = uni2518;
unicode = 2518;
},
{
glyphname = uni251C;
lastChange = "2019-11-19 19:15:40 +0000";
layers = (
{
layerId = "7129FC8E-08C2-4901-BA92-B1D794EB6D8E";
paths = (
{
closed = 1;
nodes = (
"653 -621 LINE",
"798 -621 LINE",
"798 549 LINE",
"1461 549 LINE",
"1461 694 LINE",
"798 694 LINE",
"798 1864 LINE",
"653 1864 LINE"
);
}
);
width = 1451;
}
);
note = uni251C;
unicode = 251C;
},
{
glyphname = uni2524;
lastChange = "2019-11-19 19:15:40 +0000";
layers = (
{
layerId = "7129FC8E-08C2-4901-BA92-B1D794EB6D8E";
paths = (
{
closed = 1;
nodes = (
"653 549 LINE",
"653 -621 LINE",
"798 -621 LINE",
"798 1864 LINE",
"653 1864 LINE",
"653 694 LINE",
"-10 694 LINE",
"-10 549 LINE"
);
}
);
width = 1451;
}
);
note = uni2524;
unicode = 2524;
},
{
glyphname = uni252C;
lastChange = "2019-11-19 19:15:40 +0000";
layers = (
{
layerId = "7129FC8E-08C2-4901-BA92-B1D794EB6D8E";
paths = (
{
closed = 1;
nodes = (
"653 549 LINE",
"653 -621 LINE",
"798 -621 LINE",
"798 549 LINE",
"1461 549 LINE",
"1461 694 LINE",
"-10 694 LINE",
"-10 549 LINE"
);
}
);
width = 1451;
}
);
note = uni252C;
unicode = 252C;
},
{
glyphname = uni2534;
lastChange = "2019-11-19 19:15:40 +0000";
layers = (
{
layerId = "7129FC8E-08C2-4901-BA92-B1D794EB6D8E";
paths = (
{
closed = 1;
nodes = (
"1461 549 LINE",
"1461 694 LINE",
"798 694 LINE",
"798 1864 LINE",
"653 1864 LINE",
"653 694 LINE",
"-10 694 LINE",
"-10 549 LINE"
);
}
);
width = 1451;
}
);
note = uni2534;
unicode = 2534;
},
{
glyphname = uni253C;
lastChange = "2019-11-19 19:15:40 +0000";
layers = (
{
layerId = "7129FC8E-08C2-4901-BA92-B1D794EB6D8E";
paths = (
{
closed = 1;
nodes = (
"653 549 LINE",
"653 -621 LINE",
"798 -621 LINE",
"798 549 LINE",
"1461 549 LINE",
"1461 694 LINE",
"798 694 LINE",
"798 1864 LINE",
"653 1864 LINE",
"653 694 LINE",
"-10 694 LINE",
"-10 549 LINE"
);
}
);
width = 1451;
}
);
note = uni253C;
unicode = 253C;
},
{
glyphname = uni2550;
lastChange = "2019-11-19 19:15:40 +0000";
layers = (
{
layerId = "7129FC8E-08C2-4901-BA92-B1D794EB6D8E";
paths = (
{
closed = 1;
nodes = (
"1461 729 LINE",
"1461 874 LINE",
"-10 874 LINE",
"-10 729 LINE"
);
},
{
closed = 1;
nodes = (
"1461 369 LINE",
"1461 514 LINE",
"-10 514 LINE",
"-10 369 LINE"
);
}
);
width = 1451;
}
);
note = uni2550;
unicode = 2550;
},
{
glyphname = uni2551;
lastChange = "2019-11-19 19:15:40 +0000";
layers = (
{
layerId = "7129FC8E-08C2-4901-BA92-B1D794EB6D8E";
paths = (
{
closed = 1;
nodes = (
"473 -621 LINE",
"618 -621 LINE",
"618 1864 LINE",
"473 1864 LINE"
);
},
{
closed = 1;
nodes = (
"833 -621 LINE",
"978 -621 LINE",
"978 1864 LINE",
"833 1864 LINE"
);
}
);
width = 1451;
}
);
note = uni2551;
unicode = 2551;
},
{
glyphname = uni2552;
lastChange = "2019-11-19 19:15:40 +0000";
layers = (
{
layerId = "7129FC8E-08C2-4901-BA92-B1D794EB6D8E";
paths = (
{
closed = 1;
nodes = (
"653 -621 LINE",
"798 -621 LINE",
"798 369 LINE",
"1461 369 LINE",
"1461 514 LINE",
"798 514 LINE",
"798 729 LINE",
"1461 729 LINE",
"1461 874 LINE",
"653 874 LINE"
);
}
);
width = 1451;
}
);
note = uni2552;
unicode = 2552;
},
{
glyphname = uni2553;
lastChange = "2019-11-19 19:15:40 +0000";
layers = (
{
layerId = "7129FC8E-08C2-4901-BA92-B1D794EB6D8E";
paths = (
{
closed = 1;
nodes = (
"473 694 LINE",
"473 -621 LINE",
"618 -621 LINE",
"618 549 LINE",
"833 549 LINE",
"833 -621 LINE",
"978 -621 LINE",
"978 549 LINE",
"1461 549 LINE",
"1461 694 LINE"
);
}
);
width = 1451;
}
);
note = uni2553;
unicode = 2553;
},
{
glyphname = uni2554;
lastChange = "2019-11-19 19:15:40 +0000";
layers = (
{
layerId = "7129FC8E-08C2-4901-BA92-B1D794EB6D8E";
paths = (
{
closed = 1;
nodes = (
"473 -621 LINE",
"618 -621 LINE",
"618 729 LINE",
"1461 729 LINE",
"1461 874 LINE",
"473 874 LINE"
);
},
{
closed = 1;
nodes = (
"833 -621 LINE",
"978 -621 LINE",
"978 369 LINE",
"1461 369 LINE",
"1461 514 LINE",
"833 514 LINE"
);
}
);
width = 1451;
}
);
note = uni2554;
unicode = 2554;
},
{
glyphname = uni2555;
lastChange = "2019-11-19 19:15:40 +0000";
layers = (
{
layerId = "7129FC8E-08C2-4901-BA92-B1D794EB6D8E";
paths = (
{
closed = 1;
nodes = (
"653 369 LINE",
"653 -621 LINE",
"798 -621 LINE",
"798 874 LINE",
"-10 874 LINE",
"-10 729 LINE",
"653 729 LINE",
"653 514 LINE",
"-10 514 LINE",
"-10 369 LINE"
);
}
);
width = 1451;
}
);
note = uni2555;
unicode = 2555;
},
{
glyphname = uni2556;
lastChange = "2019-11-19 19:15:40 +0000";
layers = (
{
layerId = "7129FC8E-08C2-4901-BA92-B1D794EB6D8E";
paths = (
{
closed = 1;
nodes = (
"473 549 LINE",
"473 -621 LINE",
"618 -621 LINE",
"618 549 LINE",
"833 549 LINE",
"833 -621 LINE",
"978 -621 LINE",
"978 694 LINE",
"-10 694 LINE",
"-10 549 LINE"
);
}
);
width = 1451;
}
);
note = uni2556;
unicode = 2556;
},
{
glyphname = uni2557;
lastChange = "2019-11-19 19:15:40 +0000";
layers = (
{
layerId = "7129FC8E-08C2-4901-BA92-B1D794EB6D8E";
paths = (
{
closed = 1;
nodes = (
"-10 874 LINE",
"-10 729 LINE",
"833 729 LINE",
"833 -621 LINE",
"978 -621 LINE",
"978 874 LINE"
);
},
{
closed = 1;
nodes = (
"618 514 LINE",
"-10 514 LINE",
"-10 369 LINE",
"473 369 LINE",
"473 -621 LINE",
"618 -621 LINE"
);
}
);
width = 1451;
}
);
note = uni2557;
unicode = 2557;
},
{
glyphname = uni2558;
lastChange = "2019-11-19 19:15:40 +0000";
layers = (
{
layerId = "7129FC8E-08C2-4901-BA92-B1D794EB6D8E";
paths = (
{
closed = 1;
nodes = (
"653 369 LINE",
"1461 369 LINE",
"1461 514 LINE",
"798 514 LINE",
"798 729 LINE",
"1461 729 LINE",
"1461 874 LINE",
"798 874 LINE",
"798 1864 LINE",
"653 1864 LINE"
);
}
);
width = 1451;
}
);
note = uni2558;
unicode = 2558;
},
{
glyphname = uni2559;
lastChange = "2019-11-19 19:15:40 +0000";
layers = (
{
layerId = "7129FC8E-08C2-4901-BA92-B1D794EB6D8E";
paths = (
{
closed = 1;
nodes = (
"833 694 LINE",
"618 694 LINE",
"618 1864 LINE",
"473 1864 LINE",
"473 549 LINE",
"1461 549 LINE",
"1461 694 LINE",
"978 694 LINE",
"978 1864 LINE",
"833 1864 LINE"
);
}
);
width = 1451;
}
);
note = uni2559;
unicode = 2559;
},
{
glyphname = uni255A;
lastChange = "2019-11-19 19:15:40 +0000";
layers = (
{
layerId = "7129FC8E-08C2-4901-BA92-B1D794EB6D8E";
paths = (
{
closed = 1;
nodes = (
"473 369 LINE",
"1461 369 LINE",
"1461 514 LINE",
"618 514 LINE",
"618 1864 LINE",
"473 1864 LINE"
);
},
{
closed = 1;
nodes = (
"833 729 LINE",
"1461 729 LINE",
"1461 874 LINE",
"978 874 LINE",
"978 1864 LINE",
"833 1864 LINE"
);
}
);
width = 1451;
}
);
note = uni255A;
unicode = 255A;
},
{
glyphname = uni255B;
lastChange = "2019-11-19 19:15:40 +0000";
layers = (
{
layerId = "7129FC8E-08C2-4901-BA92-B1D794EB6D8E";
paths = (
{
closed = 1;
nodes = (
"798 369 LINE",
"798 1864 LINE",
"653 1864 LINE",
"653 874 LINE",
"-10 874 LINE",
"-10 729 LINE",
"653 729 LINE",
"653 514 LINE",
"-10 514 LINE",
"-10 369 LINE"
);
}
);
width = 1451;
}
);
note = uni255B;
unicode = 255B;
},
{
glyphname = uni255C;
lastChange = "2019-11-19 19:15:40 +0000";
layers = (
{
layerId = "7129FC8E-08C2-4901-BA92-B1D794EB6D8E";
paths = (
{
closed = 1;
nodes = (
"978 1864 LINE",
"833 1864 LINE",
"833 694 LINE",
"618 694 LINE",
"618 1864 LINE",
"473 1864 LINE",
"473 694 LINE",
"-10 694 LINE",
"-10 549 LINE",
"978 549 LINE"
);
}
);
width = 1451;
}
);
note = uni255C;
unicode = 255C;
},
{
glyphname = uni255D;
lastChange = "2019-11-19 19:15:40 +0000";
layers = (
{
layerId = "7129FC8E-08C2-4901-BA92-B1D794EB6D8E";
paths = (
{
closed = 1;
nodes = (
"978 1864 LINE",
"833 1864 LINE",
"833 514 LINE",
"-10 514 LINE",
"-10 369 LINE",
"978 369 LINE"
);
},
{
closed = 1;
nodes = (
"473 874 LINE",
"-10 874 LINE",
"-10 729 LINE",
"618 729 LINE",
"618 1864 LINE",
"473 1864 LINE"
);
}
);
width = 1451;
}
);
note = uni255D;
unicode = 255D;
},
{
glyphname = uni255E;
lastChange = "2019-11-19 19:15:40 +0000";
layers = (
{
layerId = "7129FC8E-08C2-4901-BA92-B1D794EB6D8E";
paths = (
{
closed = 1;
nodes = (
"653 -621 LINE",
"798 -621 LINE",
"798 369 LINE",
"1461 369 LINE",
"1461 514 LINE",
"798 514 LINE",
"798 729 LINE",
"1461 729 LINE",
"1461 874 LINE",
"798 874 LINE",
"798 1864 LINE",
"653 1864 LINE"
);
}
);
width = 1451;
}
);
note = uni255E;
unicode = 255E;
},
{
glyphname = uni255F;
lastChange = "2019-11-19 19:15:40 +0000";
layers = (
{
layerId = "7129FC8E-08C2-4901-BA92-B1D794EB6D8E";
paths = (
{
closed = 1;
nodes = (
"833 -621 LINE",
"978 -621 LINE",
"978 549 LINE",
"1461 549 LINE",
"1461 694 LINE",
"978 694 LINE",
"978 1864 LINE",
"833 1864 LINE"
);
},
{
closed = 1;
nodes = (
"473 -621 LINE",
"618 -621 LINE",
"618 1864 LINE",
"473 1864 LINE"
);
}
);
width = 1451;
}
);
note = uni255F;
unicode = 255F;
},
{
glyphname = uni2560;
lastChange = "2019-11-19 19:15:40 +0000";
layers = (
{
layerId = "7129FC8E-08C2-4901-BA92-B1D794EB6D8E";
paths = (
{
closed = 1;
nodes = (
"618 1864 LINE",
"473 1864 LINE",
"473 -621 LINE",
"618 -621 LINE"
);
},
{
closed = 1;
nodes = (
"833 -621 LINE",
"978 -621 LINE",
"978 369 LINE",
"1461 369 LINE",
"1461 514 LINE",
"833 514 LINE"
);
},
{
closed = 1;
nodes = (
"833 729 LINE",
"1461 729 LINE",
"1461 874 LINE",
"978 874 LINE",
"978 1864 LINE",
"833 1864 LINE"
);
}
);
width = 1451;
}
);
note = uni2560;
unicode = 2560;
},
{
glyphname = uni2561;
lastChange = "2019-11-19 19:15:40 +0000";
layers = (
{
layerId = "7129FC8E-08C2-4901-BA92-B1D794EB6D8E";
paths = (
{
closed = 1;
nodes = (
"653 369 LINE",
"653 -621 LINE",
"798 -621 LINE",
"798 1864 LINE",
"653 1864 LINE",
"653 874 LINE",
"-10 874 LINE",
"-10 729 LINE",
"653 729 LINE",
"653 514 LINE",
"-10 514 LINE",
"-10 369 LINE"
);
}
);
width = 1451;
}
);
note = uni2561;
unicode = 2561;
},
{
glyphname = uni2562;
lastChange = "2019-11-19 19:15:40 +0000";
layers = (
{
layerId = "7129FC8E-08C2-4901-BA92-B1D794EB6D8E";
paths = (
{
closed = 1;
nodes = (
"473 549 LINE",
"473 -621 LINE",
"618 -621 LINE",
"618 1864 LINE",
"473 1864 LINE",
"473 694 LINE",
"-10 694 LINE",
"-10 549 LINE"
);
},
{
closed = 1;
nodes = (
"833 -621 LINE",
"978 -621 LINE",
"978 1864 LINE",
"833 1864 LINE"
);
}
);
width = 1451;
}
);
note = uni2562;
unicode = 2562;
},
{
glyphname = uni2563;
lastChange = "2019-11-19 19:15:40 +0000";
layers = (
{
layerId = "7129FC8E-08C2-4901-BA92-B1D794EB6D8E";
paths = (
{
closed = 1;
nodes = (
"833 -621 LINE",
"978 -621 LINE",
"978 1864 LINE",
"833 1864 LINE"
);
},
{
closed = 1;
nodes = (
"473 874 LINE",
"-10 874 LINE",
"-10 729 LINE",
"618 729 LINE",
"618 1864 LINE",
"473 1864 LINE"
);
},
{
closed = 1;
nodes = (
"618 514 LINE",
"-10 514 LINE",
"-10 369 LINE",
"473 369 LINE",
"473 -621 LINE",
"618 -621 LINE"
);
}
);
width = 1451;
}
);
note = uni2563;
unicode = 2563;
},
{
glyphname = uni2564;
lastChange = "2019-11-19 19:15:40 +0000";
layers = (
{
layerId = "7129FC8E-08C2-4901-BA92-B1D794EB6D8E";
paths = (
{
closed = 1;
nodes = (
"653 369 LINE",
"653 -621 LINE",
"798 -621 LINE",
"798 369 LINE",
"1461 369 LINE",
"1461 514 LINE",
"-10 514 LINE",
"-10 369 LINE"
);
},
{
closed = 1;
nodes = (
"1461 729 LINE",
"1461 874 LINE",
"-10 874 LINE",
"-10 729 LINE"
);
}
);
width = 1451;
}
);
note = uni2564;
unicode = 2564;
},
{
glyphname = uni2565;
lastChange = "2019-11-19 19:15:40 +0000";
layers = (
{
layerId = "7129FC8E-08C2-4901-BA92-B1D794EB6D8E";
paths = (
{
closed = 1;
nodes = (
"473 549 LINE",
"473 -621 LINE",
"618 -621 LINE",
"618 549 LINE",
"833 549 LINE",
"833 -621 LINE",
"978 -621 LINE",
"978 549 LINE",
"1461 549 LINE",
"1461 694 LINE",
"-10 694 LINE",
"-10 549 LINE"
);
}
);
width = 1451;
}
);
note = uni2565;
unicode = 2565;
},
{
glyphname = uni2566;
lastChange = "2019-11-19 19:15:40 +0000";
layers = (
{
layerId = "7129FC8E-08C2-4901-BA92-B1D794EB6D8E";
paths = (
{
closed = 1;
nodes = (
"618 514 LINE",
"-10 514 LINE",
"-10 369 LINE",
"473 369 LINE",
"473 -621 LINE",
"618 -621 LINE"
);
},
{
closed = 1;
nodes = (
"833 -621 LINE",
"978 -621 LINE",
"978 369 LINE",
"1461 369 LINE",
"1461 514 LINE",
"833 514 LINE"
);
},
{
closed = 1;
nodes = (
"-10 874 LINE",
"-10 729 LINE",
"1461 729 LINE",
"1461 874 LINE"
);
}
);
width = 1451;
}
);
note = uni2566;
unicode = 2566;
},
{
glyphname = uni2567;
lastChange = "2019-11-19 19:15:40 +0000";
layers = (
{
layerId = "7129FC8E-08C2-4901-BA92-B1D794EB6D8E";
paths = (
{
closed = 1;
nodes = (
"1461 729 LINE",
"1461 874 LINE",
"798 874 LINE",
"798 1864 LINE",
"653 1864 LINE",
"653 874 LINE",
"-10 874 LINE",
"-10 729 LINE"
);
},
{
closed = 1;
nodes = (
"1461 369 LINE",
"1461 514 LINE",
"-10 514 LINE",
"-10 369 LINE"
);
}
);
width = 1451;
}
);
note = uni2567;
unicode = 2567;
},
{
glyphname = uni2568;
lastChange = "2019-11-19 19:15:40 +0000";
layers = (
{
layerId = "7129FC8E-08C2-4901-BA92-B1D794EB6D8E";
paths = (
{
closed = 1;
nodes = (
"1461 549 LINE",
"1461 694 LINE",
"978 694 LINE",
"978 1864 LINE",
"833 1864 LINE",
"833 694 LINE",
"618 694 LINE",
"618 1864 LINE",
"473 1864 LINE",
"473 694 LINE",
"-10 694 LINE",
"-10 549 LINE"
);
}
);
width = 1451;
}
);
note = uni2568;
unicode = 2568;
},
{
glyphname = uni2569;
lastChange = "2019-11-19 19:15:40 +0000";
layers = (
{
layerId = "7129FC8E-08C2-4901-BA92-B1D794EB6D8E";
paths = (
{
closed = 1;
nodes = (
"833 729 LINE",
"1461 729 LINE",
"1461 874 LINE",
"978 874 LINE",
"978 1864 LINE",
"833 1864 LINE"
);
},
{
closed = 1;
nodes = (
"473 874 LINE",
"-10 874 LINE",
"-10 729 LINE",
"618 729 LINE",
"618 1864 LINE",
"473 1864 LINE"
);
},
{
closed = 1;
nodes = (
"1461 369 LINE",
"1461 514 LINE",
"-10 514 LINE",
"-10 369 LINE"
);
}
);
width = 1451;
}
);
note = uni2569;
unicode = 2569;
},
{
glyphname = uni256A;
lastChange = "2019-11-19 19:15:40 +0000";
layers = (
{
layerId = "7129FC8E-08C2-4901-BA92-B1D794EB6D8E";
paths = (
{
closed = 1;
nodes = (
"653 369 LINE",
"653 -621 LINE",
"798 -621 LINE",
"798 369 LINE",
"1461 369 LINE",
"1461 514 LINE",
"798 514 LINE",
"798 729 LINE",
"1461 729 LINE",
"1461 874 LINE",
"798 874 LINE",
"798 1864 LINE",
"653 1864 LINE",
"653 874 LINE",
"-10 874 LINE",
"-10 729 LINE",
"653 729 LINE",
"653 514 LINE",
"-10 514 LINE",
"-10 369 LINE"
);
}
);
width = 1451;
}
);
note = uni256A;
unicode = 256A;
},
{
glyphname = uni256B;
lastChange = "2019-11-19 19:15:40 +0000";
layers = (
{
layerId = "7129FC8E-08C2-4901-BA92-B1D794EB6D8E";
paths = (
{
closed = 1;
nodes = (
"833 694 LINE",
"618 694 LINE",
"618 1864 LINE",
"473 1864 LINE",
"473 694 LINE",
"-10 694 LINE",
"-10 549 LINE",
"473 549 LINE",
"473 -621 LINE",
"618 -621 LINE",
"618 549 LINE",
"833 549 LINE",
"833 -621 LINE",
"978 -621 LINE",
"978 549 LINE",
"1461 549 LINE",
"1461 694 LINE",
"978 694 LINE",
"978 1864 LINE",
"833 1864 LINE"
);
}
);
width = 1451;
}
);
note = uni256B;
unicode = 256B;
},
{
glyphname = uni256C;
lastChange = "2019-11-19 19:15:40 +0000";
layers = (
{
layerId = "7129FC8E-08C2-4901-BA92-B1D794EB6D8E";
paths = (
{
closed = 1;
nodes = (
"833 729 LINE",
"1461 729 LINE",
"1461 874 LINE",
"978 874 LINE",
"978 1864 LINE",
"833 1864 LINE"
);
},
{
closed = 1;
nodes = (
"618 514 LINE",
"-10 514 LINE",
"-10 369 LINE",
"473 369 LINE",
"473 -621 LINE",
"618 -621 LINE"
);
},
{
closed = 1;
nodes = (
"833 -621 LINE",
"978 -621 LINE",
"978 369 LINE",
"1461 369 LINE",
"1461 514 LINE",
"833 514 LINE"
);
},
{
closed = 1;
nodes = (
"473 874 LINE",
"-10 874 LINE",
"-10 729 LINE",
"618 729 LINE",
"618 1864 LINE",
"473 1864 LINE"
);
}
);
width = 1451;
}
);
note = uni256C;
unicode = 256C;
},
{
glyphname = upblock;
lastChange = "2019-11-19 19:15:40 +0000";
layers = (
{
layerId = "7129FC8E-08C2-4901-BA92-B1D794EB6D8E";
paths = (
{
closed = 1;
nodes = (
"1451 1864 LINE",
"0 1864 LINE",
"0 621 LINE",
"1451 621 LINE"
);
}
);
width = 1451;
}
);
note = upblock;
unicode = 2580;
},
{
glyphname = dnblock;
lastChange = "2019-11-19 19:15:40 +0000";
layers = (
{
layerId = "7129FC8E-08C2-4901-BA92-B1D794EB6D8E";
paths = (
{
closed = 1;
nodes = (
"1451 621 LINE",
"0 621 LINE",
"0 -621 LINE",
"1451 -621 LINE"
);
}
);
width = 1451;
}
);
note = dnblock;
unicode = 2584;
},
{
glyphname = block;
lastChange = "2019-11-19 19:15:40 +0000";
layers = (
{
layerId = "7129FC8E-08C2-4901-BA92-B1D794EB6D8E";
paths = (
{
closed = 1;
nodes = (
"1451 1864 LINE",
"0 1864 LINE",
"0 -621 LINE",
"1451 -621 LINE"
);
}
);
width = 1451;
}
);
note = block;
unicode = 2588;
},
{
glyphname = lfblock;
lastChange = "2019-11-19 19:15:40 +0000";
layers = (
{
layerId = "7129FC8E-08C2-4901-BA92-B1D794EB6D8E";
paths = (
{
closed = 1;
nodes = (
"726 1864 LINE",
"0 1864 LINE",
"0 -621 LINE",
"726 -621 LINE"
);
}
);
width = 1451;
}
);
note = lfblock;
unicode = 258C;
},
{
glyphname = rtblock;
lastChange = "2019-11-19 19:15:40 +0000";
layers = (
{
layerId = "7129FC8E-08C2-4901-BA92-B1D794EB6D8E";
paths = (
{
closed = 1;
nodes = (
"1451 1864 LINE",
"725 1864 LINE",
"725 -621 LINE",
"1451 -621 LINE"
);
}
);
width = 1451;
}
);
note = rtblock;
unicode = 2590;
},
{
glyphname = ltshade;
lastChange = "2019-11-19 19:15:40 +0000";
layers = (
{
layerId = "7129FC8E-08C2-4901-BA92-B1D794EB6D8E";
paths = (
{
closed = 1;
nodes = (
"103 1216 LINE",
"207 1216 LINE",
"207 1314 LINE",
"103 1314 LINE"
);
},
{
closed = 1;
nodes = (
"517 1216 LINE",
"621 1216 LINE",
"621 1314 LINE",
"517 1314 LINE"
);
},
{
closed = 1;
nodes = (
"933 1216 LINE",
"1036 1216 LINE",
"1036 1314 LINE",
"933 1314 LINE"
);
},
{
closed = 1;
nodes = (
"310 1023 LINE",
"414 1023 LINE",
"414 1119 LINE",
"310 1119 LINE"
);
},
{
closed = 1;
nodes = (
"725 1023 LINE",
"829 1023 LINE",
"829 1119 LINE",
"725 1119 LINE"
);
},
{
closed = 1;
nodes = (
"1140 1023 LINE",
"1244 1023 LINE",
"1244 1119 LINE",
"1140 1119 LINE"
);
},
{
closed = 1;
nodes = (
"933 831 LINE",
"1036 831 LINE",
"1036 927 LINE",
"933 927 LINE"
);
},
{
closed = 1;
nodes = (
"517 831 LINE",
"621 831 LINE",
"621 927 LINE",
"517 927 LINE"
);
},
{
closed = 1;
nodes = (
"103 831 LINE",
"207 831 LINE",
"207 927 LINE",
"103 927 LINE"
);
},
{
closed = 1;
nodes = (
"1140 636 LINE",
"1244 636 LINE",
"1244 732 LINE",
"1140 732 LINE"
);
},
{
closed = 1;
nodes = (
"725 636 LINE",
"829 636 LINE",
"829 732 LINE",
"725 732 LINE"
);
},
{
closed = 1;
nodes = (
"310 636 LINE",
"414 636 LINE",
"414 732 LINE",
"310 732 LINE"
);
},
{
closed = 1;
nodes = (
"103 444 LINE",
"207 444 LINE",
"207 540 LINE",
"103 540 LINE"
);
},
{
closed = 1;
nodes = (
"517 444 LINE",
"621 444 LINE",
"621 540 LINE",
"517 540 LINE"
);
},
{
closed = 1;
nodes = (
"933 444 LINE",
"1036 444 LINE",
"1036 540 LINE",
"933 540 LINE"
);
},
{
closed = 1;
nodes = (
"1140 249 LINE",
"1244 249 LINE",
"1244 345 LINE",
"1140 345 LINE"
);
},
{
closed = 1;
nodes = (
"725 249 LINE",
"829 249 LINE",
"829 345 LINE",
"725 345 LINE"
);
},
{
closed = 1;
nodes = (
"310 249 LINE",
"414 249 LINE",
"414 345 LINE",
"310 345 LINE"
);
},
{
closed = 1;
nodes = (
"103 56 LINE",
"207 56 LINE",
"207 153 LINE",
"103 153 LINE"
);
},
{
closed = 1;
nodes = (
"517 56 LINE",
"621 56 LINE",
"621 153 LINE",
"517 153 LINE"
);
},
{
closed = 1;
nodes = (
"933 56 LINE",
"1036 56 LINE",
"1036 153 LINE",
"933 153 LINE"
);
},
{
closed = 1;
nodes = (
"310 -136 LINE",
"414 -136 LINE",
"414 -42 LINE",
"310 -42 LINE"
);
},
{
closed = 1;
nodes = (
"725 -136 LINE",
"829 -136 LINE",
"829 -42 LINE",
"725 -42 LINE"
);
},
{
closed = 1;
nodes = (
"1140 -136 LINE",
"1244 -136 LINE",
"1244 -42 LINE",
"1140 -42 LINE"
);
},
{
closed = 1;
nodes = (
"933 -331 LINE",
"1036 -331 LINE",
"1036 -234 LINE",
"933 -234 LINE"
);
},
{
closed = 1;
nodes = (
"517 -331 LINE",
"621 -331 LINE",
"621 -234 LINE",
"517 -234 LINE"
);
},
{
closed = 1;
nodes = (
"103 -331 LINE",
"207 -331 LINE",
"207 -234 LINE",
"103 -234 LINE"
);
},
{
closed = 1;
nodes = (
"310 -523 LINE",
"414 -523 LINE",
"414 -427 LINE",
"310 -427 LINE"
);
},
{
closed = 1;
nodes = (
"725 -523 LINE",
"829 -523 LINE",
"829 -427 LINE",
"725 -427 LINE"
);
},
{
closed = 1;
nodes = (
"1140 -523 LINE",
"1244 -523 LINE",
"1244 -427 LINE",
"1140 -427 LINE"
);
},
{
closed = 1;
nodes = (
"310 1408 LINE",
"414 1408 LINE",
"414 1506 LINE",
"310 1506 LINE"
);
},
{
closed = 1;
nodes = (
"725 1408 LINE",
"829 1408 LINE",
"829 1506 LINE",
"725 1506 LINE"
);
},
{
closed = 1;
nodes = (
"1140 1408 LINE",
"1244 1408 LINE",
"1244 1506 LINE",
"1140 1506 LINE"
);
},
{
closed = 1;
nodes = (
"103 1603 LINE",
"207 1603 LINE",
"207 1699 LINE",
"103 1699 LINE"
);
},
{
closed = 1;
nodes = (
"517 1603 LINE",
"621 1603 LINE",
"621 1699 LINE",
"517 1699 LINE"
);
},
{
closed = 1;
nodes = (
"933 1603 LINE",
"1036 1603 LINE",
"1036 1699 LINE",
"933 1699 LINE"
);
},
{
closed = 1;
nodes = (
"1347 1216 LINE",
"1451 1216 LINE",
"1451 1314 LINE",
"1347 1314 LINE"
);
},
{
closed = 1;
nodes = (
"1347 831 LINE",
"1451 831 LINE",
"1451 927 LINE",
"1347 927 LINE"
);
},
{
closed = 1;
nodes = (
"1347 444 LINE",
"1451 444 LINE",
"1451 540 LINE",
"1347 540 LINE"
);
},
{
closed = 1;
nodes = (
"1347 56 LINE",
"1451 56 LINE",
"1451 153 LINE",
"1347 153 LINE"
);
},
{
closed = 1;
nodes = (
"1347 -331 LINE",
"1451 -331 LINE",
"1451 -234 LINE",
"1347 -234 LINE"
);
},
{
closed = 1;
nodes = (
"1347 1603 LINE",
"1451 1603 LINE",
"1451 1699 LINE",
"1347 1699 LINE"
);
}
);
width = 1451;
}
);
note = ltshade;
unicode = 2591;
},
{
glyphname = shade;
lastChange = "2019-11-19 19:15:40 +0000";
layers = (
{
layerId = "7129FC8E-08C2-4901-BA92-B1D794EB6D8E";
paths = (
{
closed = 1;
nodes = (
"103 1216 LINE",
"207 1216 LINE",
"207 1314 LINE",
"103 1314 LINE"
);
},
{
closed = 1;
nodes = (
"310 1216 LINE",
"414 1216 LINE",
"414 1314 LINE",
"310 1314 LINE"
);
},
{
closed = 1;
nodes = (
"517 1216 LINE",
"621 1216 LINE",
"621 1314 LINE",
"517 1314 LINE"
);
},
{
closed = 1;
nodes = (
"725 1216 LINE",
"829 1216 LINE",
"829 1314 LINE",
"725 1314 LINE"
);
},
{
closed = 1;
nodes = (
"933 1216 LINE",
"1037 1216 LINE",
"1037 1314 LINE",
"933 1314 LINE"
);
},
{
closed = 1;
nodes = (
"1140 1216 LINE",
"1244 1216 LINE",
"1244 1314 LINE",
"1140 1314 LINE"
);
},
{
closed = 1;
nodes = (
"0 1023 LINE",
"103 1023 LINE",
"103 1119 LINE",
"0 1119 LINE"
);
},
{
closed = 1;
nodes = (
"207 1023 LINE",
"310 1023 LINE",
"310 1119 LINE",
"207 1119 LINE"
);
},
{
closed = 1;
nodes = (
"414 1023 LINE",
"517 1023 LINE",
"517 1119 LINE",
"414 1119 LINE"
);
},
{
closed = 1;
nodes = (
"621 1023 LINE",
"725 1023 LINE",
"725 1119 LINE",
"621 1119 LINE"
);
},
{
closed = 1;
nodes = (
"829 1023 LINE",
"933 1023 LINE",
"933 1119 LINE",
"829 1119 LINE"
);
},
{
closed = 1;
nodes = (
"1037 1023 LINE",
"1140 1023 LINE",
"1140 1119 LINE",
"1037 1119 LINE"
);
},
{
closed = 1;
nodes = (
"103 831 LINE",
"207 831 LINE",
"207 927 LINE",
"103 927 LINE"
);
},
{
closed = 1;
nodes = (
"310 831 LINE",
"414 831 LINE",
"414 927 LINE",
"310 927 LINE"
);
},
{
closed = 1;
nodes = (
"517 831 LINE",
"621 831 LINE",
"621 927 LINE",
"517 927 LINE"
);
},
{
closed = 1;
nodes = (
"725 831 LINE",
"829 831 LINE",
"829 927 LINE",
"725 927 LINE"
);
},
{
closed = 1;
nodes = (
"933 831 LINE",
"1037 831 LINE",
"1037 927 LINE",
"933 927 LINE"
);
},
{
closed = 1;
nodes = (
"1140 831 LINE",
"1244 831 LINE",
"1244 927 LINE",
"1140 927 LINE"
);
},
{
closed = 1;
nodes = (
"0 636 LINE",
"103 636 LINE",
"103 732 LINE",
"0 732 LINE"
);
},
{
closed = 1;
nodes = (
"207 636 LINE",
"310 636 LINE",
"310 732 LINE",
"207 732 LINE"
);
},
{
closed = 1;
nodes = (
"414 636 LINE",
"517 636 LINE",
"517 732 LINE",
"414 732 LINE"
);
},
{
closed = 1;
nodes = (
"621 636 LINE",
"725 636 LINE",
"725 732 LINE",
"621 732 LINE"
);
},
{
closed = 1;
nodes = (
"829 636 LINE",
"933 636 LINE",
"933 732 LINE",
"829 732 LINE"
);
},
{
closed = 1;
nodes = (
"1037 636 LINE",
"1140 636 LINE",
"1140 732 LINE",
"1037 732 LINE"
);
},
{
closed = 1;
nodes = (
"103 444 LINE",
"207 444 LINE",
"207 540 LINE",
"103 540 LINE"
);
},
{
closed = 1;
nodes = (
"310 444 LINE",
"414 444 LINE",
"414 540 LINE",
"310 540 LINE"
);
},
{
closed = 1;
nodes = (
"517 444 LINE",
"621 444 LINE",
"621 540 LINE",
"517 540 LINE"
);
},
{
closed = 1;
nodes = (
"725 444 LINE",
"829 444 LINE",
"829 540 LINE",
"725 540 LINE"
);
},
{
closed = 1;
nodes = (
"933 444 LINE",
"1037 444 LINE",
"1037 540 LINE",
"933 540 LINE"
);
},
{
closed = 1;
nodes = (
"1140 444 LINE",
"1244 444 LINE",
"1244 540 LINE",
"1140 540 LINE"
);
},
{
closed = 1;
nodes = (
"0 249 LINE",
"103 249 LINE",
"103 345 LINE",
"0 345 LINE"
);
},
{
closed = 1;
nodes = (
"414 249 LINE",
"517 249 LINE",
"517 345 LINE",
"414 345 LINE"
);
},
{
closed = 1;
nodes = (
"621 249 LINE",
"725 249 LINE",
"725 345 LINE",
"621 345 LINE"
);
},
{
closed = 1;
nodes = (
"829 249 LINE",
"933 249 LINE",
"933 345 LINE",
"829 345 LINE"
);
},
{
closed = 1;
nodes = (
"1037 249 LINE",
"1140 249 LINE",
"1140 345 LINE",
"1037 345 LINE"
);
},
{
closed = 1;
nodes = (
"207 249 LINE",
"310 249 LINE",
"310 345 LINE",
"207 345 LINE"
);
},
{
closed = 1;
nodes = (
"1140 56 LINE",
"1244 56 LINE",
"1244 153 LINE",
"1140 153 LINE"
);
},
{
closed = 1;
nodes = (
"933 56 LINE",
"1037 56 LINE",
"1037 153 LINE",
"933 153 LINE"
);
},
{
closed = 1;
nodes = (
"725 56 LINE",
"829 56 LINE",
"829 153 LINE",
"725 153 LINE"
);
},
{
closed = 1;
nodes = (
"517 56 LINE",
"621 56 LINE",
"621 153 LINE",
"517 153 LINE"
);
},
{
closed = 1;
nodes = (
"310 56 LINE",
"414 56 LINE",
"414 153 LINE",
"310 153 LINE"
);
},
{
closed = 1;
nodes = (
"103 56 LINE",
"207 56 LINE",
"207 153 LINE",
"103 153 LINE"
);
},
{
closed = 1;
nodes = (
"0 -136 LINE",
"103 -136 LINE",
"103 -42 LINE",
"0 -42 LINE"
);
},
{
closed = 1;
nodes = (
"207 -136 LINE",
"310 -136 LINE",
"310 -42 LINE",
"207 -42 LINE"
);
},
{
closed = 1;
nodes = (
"414 -136 LINE",
"517 -136 LINE",
"517 -42 LINE",
"414 -42 LINE"
);
},
{
closed = 1;
nodes = (
"621 -136 LINE",
"725 -136 LINE",
"725 -42 LINE",
"621 -42 LINE"
);
},
{
closed = 1;
nodes = (
"829 -136 LINE",
"933 -136 LINE",
"933 -42 LINE",
"829 -42 LINE"
);
},
{
closed = 1;
nodes = (
"1037 -136 LINE",
"1140 -136 LINE",
"1140 -42 LINE",
"1037 -42 LINE"
);
},
{
closed = 1;
nodes = (
"1140 -331 LINE",
"1244 -331 LINE",
"1244 -234 LINE",
"1140 -234 LINE"
);
},
{
closed = 1;
nodes = (
"933 -331 LINE",
"1037 -331 LINE",
"1037 -234 LINE",
"933 -234 LINE"
);
},
{
closed = 1;
nodes = (
"725 -331 LINE",
"829 -331 LINE",
"829 -234 LINE",
"725 -234 LINE"
);
},
{
closed = 1;
nodes = (
"517 -331 LINE",
"621 -331 LINE",
"621 -234 LINE",
"517 -234 LINE"
);
},
{
closed = 1;
nodes = (
"310 -331 LINE",
"414 -331 LINE",
"414 -234 LINE",
"310 -234 LINE"
);
},
{
closed = 1;
nodes = (
"103 -331 LINE",
"207 -331 LINE",
"207 -234 LINE",
"103 -234 LINE"
);
},
{
closed = 1;
nodes = (
"0 -523 LINE",
"103 -523 LINE",
"103 -427 LINE",
"0 -427 LINE"
);
},
{
closed = 1;
nodes = (
"207 -523 LINE",
"310 -523 LINE",
"310 -427 LINE",
"207 -427 LINE"
);
},
{
closed = 1;
nodes = (
"414 -523 LINE",
"517 -523 LINE",
"517 -427 LINE",
"414 -427 LINE"
);
},
{
closed = 1;
nodes = (
"621 -523 LINE",
"725 -523 LINE",
"725 -427 LINE",
"621 -427 LINE"
);
},
{
closed = 1;
nodes = (
"829 -523 LINE",
"933 -523 LINE",
"933 -427 LINE",
"829 -427 LINE"
);
},
{
closed = 1;
nodes = (
"1037 -523 LINE",
"1140 -523 LINE",
"1140 -427 LINE",
"1037 -427 LINE"
);
},
{
closed = 1;
nodes = (
"0 1408 LINE",
"103 1408 LINE",
"103 1506 LINE",
"0 1506 LINE"
);
},
{
closed = 1;
nodes = (
"207 1408 LINE",
"310 1408 LINE",
"310 1506 LINE",
"207 1506 LINE"
);
},
{
closed = 1;
nodes = (
"414 1408 LINE",
"517 1408 LINE",
"517 1506 LINE",
"414 1506 LINE"
);
},
{
closed = 1;
nodes = (
"621 1408 LINE",
"725 1408 LINE",
"725 1506 LINE",
"621 1506 LINE"
);
},
{
closed = 1;
nodes = (
"829 1408 LINE",
"933 1408 LINE",
"933 1506 LINE",
"829 1506 LINE"
);
},
{
closed = 1;
nodes = (
"1037 1408 LINE",
"1140 1408 LINE",
"1140 1506 LINE",
"1037 1506 LINE"
);
},
{
closed = 1;
nodes = (
"103 1603 LINE",
"207 1603 LINE",
"207 1699 LINE",
"103 1699 LINE"
);
},
{
closed = 1;
nodes = (
"310 1603 LINE",
"414 1603 LINE",
"414 1699 LINE",
"310 1699 LINE"
);
},
{
closed = 1;
nodes = (
"517 1603 LINE",
"621 1603 LINE",
"621 1699 LINE",
"517 1699 LINE"
);
},
{
closed = 1;
nodes = (
"725 1603 LINE",
"829 1603 LINE",
"829 1699 LINE",
"725 1699 LINE"
);
},
{
closed = 1;
nodes = (
"933 1603 LINE",
"1037 1603 LINE",
"1037 1699 LINE",
"933 1699 LINE"
);
},
{
closed = 1;
nodes = (
"1140 1603 LINE",
"1244 1603 LINE",
"1244 1699 LINE",
"1140 1699 LINE"
);
},
{
closed = 1;
nodes = (
"1347 1216 LINE",
"1451 1216 LINE",
"1451 1314 LINE",
"1347 1314 LINE"
);
},
{
closed = 1;
nodes = (
"1244 1023 LINE",
"1347 1023 LINE",
"1347 1119 LINE",
"1244 1119 LINE"
);
},
{
closed = 1;
nodes = (
"1347 831 LINE",
"1451 831 LINE",
"1451 927 LINE",
"1347 927 LINE"
);
},
{
closed = 1;
nodes = (
"1244 636 LINE",
"1347 636 LINE",
"1347 732 LINE",
"1244 732 LINE"
);
},
{
closed = 1;
nodes = (
"1347 444 LINE",
"1451 444 LINE",
"1451 540 LINE",
"1347 540 LINE"
);
},
{
closed = 1;
nodes = (
"1244 249 LINE",
"1347 249 LINE",
"1347 345 LINE",
"1244 345 LINE"
);
},
{
closed = 1;
nodes = (
"1347 56 LINE",
"1451 56 LINE",
"1451 153 LINE",
"1347 153 LINE"
);
},
{
closed = 1;
nodes = (
"1244 -136 LINE",
"1347 -136 LINE",
"1347 -42 LINE",
"1244 -42 LINE"
);
},
{
closed = 1;
nodes = (
"1347 -331 LINE",
"1451 -331 LINE",
"1451 -234 LINE",
"1347 -234 LINE"
);
},
{
closed = 1;
nodes = (
"1244 -523 LINE",
"1347 -523 LINE",
"1347 -427 LINE",
"1244 -427 LINE"
);
},
{
closed = 1;
nodes = (
"1244 1408 LINE",
"1347 1408 LINE",
"1347 1506 LINE",
"1244 1506 LINE"
);
},
{
closed = 1;
nodes = (
"1347 1603 LINE",
"1451 1603 LINE",
"1451 1699 LINE",
"1347 1699 LINE"
);
}
);
width = 1451;
}
);
note = shade;
unicode = 2592;
},
{
glyphname = dkshade;
lastChange = "2019-11-19 19:15:40 +0000";
layers = (
{
layerId = "7129FC8E-08C2-4901-BA92-B1D794EB6D8E";
paths = (
{
closed = 1;
nodes = (
"1493 -523 LINE",
"1386 -523 LINE",
"1386 -427 LINE",
"1493 -427 LINE",
"1493 -136 LINE",
"1386 -136 LINE",
"1386 -42 LINE",
"1493 -42 LINE",
"1493 249 LINE",
"1386 249 LINE",
"1386 345 LINE",
"1493 345 LINE",
"1493 636 LINE",
"1386 636 LINE",
"1386 732 LINE",
"1493 732 LINE",
"1493 1023 LINE",
"1386 1023 LINE",
"1386 1119 LINE",
"1493 1119 LINE",
"1493 1408 LINE",
"1386 1408 LINE",
"1386 1506 LINE",
"1493 1506 LINE",
"1493 1699 LINE",
"1386 1699 LINE",
"1386 1603 LINE",
"1280 1603 LINE",
"1280 1699 LINE",
"1173 1699 LINE",
"1173 1603 LINE",
"1067 1603 LINE",
"1067 1699 LINE",
"960 1699 LINE",
"960 1603 LINE",
"853 1603 LINE",
"853 1699 LINE",
"746 1699 LINE",
"746 1603 LINE",
"639 1603 LINE",
"639 1699 LINE",
"532 1699 LINE",
"532 1603 LINE",
"426 1603 LINE",
"426 1699 LINE",
"319 1699 LINE",
"319 1603 LINE",
"213 1603 LINE",
"213 1699 LINE",
"106 1699 LINE",
"106 1603 LINE",
"0 1603 LINE",
"0 1314 LINE",
"106 1314 LINE",
"106 1216 LINE",
"0 1216 LINE",
"0 927 LINE",
"106 927 LINE",
"106 829 LINE",
"0 829 LINE",
"0 540 LINE",
"106 540 LINE",
"106 444 LINE",
"0 444 LINE",
"0 153 LINE",
"106 153 LINE",
"106 56 LINE",
"0 56 LINE",
"0 -234 LINE",
"106 -234 LINE",
"106 -331 LINE",
"0 -331 LINE",
"0 -621 LINE",
"1493 -621 LINE"
);
},
{
closed = 1;
nodes = (
"213 1119 LINE",
"213 1023 LINE",
"106 1023 LINE",
"106 1119 LINE"
);
},
{
closed = 1;
nodes = (
"426 1119 LINE",
"426 1023 LINE",
"319 1023 LINE",
"319 1119 LINE"
);
},
{
closed = 1;
nodes = (
"639 1119 LINE",
"639 1023 LINE",
"532 1023 LINE",
"532 1119 LINE"
);
},
{
closed = 1;
nodes = (
"853 1119 LINE",
"853 1023 LINE",
"746 1023 LINE",
"746 1119 LINE"
);
},
{
closed = 1;
nodes = (
"960 829 LINE",
"853 829 LINE",
"853 927 LINE",
"960 927 LINE"
);
},
{
closed = 1;
nodes = (
"746 829 LINE",
"639 829 LINE",
"639 927 LINE",
"746 927 LINE"
);
},
{
closed = 1;
nodes = (
"532 829 LINE",
"426 829 LINE",
"426 927 LINE",
"532 927 LINE"
);
},
{
closed = 1;
nodes = (
"319 829 LINE",
"213 829 LINE",
"213 927 LINE",
"319 927 LINE"
);
},
{
closed = 1;
nodes = (
"213 732 LINE",
"213 636 LINE",
"106 636 LINE",
"106 732 LINE"
);
},
{
closed = 1;
nodes = (
"426 732 LINE",
"426 636 LINE",
"319 636 LINE",
"319 732 LINE"
);
},
{
closed = 1;
nodes = (
"639 732 LINE",
"639 636 LINE",
"532 636 LINE",
"532 732 LINE"
);
},
{
closed = 1;
nodes = (
"853 732 LINE",
"853 636 LINE",
"746 636 LINE",
"746 732 LINE"
);
},
{
closed = 1;
nodes = (
"319 444 LINE",
"213 444 LINE",
"213 540 LINE",
"319 540 LINE"
);
},
{
closed = 1;
nodes = (
"532 540 LINE",
"532 444 LINE",
"426 444 LINE",
"426 540 LINE"
);
},
{
closed = 1;
nodes = (
"746 540 LINE",
"746 444 LINE",
"639 444 LINE",
"639 540 LINE"
);
},
{
closed = 1;
nodes = (
"960 540 LINE",
"960 444 LINE",
"853 444 LINE",
"853 540 LINE"
);
},
{
closed = 1;
nodes = (
"213 345 LINE",
"213 249 LINE",
"106 249 LINE",
"106 345 LINE"
);
},
{
closed = 1;
nodes = (
"639 345 LINE",
"639 249 LINE",
"532 249 LINE",
"532 345 LINE"
);
},
{
closed = 1;
nodes = (
"319 249 LINE",
"319 345 LINE",
"426 345 LINE",
"426 249 LINE"
);
},
{
closed = 1;
nodes = (
"853 345 LINE",
"853 249 LINE",
"746 249 LINE",
"746 345 LINE"
);
},
{
closed = 1;
nodes = (
"853 56 LINE",
"853 153 LINE",
"960 153 LINE",
"960 56 LINE"
);
},
{
closed = 1;
nodes = (
"639 56 LINE",
"639 153 LINE",
"746 153 LINE",
"746 56 LINE"
);
},
{
closed = 1;
nodes = (
"426 56 LINE",
"426 153 LINE",
"532 153 LINE",
"532 56 LINE"
);
},
{
closed = 1;
nodes = (
"213 56 LINE",
"213 153 LINE",
"319 153 LINE",
"319 56 LINE"
);
},
{
closed = 1;
nodes = (
"213 -42 LINE",
"213 -136 LINE",
"106 -136 LINE",
"106 -42 LINE"
);
},
{
closed = 1;
nodes = (
"426 -42 LINE",
"426 -136 LINE",
"319 -136 LINE",
"319 -42 LINE"
);
},
{
closed = 1;
nodes = (
"639 -42 LINE",
"639 -136 LINE",
"532 -136 LINE",
"532 -42 LINE"
);
},
{
closed = 1;
nodes = (
"853 -42 LINE",
"853 -136 LINE",
"746 -136 LINE",
"746 -42 LINE"
);
},
{
closed = 1;
nodes = (
"853 -331 LINE",
"853 -234 LINE",
"960 -234 LINE",
"960 -331 LINE"
);
},
{
closed = 1;
nodes = (
"639 -331 LINE",
"639 -234 LINE",
"746 -234 LINE",
"746 -331 LINE"
);
},
{
closed = 1;
nodes = (
"426 -331 LINE",
"426 -234 LINE",
"532 -234 LINE",
"532 -331 LINE"
);
},
{
closed = 1;
nodes = (
"213 -331 LINE",
"213 -234 LINE",
"319 -234 LINE",
"319 -331 LINE"
);
},
{
closed = 1;
nodes = (
"213 -427 LINE",
"213 -523 LINE",
"106 -523 LINE",
"106 -427 LINE"
);
},
{
closed = 1;
nodes = (
"426 -427 LINE",
"426 -523 LINE",
"319 -523 LINE",
"319 -427 LINE"
);
},
{
closed = 1;
nodes = (
"639 -427 LINE",
"639 -523 LINE",
"532 -523 LINE",
"532 -427 LINE"
);
},
{
closed = 1;
nodes = (
"853 -427 LINE",
"853 -523 LINE",
"746 -523 LINE",
"746 -427 LINE"
);
},
{
closed = 1;
nodes = (
"960 1216 LINE",
"853 1216 LINE",
"853 1314 LINE",
"960 1314 LINE"
);
},
{
closed = 1;
nodes = (
"746 1216 LINE",
"639 1216 LINE",
"639 1314 LINE",
"746 1314 LINE"
);
},
{
closed = 1;
nodes = (
"532 1216 LINE",
"426 1216 LINE",
"426 1314 LINE",
"532 1314 LINE"
);
},
{
closed = 1;
nodes = (
"319 1216 LINE",
"213 1216 LINE",
"213 1314 LINE",
"319 1314 LINE"
);
},
{
closed = 1;
nodes = (
"853 1408 LINE",
"746 1408 LINE",
"746 1506 LINE",
"853 1506 LINE"
);
},
{
closed = 1;
nodes = (
"639 1408 LINE",
"532 1408 LINE",
"532 1506 LINE",
"639 1506 LINE"
);
},
{
closed = 1;
nodes = (
"426 1408 LINE",
"319 1408 LINE",
"319 1506 LINE",
"426 1506 LINE"
);
},
{
closed = 1;
nodes = (
"213 1408 LINE",
"106 1408 LINE",
"106 1506 LINE",
"213 1506 LINE"
);
},
{
closed = 1;
nodes = (
"1067 1119 LINE",
"1067 1023 LINE",
"960 1023 LINE",
"960 1119 LINE"
);
},
{
closed = 1;
nodes = (
"1280 1119 LINE",
"1280 1023 LINE",
"1173 1023 LINE",
"1173 1119 LINE"
);
},
{
closed = 1;
nodes = (
"1386 829 LINE",
"1280 829 LINE",
"1280 927 LINE",
"1386 927 LINE"
);
},
{
closed = 1;
nodes = (
"1173 829 LINE",
"1067 829 LINE",
"1067 927 LINE",
"1173 927 LINE"
);
},
{
closed = 1;
nodes = (
"1067 732 LINE",
"1067 636 LINE",
"960 636 LINE",
"960 732 LINE"
);
},
{
closed = 1;
nodes = (
"1280 732 LINE",
"1280 636 LINE",
"1173 636 LINE",
"1173 732 LINE"
);
},
{
closed = 1;
nodes = (
"1173 444 LINE",
"1067 444 LINE",
"1067 540 LINE",
"1173 540 LINE"
);
},
{
closed = 1;
nodes = (
"1386 540 LINE",
"1386 444 LINE",
"1280 444 LINE",
"1280 540 LINE"
);
},
{
closed = 1;
nodes = (
"1067 345 LINE",
"1067 249 LINE",
"960 249 LINE",
"960 345 LINE"
);
},
{
closed = 1;
nodes = (
"1173 249 LINE",
"1173 345 LINE",
"1280 345 LINE",
"1280 249 LINE"
);
},
{
closed = 1;
nodes = (
"1280 56 LINE",
"1280 153 LINE",
"1386 153 LINE",
"1386 56 LINE"
);
},
{
closed = 1;
nodes = (
"1067 56 LINE",
"1067 153 LINE",
"1173 153 LINE",
"1173 56 LINE"
);
},
{
closed = 1;
nodes = (
"1067 -42 LINE",
"1067 -136 LINE",
"960 -136 LINE",
"960 -42 LINE"
);
},
{
closed = 1;
nodes = (
"1280 -42 LINE",
"1280 -136 LINE",
"1173 -136 LINE",
"1173 -42 LINE"
);
},
{
closed = 1;
nodes = (
"1280 -331 LINE",
"1280 -234 LINE",
"1386 -234 LINE",
"1386 -331 LINE"
);
},
{
closed = 1;
nodes = (
"1067 -331 LINE",
"1067 -234 LINE",
"1173 -234 LINE",
"1173 -331 LINE"
);
},
{
closed = 1;
nodes = (
"1067 -427 LINE",
"1067 -523 LINE",
"960 -523 LINE",
"960 -427 LINE"
);
},
{
closed = 1;
nodes = (
"1280 -427 LINE",
"1280 -523 LINE",
"1173 -523 LINE",
"1173 -427 LINE"
);
},
{
closed = 1;
nodes = (
"1386 1216 LINE",
"1280 1216 LINE",
"1280 1314 LINE",
"1386 1314 LINE"
);
},
{
closed = 1;
nodes = (
"1173 1216 LINE",
"1067 1216 LINE",
"1067 1314 LINE",
"1173 1314 LINE"
);
},
{
closed = 1;
nodes = (
"1280 1408 LINE",
"1173 1408 LINE",
"1173 1506 LINE",
"1280 1506 LINE"
);
},
{
closed = 1;
nodes = (
"1067 1408 LINE",
"960 1408 LINE",
"960 1506 LINE",
"1067 1506 LINE"
);
}
);
width = 1493;
}
);
note = dkshade;
unicode = 2593;
},
{
glyphname = filledbox;
lastChange = "2019-11-19 19:15:40 +0000";
layers = (
{
layerId = "7129FC8E-08C2-4901-BA92-B1D794EB6D8E";
paths = (
{
closed = 1;
nodes = (
"123 117 LINE",
"1114 117 LINE",
"1114 1108 LINE",
"123 1108 LINE"
);
}
);
width = 1237;
}
);
note = filledbox;
unicode = 25A0;
},
{
glyphname = filledrect;
lastChange = "2019-11-19 19:15:40 +0000";
layers = (
{
layerId = "7129FC8E-08C2-4901-BA92-B1D794EB6D8E";
paths = (
{
closed = 1;
nodes = (
"0 0 LINE",
"2048 0 LINE",
"2048 616 LINE",
"0 616 LINE"
);
}
);
width = 2048;
}
);
note = filledrect;
unicode = 25AC;
},
{
glyphname = triagup;
lastChange = "2019-11-19 19:15:40 +0000";
layers = (
{
layerId = "7129FC8E-08C2-4901-BA92-B1D794EB6D8E";
paths = (
{
closed = 1;
nodes = (
"1612 0 LINE",
"1014 1198 LINE",
"414 0 LINE"
);
}
);
width = 2027;
}
);
note = triagup;
unicode = 25B2;
},
{
glyphname = triagrt;
lastChange = "2019-11-19 19:15:40 +0000";
layers = (
{
layerId = "7129FC8E-08C2-4901-BA92-B1D794EB6D8E";
paths = (
{
closed = 1;
nodes = (
"401 -27 LINE",
"1626 586 LINE",
"401 1196 LINE"
);
}
);
width = 2027;
}
);
note = triagrt;
unicode = 25BA;
},
{
glyphname = triagdn;
lastChange = "2019-11-19 19:15:40 +0000";
layers = (
{
layerId = "7129FC8E-08C2-4901-BA92-B1D794EB6D8E";
paths = (
{
closed = 1;
nodes = (
"414 1171 LINE",
"1014 -27 LINE",
"1612 1171 LINE"
);
}
);
width = 2027;
}
);
note = triagdn;
unicode = 25BC;
},
{
glyphname = triaglf;
lastChange = "2019-11-19 19:15:40 +0000";
layers = (
{
layerId = "7129FC8E-08C2-4901-BA92-B1D794EB6D8E";
paths = (
{
closed = 1;
nodes = (
"401 586 LINE",
"1626 -27 LINE",
"1626 1196 LINE"
);
}
);
width = 2027;
}
);
note = triaglf;
unicode = 25C4;
},
{
glyphname = circle;
lastChange = "2019-11-19 19:15:40 +0000";
layers = (
{
layerId = "7129FC8E-08C2-4901-BA92-B1D794EB6D8E";
paths = (
{
closed = 1;
nodes = (
"167 490 OFFCURVE",
"287 282 OFFCURVE",
"495 162 OFFCURVE",
"617 162 QCURVE SMOOTH",
"740 162 OFFCURVE",
"949 282 OFFCURVE",
"1070 491 OFFCURVE",
"1070 612 QCURVE SMOOTH",
"1070 733 OFFCURVE",
"949 944 OFFCURVE",
"739 1065 OFFCURVE",
"617 1065 QCURVE SMOOTH",
"496 1065 OFFCURVE",
"287 944 OFFCURVE",
"167 734 OFFCURVE",
"167 612 QCURVE SMOOTH"
);
},
{
closed = 1;
nodes = (
"253 712 OFFCURVE",
"351 881 OFFCURVE",
"520 979 OFFCURVE",
"617 979 QCURVE SMOOTH",
"715 979 OFFCURVE",
"886 881 OFFCURVE",
"984 710 OFFCURVE",
"984 612 QCURVE SMOOTH",
"984 514 OFFCURVE",
"884 344 OFFCURVE",
"715 248 OFFCURVE",
"617 248 QCURVE SMOOTH",
"518 248 OFFCURVE",
"351 345 OFFCURVE",
"253 514 OFFCURVE",
"253 612 QCURVE SMOOTH"
);
}
);
width = 1237;
}
);
note = circle;
unicode = 25CB;
},
{
glyphname = invbullet;
lastChange = "2019-11-19 19:15:40 +0000";
layers = (
{
layerId = "7129FC8E-08C2-4901-BA92-B1D794EB6D8E";
paths = (
{
closed = 1;
nodes = (
"1196 0 LINE",
"1196 1155 LINE",
"41 1155 LINE",
"41 0 LINE"
);
},
{
closed = 1;
nodes = (
"176 695 OFFCURVE",
"293 899 OFFCURVE",
"498 1018 OFFCURVE",
"616 1018 QCURVE SMOOTH",
"735 1018 OFFCURVE",
"939 900 OFFCURVE",
"1057 695 OFFCURVE",
"1057 577 QCURVE SMOOTH",
"1057 460 OFFCURVE",
"939 255 OFFCURVE",
"734 137 OFFCURVE",
"616 137 QCURVE SMOOTH",
"497 137 OFFCURVE",
"294 255 OFFCURVE",
"176 459 OFFCURVE",
"176 577 QCURVE SMOOTH"
);
}
);
width = 1237;
}
);
note = invbullet;
unicode = 25D8;
},
{
glyphname = invcircle;
lastChange = "2019-11-19 19:15:40 +0000";
layers = (
{
layerId = "7129FC8E-08C2-4901-BA92-B1D794EB6D8E";
paths = (
{
closed = 1;
nodes = (
"1196 0 LINE",
"1196 1155 LINE",
"41 1155 LINE",
"41 0 LINE"
);
},
{
closed = 1;
nodes = (
"253 480 OFFCURVE",
"351 310 OFFCURVE",
"521 212 OFFCURVE",
"618 212 QCURVE SMOOTH",
"715 212 OFFCURVE",
"885 310 OFFCURVE",
"983 480 OFFCURVE",
"983 577 QCURVE SMOOTH",
"983 674 OFFCURVE",
"885 844 OFFCURVE",
"715 942 OFFCURVE",
"618 942 QCURVE SMOOTH",
"521 942 OFFCURVE",
"351 844 OFFCURVE",
"253 674 OFFCURVE",
"253 577 QCURVE SMOOTH"
);
},
{
closed = 1;
nodes = (
"176 695 OFFCURVE",
"293 899 OFFCURVE",
"498 1018 OFFCURVE",
"616 1018 QCURVE SMOOTH",
"735 1018 OFFCURVE",
"939 900 OFFCURVE",
"1057 695 OFFCURVE",
"1057 577 QCURVE SMOOTH",
"1057 460 OFFCURVE",
"939 255 OFFCURVE",
"734 137 OFFCURVE",
"616 137 QCURVE SMOOTH",
"497 137 OFFCURVE",
"294 255 OFFCURVE",
"176 459 OFFCURVE",
"176 577 QCURVE SMOOTH"
);
}
);
width = 1237;
}
);
note = invcircle;
unicode = 25D9;
},
{
glyphname = smileface;
lastChange = "2019-11-19 19:15:40 +0000";
layers = (
{
layerId = "7129FC8E-08C2-4901-BA92-B1D794EB6D8E";
paths = (
{
closed = 1;
nodes = (
"1657 833 OFFCURVE",
"1303 1196 OFFCURVE",
"1045 1196 QCURVE SMOOTH",
"787 1196 OFFCURVE",
"433 834 OFFCURVE",
"433 584 QCURVE SMOOTH",
"434 331 OFFCURVE",
"792 -27 OFFCURVE",
"1045 -27 QCURVE SMOOTH",
"1297 -26 OFFCURVE",
"1657 330 OFFCURVE",
"1657 584 QCURVE SMOOTH"
);
},
{
closed = 1;
nodes = (
"1566 369 OFFCURVE",
"1262 61 OFFCURVE",
"1045 61 QCURVE SMOOTH",
"829 62 OFFCURVE",
"523 368 OFFCURVE",
"523 584 QCURVE SMOOTH",
"523 801 OFFCURVE",
"676 954 QCURVE SMOOTH",
"827 1108 OFFCURVE",
"1045 1108 QCURVE SMOOTH",
"1261 1107 OFFCURVE",
"1567 801 OFFCURVE",
"1567 584 QCURVE SMOOTH"
);
},
{
closed = 1;
nodes = (
"889 743 OFFCURVE",
"843 788 OFFCURVE",
"811 788 QCURVE SMOOTH",
"779 788 OFFCURVE",
"734 743 OFFCURVE",
"734 711 QCURVE SMOOTH",
"734 679 OFFCURVE",
"779 633 OFFCURVE",
"811 633 QCURVE SMOOTH",
"843 633 OFFCURVE",
"889 679 OFFCURVE",
"889 711 QCURVE SMOOTH"
);
},
{
closed = 1;
nodes = (
"1356 743 OFFCURVE",
"1312 788 OFFCURVE",
"1280 788 QCURVE SMOOTH",
"1248 788 OFFCURVE",
"1201 743 OFFCURVE",
"1201 711 QCURVE SMOOTH",
"1201 679 OFFCURVE",
"1248 633 OFFCURVE",
"1280 633 QCURVE SMOOTH",
"1312 633 OFFCURVE",
"1356 679 OFFCURVE",
"1356 711 QCURVE SMOOTH"
);
},
{
closed = 1;
nodes = (
"762 387 LINE",
"860 201 OFFCURVE",
"1045 201 QCURVE SMOOTH",
"1230 201 OFFCURVE",
"1328 387 QCURVE",
"1266 422 LINE",
"1190 285 OFFCURVE",
"1045 285 QCURVE SMOOTH",
"898 285 OFFCURVE",
"822 422 QCURVE"
);
}
);
width = 2091;
}
);
note = smileface;
unicode = 263A;
},
{
glyphname = invsmileface;
lastChange = "2019-11-19 19:15:40 +0000";
layers = (
{
layerId = "7129FC8E-08C2-4901-BA92-B1D794EB6D8E";
paths = (
{
closed = 1;
nodes = (
"1689 833 OFFCURVE",
"1335 1196 OFFCURVE",
"1077 1196 QCURVE SMOOTH",
"819 1196 OFFCURVE",
"465 834 OFFCURVE",
"465 584 QCURVE SMOOTH",
"466 331 OFFCURVE",
"824 -27 OFFCURVE",
"1077 -27 QCURVE SMOOTH",
"1329 -26 OFFCURVE",
"1689 330 OFFCURVE",
"1689 584 QCURVE SMOOTH"
);
},
{
closed = 1;
nodes = (
"921 679 OFFCURVE",
"875 633 OFFCURVE",
"843 633 QCURVE SMOOTH",
"811 633 OFFCURVE",
"766 679 OFFCURVE",
"766 711 QCURVE SMOOTH",
"766 743 OFFCURVE",
"811 788 OFFCURVE",
"843 788 QCURVE SMOOTH",
"875 788 OFFCURVE",
"921 743 OFFCURVE",
"921 711 QCURVE SMOOTH"
);
},
{
closed = 1;
nodes = (
"1388 679 OFFCURVE",
"1344 633 OFFCURVE",
"1312 633 QCURVE SMOOTH",
"1280 633 OFFCURVE",
"1233 679 OFFCURVE",
"1233 711 QCURVE SMOOTH",
"1233 743 OFFCURVE",
"1280 788 OFFCURVE",
"1312 788 QCURVE SMOOTH",
"1344 788 OFFCURVE",
"1388 743 OFFCURVE",
"1388 711 QCURVE SMOOTH"
);
},
{
closed = 1;
nodes = (
"854 422 LINE",
"930 285 OFFCURVE",
"1077 285 QCURVE SMOOTH",
"1222 285 OFFCURVE",
"1298 422 QCURVE",
"1360 387 LINE",
"1262 201 OFFCURVE",
"1077 201 QCURVE SMOOTH",
"892 201 OFFCURVE",
"794 387 QCURVE"
);
}
);
width = 2155;
}
);
note = invsmileface;
unicode = 263B;
},
{
glyphname = sun;
lastChange = "2019-11-19 19:15:40 +0000";
layers = (
{
layerId = "7129FC8E-08C2-4901-BA92-B1D794EB6D8E";
paths = (
{
closed = 1;
nodes = (
"905 866 LINE",
"792 853 OFFCURVE",
"682 776 QCURVE",
"493 958 LINE",
"453 909 LINE",
"633 725 LINE",
"553 630 OFFCURVE",
"541 502 QCURVE",
"326 502 LINE",
"326 440 LINE",
"541 440 LINE",
"557 315 OFFCURVE",
"635 215 QCURVE",
"453 31 LINE",
"496 -14 LINE",
"684 166 LINE",
"784 93 OFFCURVE",
"905 76 QCURVE",
"905 -141 LINE",
"971 -141 LINE",
"971 76 LINE",
"1024 84 OFFCURVE",
"1086 100 OFFCURVE",
"1160 142 OFFCURVE",
"1196 168 QCURVE",
"1378 -14 LINE",
"1427 29 LINE",
"1243 217 LINE",
"1318 313 OFFCURVE",
"1335 438 QCURVE",
"1550 438 LINE",
"1550 500 LINE",
"1335 500 LINE",
"1329 616 OFFCURVE",
"1243 729 QCURVE",
"1427 913 LINE",
"1382 958 LINE",
"1196 776 LINE",
"1136 821 OFFCURVE",
"1037 860 OFFCURVE",
"971 866 QCURVE",
"971 1083 LINE",
"905 1083 LINE"
);
},
{
closed = 1;
nodes = (
"1074 805 OFFCURVE",
"1270 607 OFFCURVE",
"1270 471 QCURVE SMOOTH",
"1270 333 OFFCURVE",
"1171 236 QCURVE SMOOTH",
"1075 139 OFFCURVE",
"936 139 QCURVE SMOOTH",
"799 139 OFFCURVE",
"604 335 OFFCURVE",
"604 471 QCURVE SMOOTH",
"604 607 OFFCURVE",
"797 805 OFFCURVE",
"936 805 QCURVE SMOOTH"
);
}
);
width = 1877;
}
);
note = sun;
unicode = 263C;
},
{
glyphname = female;
lastChange = "2019-11-19 19:15:40 +0000";
layers = (
{
layerId = "7129FC8E-08C2-4901-BA92-B1D794EB6D8E";
paths = (
{
closed = 1;
nodes = (
"732 412 LINE",
"474 412 LINE",
"474 342 LINE",
"732 342 LINE",
"732 80 LINE",
"806 80 LINE",
"806 342 LINE",
"1062 342 LINE",
"1062 412 LINE",
"806 412 LINE",
"806 578 LINE",
"912 591 OFFCURVE",
"1056 753 OFFCURVE",
"1056 862 QCURVE SMOOTH",
"1056 984 OFFCURVE",
"970 1067 QCURVE SMOOTH",
"887 1153 OFFCURVE",
"769 1153 QCURVE SMOOTH",
"655 1153 OFFCURVE",
"481 988 OFFCURVE",
"481 862 QCURVE SMOOTH",
"481 787 OFFCURVE",
"549 665 OFFCURVE",
"656 589 OFFCURVE",
"732 578 QCURVE"
);
},
{
closed = 1;
nodes = (
"824 1069 OFFCURVE",
"917 1017 OFFCURVE",
"974 922 OFFCURVE",
"974 864 QCURVE SMOOTH",
"974 780 OFFCURVE",
"913 719 QCURVE SMOOTH",
"854 657 OFFCURVE",
"767 657 QCURVE SMOOTH",
"685 657 OFFCURVE",
"562 778 OFFCURVE",
"562 864 QCURVE SMOOTH",
"562 921 OFFCURVE",
"619 1016 OFFCURVE",
"711 1069 OFFCURVE",
"767 1069 QCURVE SMOOTH"
);
}
);
width = 1536;
}
);
note = female;
unicode = 2640;
},
{
glyphname = male;
lastChange = "2019-11-19 19:15:40 +0000";
layers = (
{
layerId = "7129FC8E-08C2-4901-BA92-B1D794EB6D8E";
paths = (
{
closed = 1;
nodes = (
"782 782 LINE",
"699 825 OFFCURVE",
"628 825 QCURVE SMOOTH",
"506 825 OFFCURVE",
"337 655 OFFCURVE",
"337 535 QCURVE SMOOTH",
"337 413 OFFCURVE",
"510 250 OFFCURVE",
"626 250 QCURVE SMOOTH",
"742 250 OFFCURVE",
"917 424 OFFCURVE",
"917 549 QCURVE SMOOTH",
"917 658 OFFCURVE",
"833 739 QCURVE",
"1070 977 LINE",
"1083 927 OFFCURVE",
"1119 837 OFFCURVE",
"1156 772 OFFCURVE",
"1175 772 QCURVE",
"1189 778 LINE",
"1193 784 OFFCURVE",
"1193 793 QCURVE",
"1189 825 LINE",
"1177 876 OFFCURVE",
"1177 954 QCURVE SMOOTH",
"1177 1052 OFFCURVE",
"1193 1112 QCURVE SMOOTH",
"1199 1139 LINE",
"1199 1153 OFFCURVE",
"1183 1153 QCURVE SMOOTH",
"1170 1153 OFFCURVE",
"1134 1141 QCURVE SMOOTH",
"1093 1128 OFFCURVE",
"1005 1128 QCURVE SMOOTH",
"946 1128 OFFCURVE",
"878 1145 QCURVE",
"845 1149 LINE",
"837 1149 OFFCURVE",
"831 1145 QCURVE",
"825 1136 OFFCURVE",
"825 1128 QCURVE SMOOTH",
"825 1115 OFFCURVE",
"833 1110 QCURVE",
"876 1067 OFFCURVE",
"1023 1024 QCURVE"
);
},
{
closed = 1;
nodes = (
"715 750 OFFCURVE",
"839 626 OFFCURVE",
"839 539 QCURVE SMOOTH",
"839 451 OFFCURVE",
"717 326 OFFCURVE",
"628 326 QCURVE SMOOTH",
"541 326 OFFCURVE",
"415 444 OFFCURVE",
"415 539 QCURVE SMOOTH",
"415 628 OFFCURVE",
"539 750 OFFCURVE",
"628 750 QCURVE SMOOTH"
);
}
);
width = 1536;
}
);
note = male;
unicode = 2642;
},
{
glyphname = spade;
lastChange = "2019-11-19 19:15:40 +0000";
layers = (
{
layerId = "7129FC8E-08C2-4901-BA92-B1D794EB6D8E";
paths = (
{
closed = 1;
nodes = (
"518 1106 OFFCURVE",
"386 920 OFFCURVE",
"247 801 QCURVE SMOOTH",
"148 719 OFFCURVE",
"59 583 OFFCURVE",
"59 494 QCURVE SMOOTH",
"59 402 OFFCURVE",
"189 274 OFFCURVE",
"278 274 QCURVE SMOOTH",
"448 274 OFFCURVE",
"538 465 QCURVE",
"538 451 LINE SMOOTH",
"538 306 OFFCURVE",
"451 134 OFFCURVE",
"279 37 OFFCURVE",
"155 37 QCURVE",
"149 0 LINE",
"941 0 LINE",
"933 37 LINE",
"801 46 OFFCURVE",
"638 140 OFFCURVE",
"559 306 OFFCURVE",
"556 465 QCURVE",
"655 274 OFFCURVE",
"812 274 QCURVE SMOOTH",
"899 274 OFFCURVE",
"1029 402 OFFCURVE",
"1029 498 QCURVE SMOOTH",
"1027 569 OFFCURVE",
"957 701 OFFCURVE",
"816 827 QCURVE SMOOTH",
"665 966 OFFCURVE",
"569 1135 OFFCURVE",
"544 1231 QCURVE"
);
}
);
width = 1088;
}
);
note = spade;
unicode = 2660;
},
{
glyphname = club;
lastChange = "2019-11-19 19:15:40 +0000";
layers = (
{
layerId = "7129FC8E-08C2-4901-BA92-B1D794EB6D8E";
paths = (
{
closed = 1;
nodes = (
"1086 35 LINE",
"972 56 OFFCURVE",
"845 109 OFFCURVE",
"736 229 OFFCURVE",
"687 382 OFFCURVE",
"682 508 QCURVE",
"743 403 OFFCURVE",
"838 321 OFFCURVE",
"956 272 OFFCURVE",
"1012 272 QCURVE SMOOTH",
"1128 272 OFFCURVE",
"1284 437 OFFCURVE",
"1284 553 QCURVE SMOOTH",
"1284 669 OFFCURVE",
"1211 745 QCURVE SMOOTH",
"1143 823 OFFCURVE",
"1038 823 QCURVE SMOOTH",
"999 823 OFFCURVE",
"977 815 QCURVE",
"961 812 OFFCURVE",
"877 772 QCURVE",
"946 870 OFFCURVE",
"946 956 QCURVE SMOOTH",
"946 1063 OFFCURVE",
"786 1223 OFFCURVE",
"670 1223 QCURVE SMOOTH",
"557 1223 OFFCURVE",
"395 1073 OFFCURVE",
"395 952 QCURVE SMOOTH",
"395 914 OFFCURVE",
"406 877 QCURVE",
"423 837 OFFCURVE",
"461 772 QCURVE",
"361 823 OFFCURVE",
"299 823 QCURVE SMOOTH",
"206 822 OFFCURVE",
"60 664 OFFCURVE",
"60 549 QCURVE SMOOTH",
"60 472 OFFCURVE",
"130 346 OFFCURVE",
"259 270 OFFCURVE",
"336 270 QCURVE SMOOTH",
"425 270 OFFCURVE",
"603 388 OFFCURVE",
"660 508 QCURVE",
"662 461 LINE SMOOTH",
"662 385 OFFCURVE",
"609 236 OFFCURVE",
"514 116 OFFCURVE",
"395 62 OFFCURVE",
"260 35 QCURVE",
"252 0 LINE",
"1094 0 LINE"
);
}
);
width = 1344;
}
);
note = club;
unicode = 2663;
},
{
glyphname = heart;
lastChange = "2019-11-19 19:15:40 +0000";
layers = (
{
layerId = "7129FC8E-08C2-4901-BA92-B1D794EB6D8E";
paths = (
{
closed = 1;
nodes = (
"646 106 OFFCURVE",
"775 319 OFFCURVE",
"915 498 QCURVE SMOOTH",
"1026 635 OFFCURVE",
"1114 825 OFFCURVE",
"1114 911 QCURVE SMOOTH",
"1114 1009 OFFCURVE",
"971 1145 OFFCURVE",
"874 1145 QCURVE SMOOTH",
"786 1145 OFFCURVE",
"644 1028 OFFCURVE",
"610 909 QCURVE",
"572 1029 OFFCURVE",
"429 1143 OFFCURVE",
"342 1143 QCURVE SMOOTH",
"241 1143 OFFCURVE",
"102 1006 OFFCURVE",
"102 899 QCURVE SMOOTH",
"102 833 OFFCURVE",
"156 704 OFFCURVE",
"231 604 QCURVE SMOOTH",
"321 481 LINE SMOOTH",
"497 245 OFFCURVE",
"588 63 OFFCURVE",
"610 -23 QCURVE"
);
}
);
width = 1216;
}
);
note = heart;
unicode = 2665;
},
{
glyphname = diamond;
lastChange = "2019-11-19 19:15:40 +0000";
layers = (
{
layerId = "7129FC8E-08C2-4901-BA92-B1D794EB6D8E";
paths = (
{
closed = 1;
nodes = (
"441 1082 OFFCURVE",
"182 737 OFFCURVE",
"66 600 QCURVE",
"151 498 OFFCURVE",
"299 307 OFFCURVE",
"484 46 OFFCURVE",
"521 -25 QCURVE",
"604 123 OFFCURVE",
"910 530 OFFCURVE",
"978 600 QCURVE",
"856 737 OFFCURVE",
"591 1098 OFFCURVE",
"519 1223 QCURVE"
);
}
);
width = 1045;
}
);
note = diamond;
unicode = 2666;
},
{
glyphname = musicalnote;
lastChange = "2019-11-19 19:15:40 +0000";
layers = (
{
layerId = "7129FC8E-08C2-4901-BA92-B1D794EB6D8E";
paths = (
{
closed = 1;
nodes = (
"489 303 LINE",
"443 322 OFFCURVE",
"399 322 QCURVE SMOOTH",
"321 322 OFFCURVE",
"196 206 OFFCURVE",
"196 129 QCURVE SMOOTH",
"196 83 OFFCURVE",
"254 29 OFFCURVE",
"311 29 QCURVE SMOOTH",
"418 29 OFFCURVE",
"565 180 OFFCURVE",
"565 303 QCURVE SMOOTH",
"565 809 LINE",
"629 798 OFFCURVE",
"743 640 OFFCURVE",
"743 520 QCURVE SMOOTH",
"743 400 OFFCURVE",
"686 272 QCURVE",
"733 272 LINE",
"827 393 OFFCURVE",
"827 543 QCURVE SMOOTH",
"827 713 OFFCURVE",
"718 860 QCURVE",
"565 1053 LINE",
"565 1153 LINE",
"489 1153 LINE"
);
}
);
width = 1024;
}
);
note = musicalnote;
unicode = 266A;
},
{
glyphname = musicalnotedbl;
lastChange = "2019-11-19 19:15:40 +0000";
layers = (
{
layerId = "7129FC8E-08C2-4901-BA92-B1D794EB6D8E";
paths = (
{
closed = 1;
nodes = (
"1263 1159 LINE",
"565 981 LINE",
"565 229 LINE",
"520 248 OFFCURVE",
"475 248 QCURVE SMOOTH",
"396 251 OFFCURVE",
"272 131 OFFCURVE",
"272 55 QCURVE SMOOTH",
"272 10 OFFCURVE",
"330 -43 OFFCURVE",
"387 -43 QCURVE SMOOTH",
"502 -43 OFFCURVE",
"639 112 OFFCURVE",
"639 229 QCURVE SMOOTH",
"639 623 LINE",
"1189 772 LINE",
"1189 324 LINE",
"1147 342 OFFCURVE",
"1099 342 QCURVE SMOOTH",
"1021 342 OFFCURVE",
"899 231 OFFCURVE",
"899 150 QCURVE SMOOTH",
"899 103 OFFCURVE",
"956 49 OFFCURVE",
"1013 49 QCURVE SMOOTH",
"1086 49 OFFCURVE",
"1209 133 OFFCURVE",
"1263 246 OFFCURVE",
"1263 324 QCURVE SMOOTH"
);
},
{
closed = 1;
nodes = (
"639 864 LINE",
"1189 1016 LINE",
"1189 899 LINE",
"639 750 LINE"
);
}
);
width = 1536;
}
);
note = musicalnotedbl;
unicode = 266B;
},
{
glyphname = minute;
lastChange = "2019-11-19 19:15:40 +0000";
layers = (
{
layerId = "7129FC8E-08C2-4901-BA92-B1D794EB6D8E";
paths = (
{
closed = 1;
nodes = (
"297 890 LINE",
"455 1409 LINE",
"149 1409 LINE",
"85 890 LINE"
);
}
);
width = 491;
}
);
note = minute;
unicode = 2032;
},
{
glyphname = uni2105;
lastChange = "2019-11-19 19:15:40 +0000";
layers = (
{
layerId = "7129FC8E-08C2-4901-BA92-B1D794EB6D8E";
paths = (
{
closed = 1;
nodes = (
"550 525 OFFCURVE",
"727 684 OFFCURVE",
"744 824 QCURVE",
"556 834 LINE",
"548 767 OFFCURVE",
"480 690 OFFCURVE",
"420 690 QCURVE SMOOTH",
"336 690 OFFCURVE",
"266 835 OFFCURVE",
"266 986 QCURVE SMOOTH",
"266 1132 OFFCURVE",
"335 1275 OFFCURVE",
"420 1275 QCURVE SMOOTH",
"479 1275 OFFCURVE",
"545 1200 OFFCURVE",
"553 1137 QCURVE",
"741 1149 LINE",
"717 1286 OFFCURVE",
"547 1425 OFFCURVE",
"416 1425 QCURVE SMOOTH",
"241 1425 OFFCURVE",
"54 1191 OFFCURVE",
"54 976 QCURVE SMOOTH",
"54 757 OFFCURVE",
"241 525 OFFCURVE",
"419 525 QCURVE SMOOTH"
);
},
{
closed = 1;
nodes = (
"1759 654 OFFCURVE",
"1589 881 OFFCURVE",
"1409 881 QCURVE SMOOTH",
"1223 881 OFFCURVE",
"1051 656 OFFCURVE",
"1051 432 QCURVE SMOOTH",
"1051 212 OFFCURVE",
"1229 -16 OFFCURVE",
"1405 -16 QCURVE SMOOTH",
"1579 -16 OFFCURVE",
"1759 214 OFFCURVE",
"1759 432 QCURVE SMOOTH"
);
},
{
closed = 1;
nodes = (
"1471 1409 LINE",
"1262 1409 LINE",
"342 0 LINE",
"548 0 LINE"
);
},
{
closed = 1;
nodes = (
"1544 277 OFFCURVE",
"1480 141 OFFCURVE",
"1407 141 QCURVE SMOOTH",
"1332 141 OFFCURVE",
"1268 272 OFFCURVE",
"1268 432 QCURVE SMOOTH",
"1268 589 OFFCURVE",
"1329 727 OFFCURVE",
"1409 727 QCURVE SMOOTH",
"1483 727 OFFCURVE",
"1544 591 OFFCURVE",
"1544 432 QCURVE SMOOTH"
);
}
);
width = 1813;
}
);
note = uni2105;
unicode = 2105;
},
{
glyphname = uni2113;
lastChange = "2019-11-19 19:15:40 +0000";
layers = (
{
layerId = "7129FC8E-08C2-4901-BA92-B1D794EB6D8E";
paths = (
{
closed = 1;
nodes = (
"453 195 OFFCURVE",
"453 377 QCURVE SMOOTH",
"453 578 LINE",
"679 656 OFFCURVE",
"928 940 OFFCURVE",
"928 1132 QCURVE SMOOTH",
"928 1274 OFFCURVE",
"741 1429 OFFCURVE",
"574 1429 QCURVE SMOOTH",
"383 1429 OFFCURVE",
"173 1241 OFFCURVE",
"173 1061 QCURVE SMOOTH",
"174 671 LINE",
"41 623 LINE",
"41 428 LINE",
"173 476 LINE",
"173 310 LINE SMOOTH",
"173 147 OFFCURVE",
"332 -20 OFFCURVE",
"501 -20 QCURVE SMOOTH",
"832 -20 OFFCURVE",
"916 408 QCURVE",
"770 408 LINE",
"747 301 OFFCURVE",
"662 195 OFFCURVE",
"582 195 QCURVE SMOOTH"
);
},
{
closed = 1;
nodes = (
"689 998 OFFCURVE",
"567 819 OFFCURVE",
"461 776 QCURVE",
"461 1112 LINE SMOOTH",
"461 1260 OFFCURVE",
"578 1260 QCURVE SMOOTH",
"635 1260 OFFCURVE",
"689 1176 OFFCURVE",
"689 1107 QCURVE SMOOTH"
);
}
);
width = 1001;
}
);
note = uni2113;
unicode = 2113;
},
{
glyphname = uni25A1;
lastChange = "2019-11-19 19:15:40 +0000";
layers = (
{
layerId = "7129FC8E-08C2-4901-BA92-B1D794EB6D8E";
paths = (
{
closed = 1;
nodes = (
"6 0 LINE",
"1231 0 LINE",
"1231 1225 LINE",
"6 1225 LINE"
);
},
{
closed = 1;
nodes = (
"1155 1149 LINE",
"1155 76 LINE",
"82 76 LINE",
"82 1149 LINE"
);
}
);
width = 1237;
}
);
note = uni25A1;
unicode = 25A1;
},
{
glyphname = uni25AA;
lastChange = "2019-11-19 19:15:40 +0000";
layers = (
{
layerId = "7129FC8E-08C2-4901-BA92-B1D794EB6D8E";
paths = (
{
closed = 1;
nodes = (
"617 891 LINE",
"109 891 LINE",
"109 383 LINE",
"617 383 LINE"
);
}
);
width = 726;
}
);
note = uni25AA;
unicode = 25AA;
},
{
glyphname = uni25AB;
lastChange = "2019-11-19 19:15:40 +0000";
layers = (
{
layerId = "7129FC8E-08C2-4901-BA92-B1D794EB6D8E";
paths = (
{
closed = 1;
nodes = (
"617 891 LINE",
"109 891 LINE",
"109 383 LINE",
"617 383 LINE"
);
},
{
closed = 1;
nodes = (
"185 459 LINE",
"185 813 LINE",
"541 813 LINE",
"541 459 LINE"
);
}
);
width = 726;
}
);
note = uni25AB;
unicode = 25AB;
},
